{"glyphs":{"0":{"ha":772,"x_min":54,"x_max":718,"o":"m 385 -14 q 214 37 288 -14 q 97 197 140 87 q 54 478 54 307 q 389 970 54 970 q 628 854 538 970 q 718 478 718 739 q 675 198 718 308 q 556 37 631 88 q 385 -14 481 -14 m 386 100 q 541 191 486 100 q 595 478 595 283 q 543 769 595 680 q 389 857 491 857 q 272 820 318 857 q 201 698 225 782 q 178 478 178 614 q 231 191 178 281 q 386 100 284 100 z "},"1":{"ha":772,"x_min":106,"x_max":704,"o":"m 106 114 l 349 114 l 349 821 l 134 667 l 134 800 l 359 956 l 472 956 l 472 114 l 704 114 l 704 0 l 106 0 l 106 114 z "},"2":{"ha":772,"x_min":69,"x_max":703,"o":"m 703 114 l 703 0 l 69 0 l 69 96 l 436 485 q 509 568 484 536 q 548 632 534 599 q 562 707 562 666 q 542 783 562 749 q 482 836 521 817 q 392 856 444 856 q 270 824 319 856 q 172 720 221 792 l 69 789 q 141 878 102 840 q 241 943 180 917 q 387 970 302 970 q 549 937 481 970 q 652 845 616 905 q 688 708 688 786 q 669 607 688 652 q 616 519 650 562 q 517 408 583 477 l 237 114 l 703 114 z "},"3":{"ha":772,"x_min":57,"x_max":711,"o":"m 383 -14 q 185 33 260 -14 q 57 158 110 79 l 160 233 q 220 160 195 186 q 284 118 245 134 q 383 102 323 102 q 531 143 478 102 q 585 261 585 184 q 551 358 585 321 q 468 411 517 395 q 366 427 418 427 l 282 427 l 282 546 l 363 546 q 457 563 412 546 q 531 617 503 581 q 559 710 559 654 q 514 817 559 778 q 386 856 469 856 q 299 841 336 856 q 235 800 262 826 q 179 734 207 774 l 75 800 q 201 925 120 881 q 387 970 283 970 q 554 937 488 970 q 653 848 621 904 q 685 722 685 792 q 642 578 685 638 q 517 490 599 518 l 517 488 q 621 443 577 475 q 688 362 665 410 q 711 257 711 314 q 673 112 711 173 q 562 19 635 52 q 383 -14 488 -14 z "},"4":{"ha":772,"x_min":32,"x_max":732,"o":"m 482 207 l 32 207 l 32 311 l 469 956 l 597 956 l 597 313 l 732 313 l 732 207 l 597 207 l 597 0 l 482 0 l 482 207 m 482 313 l 482 676 q 484 794 482 751 l 436 724 l 201 376 l 191 362 q 157 313 162 319 l 482 313 z "},"5":{"ha":772,"x_min":57,"x_max":714,"o":"m 403 616 q 566 577 496 616 q 675 468 637 538 q 714 311 714 399 q 675 141 714 214 q 558 27 635 68 q 372 -14 481 -14 q 187 24 263 -14 q 57 131 111 62 l 158 208 q 214 151 187 173 q 279 114 240 128 q 375 100 319 100 q 487 124 439 100 q 561 195 534 149 q 587 309 587 242 q 562 409 587 364 q 490 479 537 454 q 380 505 444 505 q 275 486 321 505 q 180 425 230 467 l 85 471 l 110 956 l 659 956 l 659 842 l 221 842 l 208 570 q 403 616 285 616 z "},"6":{"ha":772,"x_min":72,"x_max":713,"o":"m 404 -14 q 156 109 240 -14 q 72 456 72 231 q 113 739 72 624 q 230 912 153 854 q 414 970 307 970 q 563 939 501 970 q 676 840 625 908 l 583 770 q 506 837 545 816 q 412 857 467 857 q 296 817 345 857 q 221 696 247 777 q 195 500 195 616 q 289 587 227 556 q 425 618 350 618 q 576 578 511 618 q 677 469 641 538 q 713 313 713 399 q 674 149 713 224 q 566 31 636 75 q 404 -14 495 -14 m 400 98 q 500 126 458 98 q 566 201 543 154 q 589 307 589 249 q 566 409 589 363 q 500 483 544 455 q 396 510 457 510 q 312 491 355 510 q 238 428 269 472 q 208 313 208 383 q 232 208 208 258 q 299 129 255 159 q 400 98 342 98 z "},"7":{"ha":772,"x_min":71,"x_max":703,"o":"m 703 956 l 703 857 l 340 0 l 203 0 l 571 842 l 71 842 l 71 956 l 703 956 z "},"8":{"ha":772,"x_min":60,"x_max":713,"o":"m 386 -14 q 210 22 283 -14 q 98 121 136 58 q 60 265 60 184 q 82 369 60 321 q 143 451 105 417 q 224 500 180 484 l 224 503 q 119 589 155 535 q 83 725 83 643 q 121 848 83 792 q 226 937 158 904 q 383 970 294 970 q 547 937 477 970 q 652 847 616 903 q 689 724 689 791 q 653 588 689 642 q 547 504 617 534 l 547 501 q 632 451 595 485 q 691 370 670 418 q 713 267 713 323 q 675 121 713 184 q 563 22 637 58 q 386 -14 489 -14 m 385 555 q 490 581 450 555 q 545 642 529 606 q 561 717 561 679 q 515 825 561 785 q 383 865 470 865 q 288 847 328 865 q 228 794 248 828 q 207 717 207 761 q 225 643 207 680 q 283 581 243 606 q 385 555 323 555 m 387 92 q 535 141 486 92 q 585 278 585 191 q 563 360 585 320 q 496 425 541 399 q 383 450 451 450 q 277 425 322 450 q 209 358 233 399 q 186 275 186 318 q 209 179 186 220 q 277 115 232 138 q 387 92 322 92 z "},"9":{"ha":772,"x_min":65,"x_max":707,"o":"m 366 -14 q 213 17 277 -14 q 100 115 149 47 l 189 192 q 270 120 228 142 q 367 98 311 98 q 484 139 435 98 q 558 259 532 179 q 585 456 585 339 q 491 360 552 394 q 354 326 429 326 q 202 366 268 326 q 101 477 137 406 q 65 642 65 549 q 103 809 65 734 q 212 927 142 884 q 375 970 282 970 q 624 851 541 970 q 707 500 707 733 q 666 217 707 332 q 549 44 626 102 q 366 -14 473 -14 m 383 435 q 468 455 425 435 q 541 522 511 475 q 571 643 571 568 q 548 747 571 698 q 480 827 524 797 q 379 857 437 857 q 278 829 321 857 q 212 752 235 802 q 189 642 189 703 q 211 534 189 581 q 277 461 233 487 q 383 435 321 435 z "},"\u0000":{"ha":0,"x_min":0,"x_max":0,"o":""},"\r":{"ha":386,"x_min":0,"x_max":0,"o":""}," ":{"ha":386,"x_min":0,"x_max":0,"o":""},"A":{"ha":871,"x_min":3,"x_max":868,"o":"m 646 258 l 228 258 l 138 0 l 3 0 l 363 956 l 515 956 l 868 0 l 736 0 l 646 258 m 606 371 l 493 696 q 458 788 475 743 q 437 852 442 833 q 415 785 431 831 q 380 694 399 740 l 267 371 l 606 371 z "},"Á":{"ha":871,"x_min":3,"x_max":868,"o":"m 646 258 l 228 258 l 138 0 l 3 0 l 363 956 l 515 956 l 868 0 l 736 0 l 646 258 m 606 371 l 493 696 q 458 788 475 743 q 437 852 442 833 q 415 785 431 831 q 380 694 399 740 l 267 371 l 606 371 m 339 1051 l 486 1204 l 627 1204 l 627 1185 l 444 1038 l 339 1038 l 339 1051 z "},"Ă":{"ha":871,"x_min":3,"x_max":868,"o":"m 646 258 l 228 258 l 138 0 l 3 0 l 363 956 l 515 956 l 868 0 l 736 0 l 646 258 m 606 371 l 493 696 q 458 788 475 743 q 437 852 442 833 q 415 785 431 831 q 380 694 399 740 l 267 371 l 606 371 m 435 1038 q 323 1061 371 1038 q 246 1122 275 1084 q 210 1207 218 1161 l 289 1207 q 338 1149 301 1170 q 436 1129 376 1129 q 534 1150 496 1129 q 582 1207 572 1171 l 661 1207 q 625 1122 652 1160 q 549 1061 597 1084 q 435 1038 501 1038 z "},"Â":{"ha":871,"x_min":3,"x_max":868,"o":"m 646 258 l 228 258 l 138 0 l 3 0 l 363 956 l 515 956 l 868 0 l 736 0 l 646 258 m 606 371 l 493 696 q 458 788 475 743 q 437 852 442 833 q 415 785 431 831 q 380 694 399 740 l 267 371 l 606 371 m 211 1051 l 369 1214 l 508 1214 l 660 1051 l 660 1038 l 561 1038 l 440 1132 l 439 1132 l 309 1038 l 211 1038 l 211 1051 z "},"Ä":{"ha":871,"x_min":3,"x_max":868,"o":"m 646 258 l 228 258 l 138 0 l 3 0 l 363 956 l 515 956 l 868 0 l 736 0 l 646 258 m 606 371 l 493 696 q 458 788 475 743 q 437 852 442 833 q 415 785 431 831 q 380 694 399 740 l 267 371 l 606 371 m 307 1038 q 257 1058 277 1038 q 236 1108 236 1078 q 257 1160 236 1139 q 307 1181 277 1181 q 357 1160 336 1181 q 378 1108 378 1139 q 357 1058 378 1078 q 307 1038 336 1038 m 566 1038 q 516 1058 537 1038 q 496 1108 496 1078 q 516 1160 496 1139 q 566 1181 537 1181 q 616 1160 595 1181 q 637 1108 637 1139 q 616 1058 637 1078 q 566 1038 595 1038 z "},"À":{"ha":871,"x_min":3,"x_max":868,"o":"m 646 258 l 228 258 l 138 0 l 3 0 l 363 956 l 515 956 l 868 0 l 736 0 l 646 258 m 606 371 l 493 696 q 458 788 475 743 q 437 852 442 833 q 415 785 431 831 q 380 694 399 740 l 267 371 l 606 371 m 255 1185 l 255 1204 l 395 1204 l 543 1051 l 543 1038 l 437 1038 l 255 1185 z "},"Ā":{"ha":871,"x_min":3,"x_max":868,"o":"m 646 258 l 228 258 l 138 0 l 3 0 l 363 956 l 515 956 l 868 0 l 736 0 l 646 258 m 606 371 l 493 696 q 458 788 475 743 q 437 852 442 833 q 415 785 431 831 q 380 694 399 740 l 267 371 l 606 371 m 250 1147 l 622 1147 l 622 1061 l 250 1061 l 250 1147 z "},"Ą":{"ha":871,"x_min":3,"x_max":907,"o":"m 829 -197 q 907 -180 865 -197 l 907 -264 q 812 -282 867 -282 q 706 -248 743 -282 q 669 -156 669 -214 q 697 -64 669 -104 q 761 0 726 -24 l 736 0 l 646 258 l 228 258 l 138 0 l 3 0 l 363 956 l 515 956 l 868 0 l 854 0 q 791 -62 818 -24 q 765 -140 765 -99 q 782 -183 765 -168 q 829 -197 798 -197 m 606 371 l 493 696 q 458 788 475 743 q 437 852 442 833 q 415 785 431 831 q 380 694 399 740 l 267 371 l 606 371 z "},"Å":{"ha":871,"x_min":3,"x_max":868,"o":"m 646 258 l 228 258 l 138 0 l 3 0 l 346 911 q 292 970 312 934 q 272 1047 272 1006 q 294 1129 272 1091 q 354 1189 316 1167 q 436 1211 392 1211 q 518 1189 480 1211 q 578 1129 556 1167 q 600 1047 600 1091 q 582 972 600 1007 q 531 913 563 937 l 868 0 l 736 0 l 646 258 m 436 1139 q 371 1113 397 1139 q 345 1047 345 1086 q 371 982 345 1008 q 436 956 397 956 q 500 982 475 956 q 526 1047 526 1008 q 500 1113 526 1086 q 436 1139 475 1139 m 606 371 l 493 696 q 458 788 475 743 q 437 852 442 833 q 415 785 431 831 q 380 694 399 740 l 267 371 l 606 371 z "},"Ǻ":{"ha":871,"x_min":3,"x_max":868,"o":"m 646 258 l 228 258 l 138 0 l 3 0 l 348 916 q 303 967 319 937 q 286 1034 286 998 q 319 1124 286 1085 l 319 1125 l 432 1257 l 572 1257 l 572 1238 l 484 1171 q 557 1119 529 1156 q 586 1034 586 1081 q 571 970 586 1000 q 529 920 555 941 l 868 0 l 736 0 l 646 258 m 513 1034 q 491 1089 513 1067 q 436 1111 469 1111 q 381 1088 404 1111 q 358 1034 358 1066 q 381 978 358 1001 q 436 956 404 956 q 491 978 469 956 q 513 1034 513 1001 m 606 371 l 493 696 q 458 788 475 743 q 437 852 442 833 q 415 785 431 831 q 380 694 399 740 l 267 371 l 606 371 z "},"Ã":{"ha":871,"x_min":3,"x_max":868,"o":"m 646 258 l 228 258 l 138 0 l 3 0 l 363 956 l 515 956 l 868 0 l 736 0 l 646 258 m 606 371 l 493 696 q 458 788 475 743 q 437 852 442 833 q 415 785 431 831 q 380 694 399 740 l 267 371 l 606 371 m 193 1038 q 230 1168 201 1117 q 330 1219 259 1219 q 387 1207 359 1219 q 454 1173 414 1196 q 503 1147 484 1156 q 537 1139 521 1139 q 577 1159 564 1139 q 595 1219 591 1180 l 679 1219 q 661 1130 673 1168 q 621 1064 649 1091 q 542 1038 592 1038 q 488 1049 515 1038 q 422 1083 461 1061 q 371 1109 391 1101 q 334 1118 351 1118 q 293 1098 307 1118 q 275 1038 279 1078 l 193 1038 z "},"Æ":{"ha":1358,"x_min":17,"x_max":1299,"o":"m 1299 119 l 1299 0 l 657 0 l 657 269 l 280 269 l 151 0 l 17 0 l 482 956 l 1271 956 l 1271 836 l 786 836 l 786 550 l 1231 550 l 1231 432 l 786 432 l 786 119 l 1299 119 m 657 380 l 657 856 l 557 856 l 515 764 l 482 693 l 333 380 l 657 380 z "},"Ǽ":{"ha":1358,"x_min":17,"x_max":1299,"o":"m 1299 119 l 1299 0 l 657 0 l 657 269 l 280 269 l 151 0 l 17 0 l 482 956 l 1271 956 l 1271 836 l 786 836 l 786 550 l 1231 550 l 1231 432 l 786 432 l 786 119 l 1299 119 m 657 380 l 657 856 l 557 856 l 515 764 l 482 693 l 333 380 l 657 380 m 693 1051 l 840 1204 l 981 1204 l 981 1185 l 798 1038 l 693 1038 l 693 1051 z "},"B":{"ha":899,"x_min":114,"x_max":825,"o":"m 114 956 l 465 956 q 787 721 787 956 q 744 577 787 637 q 619 497 701 516 q 731 457 684 488 q 801 378 777 427 q 825 269 825 330 q 780 116 825 176 q 659 28 735 56 q 488 0 583 0 l 114 0 l 114 956 m 461 550 q 612 589 566 550 q 659 703 659 629 q 610 805 659 773 q 465 838 562 838 l 243 838 l 243 550 l 461 550 m 481 118 q 640 154 584 118 q 696 279 696 191 q 637 397 696 359 q 471 435 578 435 l 243 435 l 243 118 l 481 118 z "},"C":{"ha":953,"x_min":66,"x_max":900,"o":"m 515 -14 q 270 52 372 -14 q 118 230 169 117 q 66 482 66 342 q 119 735 66 625 q 274 908 172 846 q 515 970 375 970 q 739 914 646 970 q 886 766 831 858 l 782 700 q 715 778 750 746 q 632 830 681 810 q 517 850 583 850 q 345 802 416 850 q 236 671 273 754 q 199 482 199 588 q 238 292 199 378 q 350 157 277 207 q 522 107 424 107 q 676 151 611 107 q 796 273 742 194 l 900 208 q 746 48 842 110 q 515 -14 649 -14 z "},"Ć":{"ha":953,"x_min":66,"x_max":900,"o":"m 515 -14 q 270 52 372 -14 q 118 230 169 117 q 66 482 66 342 q 119 735 66 625 q 274 908 172 846 q 515 970 375 970 q 739 914 646 970 q 886 766 831 858 l 782 700 q 715 778 750 746 q 632 830 681 810 q 517 850 583 850 q 345 802 416 850 q 236 671 273 754 q 199 482 199 588 q 238 292 199 378 q 350 157 277 207 q 522 107 424 107 q 676 151 611 107 q 796 273 742 194 l 900 208 q 746 48 842 110 q 515 -14 649 -14 m 427 1051 l 574 1204 l 714 1204 l 714 1185 l 532 1038 l 427 1038 l 427 1051 z "},"Č":{"ha":953,"x_min":66,"x_max":900,"o":"m 515 -14 q 270 52 372 -14 q 118 230 169 117 q 66 482 66 342 q 119 735 66 625 q 274 908 172 846 q 515 970 375 970 q 739 914 646 970 q 886 766 831 858 l 782 700 q 715 778 750 746 q 632 830 681 810 q 517 850 583 850 q 345 802 416 850 q 236 671 273 754 q 199 482 199 588 q 238 292 199 378 q 350 157 277 207 q 522 107 424 107 q 676 151 611 107 q 796 273 742 194 l 900 208 q 746 48 842 110 q 515 -14 649 -14 m 298 1200 l 298 1214 l 397 1214 l 526 1120 l 528 1120 l 648 1214 l 747 1214 l 747 1200 l 595 1038 l 456 1038 l 298 1200 z "},"Ç":{"ha":953,"x_min":66,"x_max":900,"o":"m 900 208 q 767 62 849 121 q 574 -10 686 3 l 551 -69 q 638 -99 609 -73 q 668 -168 668 -125 q 482 -289 668 -289 q 421 -286 444 -289 l 421 -210 q 479 -214 455 -214 q 556 -203 533 -214 q 579 -171 579 -192 q 485 -132 579 -132 q 446 -134 458 -132 l 490 -13 q 258 60 354 -7 q 115 236 163 126 q 66 482 66 347 q 119 735 66 625 q 274 908 172 846 q 515 970 375 970 q 739 914 646 970 q 886 766 831 858 l 782 700 q 715 778 750 746 q 632 830 681 810 q 517 850 583 850 q 345 802 416 850 q 236 671 273 754 q 199 482 199 588 q 238 292 199 378 q 350 157 277 207 q 522 107 424 107 q 676 151 611 107 q 796 273 742 194 l 900 208 z "},"Ĉ":{"ha":953,"x_min":66,"x_max":900,"o":"m 515 -14 q 270 52 372 -14 q 118 230 169 117 q 66 482 66 342 q 119 735 66 625 q 274 908 172 846 q 515 970 375 970 q 739 914 646 970 q 886 766 831 858 l 782 700 q 715 778 750 746 q 632 830 681 810 q 517 850 583 850 q 345 802 416 850 q 236 671 273 754 q 199 482 199 588 q 238 292 199 378 q 350 157 277 207 q 522 107 424 107 q 676 151 611 107 q 796 273 742 194 l 900 208 q 746 48 842 110 q 515 -14 649 -14 m 298 1051 l 456 1214 l 595 1214 l 747 1051 l 747 1038 l 648 1038 l 528 1132 l 526 1132 l 397 1038 l 298 1038 l 298 1051 z "},"Ċ":{"ha":953,"x_min":66,"x_max":900,"o":"m 515 -14 q 270 52 372 -14 q 118 230 169 117 q 66 482 66 342 q 119 735 66 625 q 274 908 172 846 q 515 970 375 970 q 739 914 646 970 q 886 766 831 858 l 782 700 q 715 778 750 746 q 632 830 681 810 q 517 850 583 850 q 345 802 416 850 q 236 671 273 754 q 199 482 199 588 q 238 292 199 378 q 350 157 277 207 q 522 107 424 107 q 676 151 611 107 q 796 273 742 194 l 900 208 q 746 48 842 110 q 515 -14 649 -14 m 524 1039 q 473 1059 494 1039 q 452 1109 452 1080 q 473 1161 452 1140 q 524 1182 494 1182 q 573 1161 553 1182 q 594 1109 594 1140 q 573 1059 594 1080 q 524 1039 553 1039 z "},"D":{"ha":961,"x_min":114,"x_max":895,"o":"m 114 956 l 416 956 q 667 905 559 956 q 834 750 774 855 q 895 488 895 646 q 837 223 895 333 q 681 57 780 113 q 457 0 582 0 l 114 0 l 114 956 m 443 118 q 610 160 537 118 q 724 286 682 203 q 765 488 765 369 q 671 752 765 666 q 414 838 576 838 l 243 838 l 243 118 l 443 118 z "},"Ð":{"ha":961,"x_min":9,"x_max":895,"o":"m 416 956 q 667 905 559 956 q 834 750 774 855 q 895 488 895 646 q 837 223 895 333 q 681 57 780 113 q 457 0 582 0 l 114 0 l 114 439 l 9 439 l 9 543 l 114 543 l 114 956 l 416 956 m 443 118 q 610 160 537 118 q 724 286 682 203 q 765 488 765 369 q 671 752 765 666 q 414 838 576 838 l 243 838 l 243 543 l 519 543 l 519 439 l 243 439 l 243 118 l 443 118 z "},"Ď":{"ha":961,"x_min":114,"x_max":895,"o":"m 114 956 l 416 956 q 667 905 559 956 q 834 750 774 855 q 895 488 895 646 q 837 223 895 333 q 681 57 780 113 q 457 0 582 0 l 114 0 l 114 956 m 443 118 q 610 160 537 118 q 724 286 682 203 q 765 488 765 369 q 671 752 765 666 q 414 838 576 838 l 243 838 l 243 118 l 443 118 m 229 1200 l 229 1214 l 328 1214 l 457 1120 l 458 1120 l 579 1214 l 678 1214 l 678 1200 l 526 1038 l 387 1038 l 229 1200 z "},"Đ":{"ha":961,"x_min":9,"x_max":895,"o":"m 416 956 q 667 905 559 956 q 834 750 774 855 q 895 488 895 646 q 837 223 895 333 q 681 57 780 113 q 457 0 582 0 l 114 0 l 114 439 l 9 439 l 9 543 l 114 543 l 114 956 l 416 956 m 443 118 q 610 160 537 118 q 724 286 682 203 q 765 488 765 369 q 671 752 765 666 q 414 838 576 838 l 243 838 l 243 543 l 519 543 l 519 439 l 243 439 l 243 118 l 443 118 z "},"E":{"ha":815,"x_min":114,"x_max":755,"o":"m 114 956 l 728 956 l 728 836 l 243 836 l 243 550 l 688 550 l 688 432 l 243 432 l 243 119 l 755 119 l 755 0 l 114 0 l 114 956 z "},"É":{"ha":815,"x_min":114,"x_max":755,"o":"m 114 956 l 728 956 l 728 836 l 243 836 l 243 550 l 688 550 l 688 432 l 243 432 l 243 119 l 755 119 l 755 0 l 114 0 l 114 956 m 340 1051 l 488 1204 l 628 1204 l 628 1185 l 446 1038 l 340 1038 l 340 1051 z "},"Ĕ":{"ha":815,"x_min":114,"x_max":755,"o":"m 114 956 l 728 956 l 728 836 l 243 836 l 243 550 l 688 550 l 688 432 l 243 432 l 243 119 l 755 119 l 755 0 l 114 0 l 114 956 m 436 1038 q 324 1061 372 1038 q 248 1122 276 1084 q 211 1207 219 1161 l 290 1207 q 340 1149 302 1170 q 437 1129 377 1129 q 535 1150 498 1129 q 583 1207 573 1171 l 663 1207 q 626 1122 654 1160 q 550 1061 598 1084 q 436 1038 503 1038 z "},"Ě":{"ha":815,"x_min":114,"x_max":755,"o":"m 114 956 l 728 956 l 728 836 l 243 836 l 243 550 l 688 550 l 688 432 l 243 432 l 243 119 l 755 119 l 755 0 l 114 0 l 114 956 m 212 1200 l 212 1214 l 311 1214 l 440 1120 l 441 1120 l 562 1214 l 661 1214 l 661 1200 l 509 1038 l 370 1038 l 212 1200 z "},"Ê":{"ha":815,"x_min":114,"x_max":755,"o":"m 114 956 l 728 956 l 728 836 l 243 836 l 243 550 l 688 550 l 688 432 l 243 432 l 243 119 l 755 119 l 755 0 l 114 0 l 114 956 m 212 1051 l 370 1214 l 509 1214 l 661 1051 l 661 1038 l 562 1038 l 441 1132 l 440 1132 l 311 1038 l 212 1038 l 212 1051 z "},"Ë":{"ha":815,"x_min":114,"x_max":755,"o":"m 114 956 l 728 956 l 728 836 l 243 836 l 243 550 l 688 550 l 688 432 l 243 432 l 243 119 l 755 119 l 755 0 l 114 0 l 114 956 m 308 1038 q 258 1058 279 1038 q 237 1108 237 1078 q 258 1160 237 1139 q 308 1181 279 1181 q 358 1160 337 1181 q 379 1108 379 1139 q 358 1058 379 1078 q 308 1038 337 1038 m 568 1038 q 518 1058 538 1038 q 497 1108 497 1078 q 518 1160 497 1139 q 568 1181 538 1181 q 618 1160 597 1181 q 639 1108 639 1139 q 618 1058 639 1078 q 568 1038 597 1038 z "},"Ė":{"ha":815,"x_min":114,"x_max":755,"o":"m 114 956 l 728 956 l 728 836 l 243 836 l 243 550 l 688 550 l 688 432 l 243 432 l 243 119 l 755 119 l 755 0 l 114 0 l 114 956 m 437 1039 q 387 1059 408 1039 q 366 1109 366 1080 q 387 1161 366 1140 q 437 1182 408 1182 q 487 1161 467 1182 q 508 1109 508 1140 q 487 1059 508 1080 q 437 1039 467 1039 z "},"È":{"ha":815,"x_min":114,"x_max":755,"o":"m 114 956 l 728 956 l 728 836 l 243 836 l 243 550 l 688 550 l 688 432 l 243 432 l 243 119 l 755 119 l 755 0 l 114 0 l 114 956 m 256 1185 l 256 1204 l 397 1204 l 544 1051 l 544 1038 l 439 1038 l 256 1185 z "},"Ē":{"ha":815,"x_min":114,"x_max":755,"o":"m 114 956 l 728 956 l 728 836 l 243 836 l 243 550 l 688 550 l 688 432 l 243 432 l 243 119 l 755 119 l 755 0 l 114 0 l 114 956 m 251 1147 l 623 1147 l 623 1061 l 251 1061 l 251 1147 z "},"Ę":{"ha":815,"x_min":114,"x_max":766,"o":"m 114 956 l 728 956 l 728 836 l 243 836 l 243 550 l 688 550 l 688 432 l 243 432 l 243 119 l 755 119 l 755 0 l 114 0 l 114 956 m 672 -289 q 566 -255 603 -289 q 529 -163 529 -221 q 546 -91 529 -124 q 587 -35 563 -58 q 631 0 610 -12 l 725 0 q 655 -63 686 -22 q 625 -147 625 -103 q 641 -190 625 -175 q 688 -204 658 -204 q 766 -187 724 -204 l 766 -271 q 672 -289 726 -289 z "},"F":{"ha":751,"x_min":114,"x_max":696,"o":"m 114 956 l 696 956 l 696 836 l 243 836 l 243 526 l 679 526 l 679 406 l 243 406 l 243 0 l 114 0 l 114 956 z "},"G":{"ha":1011,"x_min":65,"x_max":921,"o":"m 921 509 l 921 0 l 807 0 l 807 137 q 681 27 758 68 q 504 -14 604 -14 q 270 50 370 -14 q 118 226 171 113 q 65 482 65 338 q 120 740 65 630 q 277 910 175 850 q 515 970 378 970 q 725 927 637 970 q 884 799 813 884 l 782 718 q 666 817 731 783 q 511 850 602 850 q 345 804 416 850 q 236 676 274 759 q 197 482 197 593 q 236 287 197 372 q 344 154 274 201 q 505 106 414 106 q 661 143 598 106 q 755 244 724 181 q 787 385 787 307 l 787 389 l 541 389 l 541 509 l 921 509 z "},"Ğ":{"ha":1011,"x_min":65,"x_max":921,"o":"m 921 509 l 921 0 l 807 0 l 807 137 q 681 27 758 68 q 504 -14 604 -14 q 270 50 370 -14 q 118 226 171 113 q 65 482 65 338 q 120 740 65 630 q 277 910 175 850 q 515 970 378 970 q 725 927 637 970 q 884 799 813 884 l 782 718 q 666 817 731 783 q 511 850 602 850 q 345 804 416 850 q 236 676 274 759 q 197 482 197 593 q 236 287 197 372 q 344 154 274 201 q 505 106 414 106 q 661 143 598 106 q 755 244 724 181 q 787 385 787 307 l 787 389 l 541 389 l 541 509 l 921 509 m 511 1038 q 399 1061 448 1038 q 323 1122 351 1084 q 286 1207 294 1161 l 366 1207 q 415 1149 378 1170 q 513 1129 452 1129 q 611 1150 573 1129 q 659 1207 648 1171 l 738 1207 q 701 1122 729 1160 q 626 1061 673 1084 q 511 1038 578 1038 z "},"Ĝ":{"ha":1011,"x_min":65,"x_max":921,"o":"m 921 509 l 921 0 l 807 0 l 807 137 q 681 27 758 68 q 504 -14 604 -14 q 270 50 370 -14 q 118 226 171 113 q 65 482 65 338 q 120 740 65 630 q 277 910 175 850 q 515 970 378 970 q 725 927 637 970 q 884 799 813 884 l 782 718 q 666 817 731 783 q 511 850 602 850 q 345 804 416 850 q 236 676 274 759 q 197 482 197 593 q 236 287 197 372 q 344 154 274 201 q 505 106 414 106 q 661 143 598 106 q 755 244 724 181 q 787 385 787 307 l 787 389 l 541 389 l 541 509 l 921 509 m 288 1051 l 446 1214 l 585 1214 l 736 1051 l 736 1038 l 637 1038 l 517 1132 l 515 1132 l 386 1038 l 288 1038 l 288 1051 z "},"Ģ":{"ha":1011,"x_min":65,"x_max":921,"o":"m 921 509 l 921 0 l 807 0 l 807 137 q 681 27 758 68 q 504 -14 604 -14 q 270 50 370 -14 q 118 226 171 113 q 65 482 65 338 q 120 740 65 630 q 277 910 175 850 q 515 970 378 970 q 725 927 637 970 q 884 799 813 884 l 782 718 q 666 817 731 783 q 511 850 602 850 q 345 804 416 850 q 236 676 274 759 q 197 482 197 593 q 236 287 197 372 q 344 154 274 201 q 505 106 414 106 q 661 143 598 106 q 755 244 724 181 q 787 385 787 307 l 787 389 l 541 389 l 541 509 l 921 509 m 466 -256 q 490 -217 480 -235 q 502 -179 499 -198 q 461 -158 477 -175 q 446 -117 446 -141 q 464 -74 446 -91 q 509 -57 481 -57 q 561 -79 542 -57 q 580 -140 580 -100 q 562 -219 580 -183 q 515 -292 545 -254 l 466 -256 z "},"Ġ":{"ha":1011,"x_min":65,"x_max":921,"o":"m 921 509 l 921 0 l 807 0 l 807 137 q 681 27 758 68 q 504 -14 604 -14 q 270 50 370 -14 q 118 226 171 113 q 65 482 65 338 q 120 740 65 630 q 277 910 175 850 q 515 970 378 970 q 725 927 637 970 q 884 799 813 884 l 782 718 q 666 817 731 783 q 511 850 602 850 q 345 804 416 850 q 236 676 274 759 q 197 482 197 593 q 236 287 197 372 q 344 154 274 201 q 505 106 414 106 q 661 143 598 106 q 755 244 724 181 q 787 385 787 307 l 787 389 l 541 389 l 541 509 l 921 509 m 513 1039 q 462 1059 483 1039 q 441 1109 441 1080 q 462 1161 441 1140 q 513 1182 483 1182 q 563 1161 542 1182 q 583 1109 583 1140 q 563 1059 583 1080 q 513 1039 542 1039 z "},"H":{"ha":962,"x_min":114,"x_max":848,"o":"m 114 956 l 243 956 l 243 558 l 720 558 l 720 956 l 848 956 l 848 0 l 720 0 l 720 436 l 243 436 l 243 0 l 114 0 l 114 956 z "},"Ħ":{"ha":960,"x_min":9,"x_max":950,"o":"m 950 694 l 848 694 l 848 0 l 720 0 l 720 436 l 243 436 l 243 0 l 114 0 l 114 694 l 9 694 l 9 800 l 114 800 l 114 956 l 243 956 l 243 800 l 720 800 l 720 956 l 848 956 l 848 800 l 950 800 l 950 694 m 720 558 l 720 694 l 243 694 l 243 558 l 720 558 z "},"Ĥ":{"ha":962,"x_min":114,"x_max":848,"o":"m 114 956 l 243 956 l 243 558 l 720 558 l 720 956 l 848 956 l 848 0 l 720 0 l 720 436 l 243 436 l 243 0 l 114 0 l 114 956 m 257 1051 l 415 1214 l 554 1214 l 706 1051 l 706 1038 l 607 1038 l 486 1132 l 485 1132 l 355 1038 l 257 1038 l 257 1051 z "},"I":{"ha":386,"x_min":127,"x_max":258,"o":"m 127 956 l 258 956 l 258 0 l 127 0 l 127 956 z "},"Ĳ":{"ha":1080,"x_min":127,"x_max":977,"o":"m 127 956 l 258 956 l 258 0 l 127 0 l 127 956 m 692 -14 q 586 0 632 -14 q 499 50 541 14 q 416 150 457 85 l 522 224 q 602 133 563 159 q 693 106 641 106 q 806 152 764 106 q 848 282 848 197 l 848 956 l 977 956 l 977 285 q 943 127 977 195 q 844 23 909 60 q 692 -14 780 -14 z "},"Í":{"ha":386,"x_min":96,"x_max":384,"o":"m 127 956 l 258 956 l 258 0 l 127 0 l 127 956 m 96 1051 l 243 1204 l 384 1204 l 384 1185 l 201 1038 l 96 1038 l 96 1051 z "},"Ĭ":{"ha":386,"x_min":-33,"x_max":418,"o":"m 127 956 l 258 956 l 258 0 l 127 0 l 127 956 m 192 1038 q 80 1061 128 1038 q 3 1122 32 1084 q -33 1207 -25 1161 l 46 1207 q 96 1149 58 1170 q 193 1129 133 1129 q 291 1150 254 1129 q 339 1207 329 1171 l 418 1207 q 382 1122 410 1160 q 306 1061 354 1084 q 192 1038 258 1038 z "},"Î":{"ha":386,"x_min":-32,"x_max":417,"o":"m 127 956 l 258 956 l 258 0 l 127 0 l 127 956 m -32 1051 l 126 1214 l 265 1214 l 417 1051 l 417 1038 l 318 1038 l 197 1132 l 196 1132 l 66 1038 l -32 1038 l -32 1051 z "},"Ï":{"ha":386,"x_min":-7,"x_max":395,"o":"m 127 956 l 258 956 l 258 0 l 127 0 l 127 956 m 64 1038 q 14 1058 35 1038 q -7 1108 -7 1078 q 14 1160 -7 1139 q 64 1181 35 1181 q 114 1160 93 1181 q 135 1108 135 1139 q 114 1058 135 1078 q 64 1038 93 1038 m 323 1038 q 274 1058 294 1038 q 253 1108 253 1078 q 274 1160 253 1139 q 323 1181 294 1181 q 374 1160 353 1181 q 395 1108 395 1139 q 374 1058 395 1078 q 323 1038 353 1038 z "},"İ":{"ha":386,"x_min":122,"x_max":264,"o":"m 127 956 l 258 956 l 258 0 l 127 0 l 127 956 m 193 1039 q 143 1059 163 1039 q 122 1109 122 1080 q 143 1161 122 1140 q 193 1182 163 1182 q 243 1161 222 1182 q 264 1109 264 1140 q 243 1059 264 1080 q 193 1039 222 1039 z "},"Ì":{"ha":386,"x_min":12,"x_max":300,"o":"m 127 956 l 258 956 l 258 0 l 127 0 l 127 956 m 12 1185 l 12 1204 l 153 1204 l 300 1051 l 300 1038 l 195 1038 l 12 1185 z "},"Ī":{"ha":386,"x_min":7,"x_max":379,"o":"m 127 956 l 258 956 l 258 0 l 127 0 l 127 956 m 7 1147 l 379 1147 l 379 1061 l 7 1061 l 7 1147 z "},"Į":{"ha":386,"x_min":62,"x_max":300,"o":"m 205 -289 q 99 -255 136 -289 q 62 -163 62 -221 q 80 -91 62 -124 q 121 -35 97 -58 q 165 0 144 -12 l 127 0 l 127 956 l 258 956 l 258 0 l 257 0 q 188 -63 218 -22 q 158 -147 158 -103 q 175 -190 158 -175 q 222 -204 192 -204 q 300 -187 259 -204 l 300 -271 q 205 -289 261 -289 z "},"Ĩ":{"ha":386,"x_min":-50,"x_max":436,"o":"m 127 956 l 258 956 l 258 0 l 127 0 l 127 956 m -50 1038 q -13 1168 -41 1117 q 87 1219 16 1219 q 144 1207 116 1219 q 211 1173 172 1196 q 260 1147 241 1156 q 294 1139 278 1139 q 335 1159 321 1139 q 353 1219 349 1180 l 436 1219 q 418 1130 430 1168 q 378 1064 406 1091 q 299 1038 349 1038 q 245 1049 272 1038 q 179 1083 218 1061 q 128 1109 148 1101 q 92 1118 109 1118 q 50 1098 64 1118 q 32 1038 36 1078 l -50 1038 z "},"J":{"ha":694,"x_min":31,"x_max":591,"o":"m 306 -14 q 200 0 246 -14 q 113 50 155 14 q 31 150 71 85 l 136 224 q 216 133 177 159 q 307 106 255 106 q 420 152 378 106 q 463 282 463 197 l 463 956 l 591 956 l 591 285 q 557 127 591 195 q 458 23 523 60 q 306 -14 394 -14 z "},"Ĵ":{"ha":694,"x_min":31,"x_max":728,"o":"m 306 -14 q 200 0 246 -14 q 113 50 155 14 q 31 150 71 85 l 136 224 q 216 133 177 159 q 307 106 255 106 q 420 152 378 106 q 463 282 463 197 l 463 956 l 591 956 l 591 285 q 557 127 591 195 q 458 23 523 60 q 306 -14 394 -14 m 279 1051 l 437 1214 l 576 1214 l 728 1051 l 728 1038 l 629 1038 l 508 1132 l 507 1132 l 377 1038 l 279 1038 l 279 1051 z "},"K":{"ha":880,"x_min":114,"x_max":869,"o":"m 708 0 l 356 459 l 243 351 l 243 0 l 114 0 l 114 956 l 243 956 l 243 493 l 659 956 l 815 956 l 436 545 l 869 0 l 708 0 z "},"Ķ":{"ha":880,"x_min":114,"x_max":869,"o":"m 708 0 l 356 459 l 243 351 l 243 0 l 114 0 l 114 956 l 243 956 l 243 493 l 659 956 l 815 956 l 436 545 l 869 0 l 708 0 m 422 -256 q 446 -217 437 -235 q 458 -179 456 -198 q 418 -158 433 -175 q 403 -117 403 -141 q 420 -74 403 -91 q 465 -57 438 -57 q 517 -79 498 -57 q 536 -140 536 -100 q 519 -219 536 -183 q 472 -292 501 -254 l 422 -256 z "},"L":{"ha":730,"x_min":114,"x_max":685,"o":"m 114 956 l 243 956 l 243 119 l 685 119 l 685 0 l 114 0 l 114 956 z "},"Ĺ":{"ha":730,"x_min":114,"x_max":685,"o":"m 114 956 l 243 956 l 243 119 l 685 119 l 685 0 l 114 0 l 114 956 m 289 1051 l 436 1204 l 576 1204 l 576 1185 l 394 1038 l 289 1038 l 289 1051 z "},"Ľ":{"ha":730,"x_min":114,"x_max":685,"o":"m 114 956 l 243 956 l 243 119 l 685 119 l 685 0 l 114 0 l 114 956 m 460 760 q 500 833 494 802 q 461 854 474 838 q 448 896 448 871 q 465 938 448 921 q 508 956 482 956 q 561 935 542 956 q 581 876 581 913 q 561 794 581 831 q 508 721 541 758 l 460 760 z "},"Ļ":{"ha":730,"x_min":114,"x_max":685,"o":"m 114 956 l 243 956 l 243 119 l 685 119 l 685 0 l 114 0 l 114 956 m 364 -256 q 388 -217 378 -235 q 400 -179 397 -198 q 360 -158 375 -175 q 345 -117 345 -141 q 362 -74 345 -91 q 407 -57 380 -57 q 459 -79 440 -57 q 478 -140 478 -100 q 460 -219 478 -183 q 414 -292 443 -254 l 364 -256 z "},"Ŀ":{"ha":730,"x_min":114,"x_max":685,"o":"m 114 956 l 243 956 l 243 119 l 685 119 l 685 0 l 114 0 l 114 956 m 484 407 q 430 428 452 407 q 408 481 408 450 q 430 534 408 512 q 484 555 452 555 q 536 534 515 555 q 558 481 558 512 q 536 428 558 450 q 484 407 515 407 z "},"Ł":{"ha":730,"x_min":14,"x_max":685,"o":"m 685 119 l 685 0 l 114 0 l 114 366 l 14 307 l 14 414 l 114 472 l 114 956 l 243 956 l 243 547 l 418 647 l 418 541 l 243 439 l 243 119 l 685 119 z "},"M":{"ha":1157,"x_min":114,"x_max":1043,"o":"m 114 956 l 285 956 l 539 293 q 564 220 550 263 q 581 161 578 177 q 601 222 585 178 q 628 293 616 267 l 876 956 l 1043 956 l 1043 0 l 926 0 l 926 637 q 930 819 926 751 q 909 751 928 810 q 872 652 889 692 l 627 0 l 534 0 l 285 652 q 250 745 271 682 q 227 819 229 808 l 227 785 q 229 637 229 669 l 229 0 l 114 0 l 114 956 z "},"N":{"ha":977,"x_min":114,"x_max":863,"o":"m 114 956 l 267 956 l 750 143 q 748 220 749 161 q 746 329 746 279 l 746 956 l 863 956 l 863 0 l 703 0 l 227 807 q 228 739 227 789 q 229 635 229 688 l 229 0 l 114 0 l 114 956 z "},"Ń":{"ha":977,"x_min":114,"x_max":863,"o":"m 114 956 l 267 956 l 750 143 q 748 220 749 161 q 746 329 746 279 l 746 956 l 863 956 l 863 0 l 703 0 l 227 807 q 228 739 227 789 q 229 635 229 688 l 229 0 l 114 0 l 114 956 m 403 1051 l 550 1204 l 690 1204 l 690 1185 l 508 1038 l 403 1038 l 403 1051 z "},"Ň":{"ha":977,"x_min":114,"x_max":863,"o":"m 114 956 l 267 956 l 750 143 q 748 220 749 161 q 746 329 746 279 l 746 956 l 863 956 l 863 0 l 703 0 l 227 807 q 228 739 227 789 q 229 635 229 688 l 229 0 l 114 0 l 114 956 m 275 1200 l 275 1214 l 373 1214 l 503 1120 l 504 1120 l 625 1214 l 724 1214 l 724 1200 l 572 1038 l 433 1038 l 275 1200 z "},"Ņ":{"ha":977,"x_min":114,"x_max":863,"o":"m 114 956 l 267 956 l 750 143 q 748 220 749 161 q 746 329 746 279 l 746 956 l 863 956 l 863 0 l 703 0 l 227 807 q 228 739 227 789 q 229 635 229 688 l 229 0 l 114 0 l 114 956 m 441 -256 q 465 -217 455 -235 q 477 -179 474 -198 q 436 -158 452 -175 q 421 -117 421 -141 q 439 -74 421 -91 q 484 -57 456 -57 q 536 -79 517 -57 q 555 -140 555 -100 q 537 -219 555 -183 q 490 -292 519 -254 l 441 -256 z "},"Ŋ":{"ha":977,"x_min":114,"x_max":863,"o":"m 863 956 l 863 -3 q 830 -154 863 -90 q 735 -254 797 -219 q 590 -289 674 -289 q 476 -272 526 -289 q 383 -212 427 -255 l 461 -110 q 525 -156 495 -142 q 591 -170 555 -170 q 696 -127 657 -170 q 734 -5 734 -84 l 734 0 l 703 0 l 227 807 q 228 739 227 789 q 229 635 229 688 l 229 0 l 114 0 l 114 956 l 267 956 l 750 143 q 748 220 749 161 q 746 329 746 279 l 746 956 l 863 956 z "},"Ñ":{"ha":977,"x_min":114,"x_max":863,"o":"m 114 956 l 267 956 l 750 143 q 748 220 749 161 q 746 329 746 279 l 746 956 l 863 956 l 863 0 l 703 0 l 227 807 q 228 739 227 789 q 229 635 229 688 l 229 0 l 114 0 l 114 956 m 256 1038 q 294 1168 265 1117 q 394 1219 323 1219 q 450 1207 422 1219 q 517 1173 478 1196 q 566 1147 548 1156 q 601 1139 585 1139 q 641 1159 627 1139 q 659 1219 655 1180 l 743 1219 q 725 1130 736 1168 q 684 1064 713 1091 q 606 1038 656 1038 q 552 1049 578 1038 q 486 1083 525 1061 q 435 1109 454 1101 q 398 1118 415 1118 q 357 1098 371 1118 q 338 1038 342 1078 l 256 1038 z "},"O":{"ha":1023,"x_min":65,"x_max":958,"o":"m 511 -14 q 272 50 373 -14 q 118 225 172 113 q 65 482 65 338 q 120 740 65 630 q 275 910 174 850 q 513 970 376 970 q 749 910 648 970 q 904 739 850 850 q 958 482 958 629 q 903 222 958 334 q 746 48 847 109 q 511 -14 644 -14 m 511 106 q 683 154 612 106 q 790 287 754 201 q 827 482 827 372 q 788 675 827 592 q 679 804 749 759 q 513 850 608 850 q 344 804 415 850 q 235 676 273 759 q 197 482 197 593 q 236 287 197 372 q 346 154 275 201 q 511 106 417 106 z "},"Ó":{"ha":1023,"x_min":65,"x_max":958,"o":"m 511 -14 q 272 50 373 -14 q 118 225 172 113 q 65 482 65 338 q 120 740 65 630 q 275 910 174 850 q 513 970 376 970 q 749 910 648 970 q 904 739 850 850 q 958 482 958 629 q 903 222 958 334 q 746 48 847 109 q 511 -14 644 -14 m 511 106 q 683 154 612 106 q 790 287 754 201 q 827 482 827 372 q 788 675 827 592 q 679 804 749 759 q 513 850 608 850 q 344 804 415 850 q 235 676 273 759 q 197 482 197 593 q 236 287 197 372 q 346 154 275 201 q 511 106 417 106 m 416 1051 l 563 1204 l 703 1204 l 703 1185 l 521 1038 l 416 1038 l 416 1051 z "},"Ŏ":{"ha":1023,"x_min":65,"x_max":958,"o":"m 511 -14 q 272 50 373 -14 q 118 225 172 113 q 65 482 65 338 q 120 740 65 630 q 275 910 174 850 q 513 970 376 970 q 749 910 648 970 q 904 739 850 850 q 958 482 958 629 q 903 222 958 334 q 746 48 847 109 q 511 -14 644 -14 m 511 106 q 683 154 612 106 q 790 287 754 201 q 827 482 827 372 q 788 675 827 592 q 679 804 749 759 q 513 850 608 850 q 344 804 415 850 q 235 676 273 759 q 197 482 197 593 q 236 287 197 372 q 346 154 275 201 q 511 106 417 106 m 511 1038 q 399 1061 448 1038 q 323 1122 351 1084 q 286 1207 294 1161 l 366 1207 q 415 1149 378 1170 q 513 1129 452 1129 q 611 1150 573 1129 q 659 1207 648 1171 l 738 1207 q 701 1122 729 1160 q 626 1061 673 1084 q 511 1038 578 1038 z "},"Ô":{"ha":1023,"x_min":65,"x_max":958,"o":"m 511 -14 q 272 50 373 -14 q 118 225 172 113 q 65 482 65 338 q 120 740 65 630 q 275 910 174 850 q 513 970 376 970 q 749 910 648 970 q 904 739 850 850 q 958 482 958 629 q 903 222 958 334 q 746 48 847 109 q 511 -14 644 -14 m 511 106 q 683 154 612 106 q 790 287 754 201 q 827 482 827 372 q 788 675 827 592 q 679 804 749 759 q 513 850 608 850 q 344 804 415 850 q 235 676 273 759 q 197 482 197 593 q 236 287 197 372 q 346 154 275 201 q 511 106 417 106 m 288 1051 l 446 1214 l 585 1214 l 736 1051 l 736 1038 l 637 1038 l 517 1132 l 515 1132 l 386 1038 l 288 1038 l 288 1051 z "},"Ö":{"ha":1023,"x_min":65,"x_max":958,"o":"m 511 -14 q 272 50 373 -14 q 118 225 172 113 q 65 482 65 338 q 120 740 65 630 q 275 910 174 850 q 513 970 376 970 q 749 910 648 970 q 904 739 850 850 q 958 482 958 629 q 903 222 958 334 q 746 48 847 109 q 511 -14 644 -14 m 511 106 q 683 154 612 106 q 790 287 754 201 q 827 482 827 372 q 788 675 827 592 q 679 804 749 759 q 513 850 608 850 q 344 804 415 850 q 235 676 273 759 q 197 482 197 593 q 236 287 197 372 q 346 154 275 201 q 511 106 417 106 m 383 1038 q 333 1058 354 1038 q 313 1108 313 1078 q 333 1160 313 1139 q 383 1181 354 1181 q 433 1160 412 1181 q 454 1108 454 1139 q 433 1058 454 1078 q 383 1038 412 1038 m 643 1038 q 593 1058 614 1038 q 572 1108 572 1078 q 593 1160 572 1139 q 643 1181 614 1181 q 693 1160 672 1181 q 714 1108 714 1139 q 693 1058 714 1078 q 643 1038 672 1038 z "},"Ò":{"ha":1023,"x_min":65,"x_max":958,"o":"m 511 -14 q 272 50 373 -14 q 118 225 172 113 q 65 482 65 338 q 120 740 65 630 q 275 910 174 850 q 513 970 376 970 q 749 910 648 970 q 904 739 850 850 q 958 482 958 629 q 903 222 958 334 q 746 48 847 109 q 511 -14 644 -14 m 511 106 q 683 154 612 106 q 790 287 754 201 q 827 482 827 372 q 788 675 827 592 q 679 804 749 759 q 513 850 608 850 q 344 804 415 850 q 235 676 273 759 q 197 482 197 593 q 236 287 197 372 q 346 154 275 201 q 511 106 417 106 m 332 1185 l 332 1204 l 472 1204 l 619 1051 l 619 1038 l 514 1038 l 332 1185 z "},"Ő":{"ha":1023,"x_min":65,"x_max":958,"o":"m 511 -14 q 272 50 373 -14 q 118 225 172 113 q 65 482 65 338 q 120 740 65 630 q 275 910 174 850 q 513 970 376 970 q 749 910 648 970 q 904 739 850 850 q 958 482 958 629 q 903 222 958 334 q 746 48 847 109 q 511 -14 644 -14 m 511 106 q 683 154 612 106 q 790 287 754 201 q 827 482 827 372 q 788 675 827 592 q 679 804 749 759 q 513 850 608 850 q 344 804 415 850 q 235 676 273 759 q 197 482 197 593 q 236 287 197 372 q 346 154 275 201 q 511 106 417 106 m 314 1051 l 447 1206 l 587 1206 l 587 1186 l 378 1038 l 314 1038 l 314 1051 m 549 1051 l 682 1206 l 822 1206 l 822 1186 l 612 1038 l 549 1038 l 549 1051 z "},"Ō":{"ha":1023,"x_min":65,"x_max":958,"o":"m 511 -14 q 272 50 373 -14 q 118 225 172 113 q 65 482 65 338 q 120 740 65 630 q 275 910 174 850 q 513 970 376 970 q 749 910 648 970 q 904 739 850 850 q 958 482 958 629 q 903 222 958 334 q 746 48 847 109 q 511 -14 644 -14 m 511 106 q 683 154 612 106 q 790 287 754 201 q 827 482 827 372 q 788 675 827 592 q 679 804 749 759 q 513 850 608 850 q 344 804 415 850 q 235 676 273 759 q 197 482 197 593 q 236 287 197 372 q 346 154 275 201 q 511 106 417 106 m 326 1147 l 699 1147 l 699 1061 l 326 1061 l 326 1147 z "},"Ø":{"ha":1023,"x_min":54,"x_max":970,"o":"m 844 830 q 929 677 900 766 q 958 482 958 589 q 903 222 958 334 q 746 48 847 109 q 511 -14 644 -14 q 256 60 362 -14 l 182 -36 l 54 -36 l 180 130 q 95 285 124 195 q 65 482 65 375 q 120 740 65 630 q 275 910 174 850 q 513 970 376 970 q 766 899 659 970 l 839 994 l 970 994 l 844 830 m 197 482 q 214 348 197 410 q 262 238 231 286 l 689 798 q 513 850 614 850 q 344 804 415 850 q 235 676 273 759 q 197 482 197 593 m 827 482 q 810 615 827 554 q 762 722 793 675 l 334 162 q 511 106 409 106 q 683 154 612 106 q 790 287 754 201 q 827 482 827 372 z "},"Ǿ":{"ha":1023,"x_min":54,"x_max":970,"o":"m 844 830 q 929 677 900 766 q 958 482 958 589 q 903 222 958 334 q 746 48 847 109 q 511 -14 644 -14 q 256 60 362 -14 l 182 -36 l 54 -36 l 180 130 q 95 285 124 195 q 65 482 65 375 q 120 740 65 630 q 275 910 174 850 q 513 970 376 970 q 766 899 659 970 l 839 994 l 970 994 l 844 830 m 197 482 q 214 348 197 410 q 262 238 231 286 l 689 798 q 513 850 614 850 q 344 804 415 850 q 235 676 273 759 q 197 482 197 593 m 827 482 q 810 615 827 554 q 762 722 793 675 l 334 162 q 511 106 409 106 q 683 154 612 106 q 790 287 754 201 q 827 482 827 372 m 416 1051 l 563 1204 l 703 1204 l 703 1185 l 521 1038 l 416 1038 l 416 1051 z "},"Õ":{"ha":1023,"x_min":65,"x_max":958,"o":"m 511 -14 q 272 50 373 -14 q 118 225 172 113 q 65 482 65 338 q 120 740 65 630 q 275 910 174 850 q 513 970 376 970 q 749 910 648 970 q 904 739 850 850 q 958 482 958 629 q 903 222 958 334 q 746 48 847 109 q 511 -14 644 -14 m 511 106 q 683 154 612 106 q 790 287 754 201 q 827 482 827 372 q 788 675 827 592 q 679 804 749 759 q 513 850 608 850 q 344 804 415 850 q 235 676 273 759 q 197 482 197 593 q 236 287 197 372 q 346 154 275 201 q 511 106 417 106 m 269 1038 q 307 1168 278 1117 q 407 1219 336 1219 q 463 1207 435 1219 q 530 1173 491 1196 q 579 1147 561 1156 q 614 1139 597 1139 q 654 1159 640 1139 q 672 1219 668 1180 l 755 1219 q 738 1130 749 1168 q 697 1064 726 1091 q 618 1038 669 1038 q 565 1049 591 1038 q 498 1083 538 1061 q 448 1109 467 1101 q 411 1118 428 1118 q 370 1098 384 1118 q 351 1038 355 1078 l 269 1038 z "},"Œ":{"ha":1328,"x_min":65,"x_max":1268,"o":"m 534 -7 q 279 55 385 -7 q 119 227 174 117 q 65 482 65 337 q 121 739 65 631 q 283 905 177 847 q 536 962 389 962 q 681 956 593 962 l 1240 956 l 1240 836 l 755 836 l 755 550 l 1200 550 l 1200 432 l 755 432 l 755 119 l 1268 119 l 1268 0 l 677 0 q 610 -5 651 -3 q 534 -7 570 -7 m 534 113 q 627 115 603 113 l 627 840 q 536 843 607 843 q 283 749 370 843 q 197 482 197 656 q 236 287 197 370 q 350 158 275 203 q 534 113 426 113 z "},"P":{"ha":885,"x_min":114,"x_max":811,"o":"m 114 956 l 475 956 q 661 920 585 956 q 773 819 736 884 q 811 665 811 753 q 774 511 811 579 q 663 405 736 444 q 482 366 589 366 l 243 366 l 243 0 l 114 0 l 114 956 m 464 482 q 628 529 574 482 q 682 664 682 575 q 626 793 682 749 q 458 838 569 838 l 243 838 l 243 482 l 464 482 z "},"Þ":{"ha":885,"x_min":114,"x_max":811,"o":"m 114 956 l 243 956 l 243 787 l 475 787 q 661 752 585 787 q 773 651 736 716 q 811 498 811 587 q 774 348 811 416 q 664 239 738 279 q 482 199 589 199 l 243 199 l 243 0 l 114 0 l 114 956 m 464 315 q 585 339 536 315 q 658 403 634 362 q 682 496 682 444 q 625 624 682 579 q 458 669 568 669 l 243 669 l 243 315 l 464 315 z "},"Q":{"ha":1023,"x_min":65,"x_max":958,"o":"m 958 482 q 915 249 958 352 q 791 81 871 146 l 880 -36 l 781 -109 l 688 20 q 511 -14 608 -14 q 272 50 373 -14 q 118 225 172 113 q 65 482 65 338 q 120 740 65 630 q 275 910 174 850 q 513 970 376 970 q 749 910 648 970 q 904 739 850 850 q 958 482 958 629 m 511 106 q 616 121 567 106 l 547 216 l 639 282 l 717 180 q 799 308 771 230 q 827 482 827 385 q 788 675 827 592 q 679 804 749 759 q 513 850 608 850 q 344 804 415 850 q 235 676 273 759 q 197 482 197 593 q 236 287 197 372 q 346 154 275 201 q 511 106 417 106 z "},"R":{"ha":920,"x_min":114,"x_max":856,"o":"m 114 956 l 481 956 q 663 922 588 956 q 778 825 739 888 q 817 673 817 762 q 792 552 817 610 q 715 454 767 495 q 583 397 663 412 l 856 0 l 705 0 l 457 383 l 243 383 l 243 0 l 114 0 l 114 956 m 472 498 q 593 521 545 498 q 665 583 642 544 q 688 672 688 622 q 630 796 688 754 q 467 838 572 838 l 243 838 l 243 498 l 472 498 z "},"Ŕ":{"ha":920,"x_min":114,"x_max":856,"o":"m 114 956 l 481 956 q 663 922 588 956 q 778 825 739 888 q 817 673 817 762 q 792 552 817 610 q 715 454 767 495 q 583 397 663 412 l 856 0 l 705 0 l 457 383 l 243 383 l 243 0 l 114 0 l 114 956 m 472 498 q 593 521 545 498 q 665 583 642 544 q 688 672 688 622 q 630 796 688 754 q 467 838 572 838 l 243 838 l 243 498 l 472 498 m 356 1051 l 503 1204 l 644 1204 l 644 1185 l 461 1038 l 356 1038 l 356 1051 z "},"Ř":{"ha":920,"x_min":114,"x_max":856,"o":"m 114 956 l 481 956 q 663 922 588 956 q 778 825 739 888 q 817 673 817 762 q 792 552 817 610 q 715 454 767 495 q 583 397 663 412 l 856 0 l 705 0 l 457 383 l 243 383 l 243 0 l 114 0 l 114 956 m 472 498 q 593 521 545 498 q 665 583 642 544 q 688 672 688 622 q 630 796 688 754 q 467 838 572 838 l 243 838 l 243 498 l 472 498 m 228 1200 l 228 1214 l 326 1214 l 456 1120 l 457 1120 l 578 1214 l 677 1214 l 677 1200 l 525 1038 l 386 1038 l 228 1200 z "},"Ŗ":{"ha":920,"x_min":114,"x_max":856,"o":"m 114 956 l 481 956 q 663 922 588 956 q 778 825 739 888 q 817 673 817 762 q 792 552 817 610 q 715 454 767 495 q 583 397 663 412 l 856 0 l 705 0 l 457 383 l 243 383 l 243 0 l 114 0 l 114 956 m 472 498 q 593 521 545 498 q 665 583 642 544 q 688 672 688 622 q 630 796 688 754 q 467 838 572 838 l 243 838 l 243 498 l 472 498 m 420 -256 q 444 -217 434 -235 q 456 -179 453 -198 q 415 -158 431 -175 q 400 -117 400 -141 q 418 -74 400 -91 q 463 -57 435 -57 q 515 -79 496 -57 q 534 -140 534 -100 q 516 -219 534 -183 q 469 -292 498 -254 l 420 -256 z "},"S":{"ha":847,"x_min":66,"x_max":783,"o":"m 424 -14 q 66 146 183 -14 l 158 228 q 228 159 194 186 q 310 116 261 132 q 428 100 359 100 q 591 139 527 100 q 656 257 656 178 q 630 342 656 311 q 561 390 604 373 q 434 429 517 407 q 397 439 422 432 q 241 491 301 465 q 140 571 182 517 q 98 714 98 625 q 142 859 98 801 q 261 943 186 916 q 427 970 335 970 q 616 935 537 970 q 751 831 695 899 l 663 749 q 560 829 616 800 q 425 857 503 857 q 275 820 326 857 q 225 721 225 782 q 251 642 225 672 q 317 596 277 612 q 428 559 357 579 l 456 551 l 491 541 q 646 487 588 513 q 744 408 704 461 q 783 264 783 354 q 742 120 783 182 q 620 22 701 57 q 424 -14 538 -14 z "},"Ś":{"ha":847,"x_min":66,"x_max":783,"o":"m 424 -14 q 66 146 183 -14 l 158 228 q 228 159 194 186 q 310 116 261 132 q 428 100 359 100 q 591 139 527 100 q 656 257 656 178 q 630 342 656 311 q 561 390 604 373 q 434 429 517 407 q 397 439 422 432 q 241 491 301 465 q 140 571 182 517 q 98 714 98 625 q 142 859 98 801 q 261 943 186 916 q 427 970 335 970 q 616 935 537 970 q 751 831 695 899 l 663 749 q 560 829 616 800 q 425 857 503 857 q 275 820 326 857 q 225 721 225 782 q 251 642 225 672 q 317 596 277 612 q 428 559 357 579 l 456 551 l 491 541 q 646 487 588 513 q 744 408 704 461 q 783 264 783 354 q 742 120 783 182 q 620 22 701 57 q 424 -14 538 -14 m 332 1051 l 479 1204 l 620 1204 l 620 1185 l 437 1038 l 332 1038 l 332 1051 z "},"Š":{"ha":847,"x_min":66,"x_max":783,"o":"m 424 -14 q 66 146 183 -14 l 158 228 q 228 159 194 186 q 310 116 261 132 q 428 100 359 100 q 591 139 527 100 q 656 257 656 178 q 630 342 656 311 q 561 390 604 373 q 434 429 517 407 q 397 439 422 432 q 241 491 301 465 q 140 571 182 517 q 98 714 98 625 q 142 859 98 801 q 261 943 186 916 q 427 970 335 970 q 616 935 537 970 q 751 831 695 899 l 663 749 q 560 829 616 800 q 425 857 503 857 q 275 820 326 857 q 225 721 225 782 q 251 642 225 672 q 317 596 277 612 q 428 559 357 579 l 456 551 l 491 541 q 646 487 588 513 q 744 408 704 461 q 783 264 783 354 q 742 120 783 182 q 620 22 701 57 q 424 -14 538 -14 m 204 1200 l 204 1214 l 302 1214 l 432 1120 l 433 1120 l 554 1214 l 653 1214 l 653 1200 l 501 1038 l 362 1038 l 204 1200 z "},"Ş":{"ha":847,"x_min":66,"x_max":783,"o":"m 783 264 q 747 129 783 189 q 641 32 711 69 q 471 -12 571 -5 l 450 -69 q 537 -99 507 -73 q 566 -168 566 -125 q 380 -289 566 -289 q 319 -286 342 -289 l 319 -210 q 378 -214 353 -214 q 454 -203 431 -214 q 477 -171 477 -192 q 383 -132 477 -132 q 345 -134 357 -132 l 388 -13 q 66 146 174 -1 l 158 228 q 228 159 194 186 q 310 116 261 132 q 428 100 359 100 q 591 139 527 100 q 656 257 656 178 q 630 342 656 311 q 561 390 604 373 q 434 429 517 407 q 397 439 422 432 q 241 491 301 465 q 140 571 182 517 q 98 714 98 625 q 142 859 98 801 q 261 943 186 916 q 427 970 335 970 q 616 935 537 970 q 751 831 695 899 l 663 749 q 560 829 616 800 q 425 857 503 857 q 275 820 326 857 q 225 721 225 782 q 251 642 225 672 q 317 596 277 612 q 428 559 357 579 l 456 551 l 491 541 q 646 487 588 513 q 744 408 704 461 q 783 264 783 354 z "},"Ŝ":{"ha":847,"x_min":66,"x_max":783,"o":"m 424 -14 q 66 146 183 -14 l 158 228 q 228 159 194 186 q 310 116 261 132 q 428 100 359 100 q 591 139 527 100 q 656 257 656 178 q 630 342 656 311 q 561 390 604 373 q 434 429 517 407 q 397 439 422 432 q 241 491 301 465 q 140 571 182 517 q 98 714 98 625 q 142 859 98 801 q 261 943 186 916 q 427 970 335 970 q 616 935 537 970 q 751 831 695 899 l 663 749 q 560 829 616 800 q 425 857 503 857 q 275 820 326 857 q 225 721 225 782 q 251 642 225 672 q 317 596 277 612 q 428 559 357 579 l 456 551 l 491 541 q 646 487 588 513 q 744 408 704 461 q 783 264 783 354 q 742 120 783 182 q 620 22 701 57 q 424 -14 538 -14 m 204 1051 l 362 1214 l 501 1214 l 653 1051 l 653 1038 l 554 1038 l 433 1132 l 432 1132 l 302 1038 l 204 1038 l 204 1051 z "},"Ș":{"ha":847,"x_min":66,"x_max":783,"o":"m 424 -14 q 66 146 183 -14 l 158 228 q 228 159 194 186 q 310 116 261 132 q 428 100 359 100 q 591 139 527 100 q 656 257 656 178 q 630 342 656 311 q 561 390 604 373 q 434 429 517 407 q 397 439 422 432 q 241 491 301 465 q 140 571 182 517 q 98 714 98 625 q 142 859 98 801 q 261 943 186 916 q 427 970 335 970 q 616 935 537 970 q 751 831 695 899 l 663 749 q 560 829 616 800 q 425 857 503 857 q 275 820 326 857 q 225 721 225 782 q 251 642 225 672 q 317 596 277 612 q 428 559 357 579 l 456 551 l 491 541 q 646 487 588 513 q 744 408 704 461 q 783 264 783 354 q 742 120 783 182 q 620 22 701 57 q 424 -14 538 -14 m 377 -256 q 401 -217 391 -235 q 413 -179 410 -198 q 373 -158 388 -175 q 357 -117 357 -141 q 375 -74 357 -91 q 420 -57 393 -57 q 472 -79 453 -57 q 491 -140 491 -100 q 473 -219 491 -183 q 427 -292 456 -254 l 377 -256 z "},"ẞ":{"ha":977,"x_min":114,"x_max":914,"o":"m 627 547 q 839 465 763 536 q 914 271 914 393 q 870 114 914 178 q 752 18 826 50 q 586 -14 677 -14 q 392 9 492 -14 l 411 119 q 502 99 463 106 q 579 92 541 92 q 732 138 682 92 q 783 271 783 184 q 755 379 783 340 q 671 434 727 418 q 526 450 616 450 l 481 450 l 481 545 l 692 784 q 606 838 660 816 q 488 860 551 860 q 337 824 391 860 q 263 724 283 789 q 243 559 243 659 l 243 0 l 114 0 l 114 549 q 205 864 114 758 q 489 970 296 970 q 694 928 604 970 q 852 787 784 886 l 627 547 z "},"T":{"ha":791,"x_min":31,"x_max":761,"o":"m 332 836 l 31 836 l 31 956 l 761 956 l 761 836 l 461 836 l 461 0 l 332 0 l 332 836 z "},"Ŧ":{"ha":791,"x_min":31,"x_max":761,"o":"m 461 836 l 461 543 l 636 543 l 636 439 l 461 439 l 461 0 l 332 0 l 332 439 l 157 439 l 157 543 l 332 543 l 332 836 l 31 836 l 31 956 l 761 956 l 761 836 l 461 836 z "},"Ť":{"ha":791,"x_min":31,"x_max":761,"o":"m 332 836 l 31 836 l 31 956 l 761 956 l 761 836 l 461 836 l 461 0 l 332 0 l 332 836 m 171 1200 l 171 1214 l 269 1214 l 399 1120 l 400 1120 l 521 1214 l 620 1214 l 620 1200 l 468 1038 l 329 1038 l 171 1200 z "},"Ţ":{"ha":791,"x_min":31,"x_max":761,"o":"m 340 -289 q 279 -286 301 -289 l 279 -210 q 338 -214 312 -214 q 414 -203 391 -214 q 437 -171 437 -192 q 343 -132 437 -132 q 304 -134 317 -132 l 353 0 l 332 0 l 332 836 l 31 836 l 31 956 l 761 956 l 761 836 l 461 836 l 461 0 l 436 0 l 410 -69 q 497 -99 468 -74 q 526 -168 526 -124 q 340 -289 526 -289 z "},"Ț":{"ha":791,"x_min":31,"x_max":761,"o":"m 332 836 l 31 836 l 31 956 l 761 956 l 761 836 l 461 836 l 461 0 l 332 0 l 332 836 m 349 -256 q 373 -217 363 -235 q 385 -179 382 -198 q 345 -158 360 -175 q 330 -117 330 -141 q 347 -74 330 -91 q 392 -57 365 -57 q 444 -79 425 -57 q 463 -140 463 -100 q 446 -219 463 -183 q 399 -292 428 -254 l 349 -256 z "},"U":{"ha":975,"x_min":107,"x_max":868,"o":"m 482 -14 q 292 25 377 -14 q 157 146 208 64 q 107 347 107 227 l 107 956 l 236 956 l 236 358 q 302 166 236 227 q 481 106 368 106 q 668 169 596 106 q 739 367 739 232 l 739 956 l 868 956 l 868 359 q 817 153 868 237 q 679 27 766 68 q 482 -14 591 -14 z "},"Ú":{"ha":975,"x_min":107,"x_max":868,"o":"m 482 -14 q 292 25 377 -14 q 157 146 208 64 q 107 347 107 227 l 107 956 l 236 956 l 236 358 q 302 166 236 227 q 481 106 368 106 q 668 169 596 106 q 739 367 739 232 l 739 956 l 868 956 l 868 359 q 817 153 868 237 q 679 27 766 68 q 482 -14 591 -14 m 391 1051 l 538 1204 l 678 1204 l 678 1185 l 496 1038 l 391 1038 l 391 1051 z "},"Ŭ":{"ha":975,"x_min":107,"x_max":868,"o":"m 482 -14 q 292 25 377 -14 q 157 146 208 64 q 107 347 107 227 l 107 956 l 236 956 l 236 358 q 302 166 236 227 q 481 106 368 106 q 668 169 596 106 q 739 367 739 232 l 739 956 l 868 956 l 868 359 q 817 153 868 237 q 679 27 766 68 q 482 -14 591 -14 m 486 1038 q 374 1061 422 1038 q 298 1122 326 1084 q 261 1207 269 1161 l 340 1207 q 390 1149 353 1170 q 488 1129 427 1129 q 586 1150 548 1129 q 633 1207 623 1171 l 713 1207 q 676 1122 704 1160 q 601 1061 648 1084 q 486 1038 553 1038 z "},"Û":{"ha":975,"x_min":107,"x_max":868,"o":"m 482 -14 q 292 25 377 -14 q 157 146 208 64 q 107 347 107 227 l 107 956 l 236 956 l 236 358 q 302 166 236 227 q 481 106 368 106 q 668 169 596 106 q 739 367 739 232 l 739 956 l 868 956 l 868 359 q 817 153 868 237 q 679 27 766 68 q 482 -14 591 -14 m 262 1051 l 420 1214 l 559 1214 l 711 1051 l 711 1038 l 612 1038 l 492 1132 l 490 1132 l 361 1038 l 262 1038 l 262 1051 z "},"Ü":{"ha":975,"x_min":107,"x_max":868,"o":"m 482 -14 q 292 25 377 -14 q 157 146 208 64 q 107 347 107 227 l 107 956 l 236 956 l 236 358 q 302 166 236 227 q 481 106 368 106 q 668 169 596 106 q 739 367 739 232 l 739 956 l 868 956 l 868 359 q 817 153 868 237 q 679 27 766 68 q 482 -14 591 -14 m 358 1038 q 308 1058 329 1038 q 288 1108 288 1078 q 308 1160 288 1139 q 358 1181 329 1181 q 408 1160 387 1181 q 429 1108 429 1139 q 408 1058 429 1078 q 358 1038 387 1038 m 618 1038 q 568 1058 589 1038 q 547 1108 547 1078 q 568 1160 547 1139 q 618 1181 589 1181 q 668 1160 647 1181 q 689 1108 689 1139 q 668 1058 689 1078 q 618 1038 647 1038 z "},"Ù":{"ha":975,"x_min":107,"x_max":868,"o":"m 482 -14 q 292 25 377 -14 q 157 146 208 64 q 107 347 107 227 l 107 956 l 236 956 l 236 358 q 302 166 236 227 q 481 106 368 106 q 668 169 596 106 q 739 367 739 232 l 739 956 l 868 956 l 868 359 q 817 153 868 237 q 679 27 766 68 q 482 -14 591 -14 m 307 1185 l 307 1204 l 447 1204 l 594 1051 l 594 1038 l 489 1038 l 307 1185 z "},"Ű":{"ha":975,"x_min":107,"x_max":868,"o":"m 482 -14 q 292 25 377 -14 q 157 146 208 64 q 107 347 107 227 l 107 956 l 236 956 l 236 358 q 302 166 236 227 q 481 106 368 106 q 668 169 596 106 q 739 367 739 232 l 739 956 l 868 956 l 868 359 q 817 153 868 237 q 679 27 766 68 q 482 -14 591 -14 m 289 1051 l 422 1206 l 562 1206 l 562 1186 l 353 1038 l 289 1038 l 289 1051 m 524 1051 l 656 1206 l 797 1206 l 797 1186 l 587 1038 l 524 1038 l 524 1051 z "},"Ū":{"ha":975,"x_min":107,"x_max":868,"o":"m 482 -14 q 292 25 377 -14 q 157 146 208 64 q 107 347 107 227 l 107 956 l 236 956 l 236 358 q 302 166 236 227 q 481 106 368 106 q 668 169 596 106 q 739 367 739 232 l 739 956 l 868 956 l 868 359 q 817 153 868 237 q 679 27 766 68 q 482 -14 591 -14 m 301 1147 l 673 1147 l 673 1061 l 301 1061 l 301 1147 z "},"Ų":{"ha":975,"x_min":107,"x_max":868,"o":"m 868 956 l 868 359 q 795 120 868 212 q 601 0 723 29 l 602 0 q 532 -63 562 -22 q 501 -147 501 -103 q 518 -190 501 -175 q 565 -204 534 -204 q 643 -187 601 -204 l 643 -271 q 549 -289 603 -289 q 443 -255 479 -289 q 406 -163 406 -221 q 430 -77 406 -115 q 488 -14 454 -39 l 482 -14 q 292 25 377 -14 q 157 146 208 64 q 107 347 107 227 l 107 956 l 236 956 l 236 358 q 302 166 236 227 q 481 106 368 106 q 668 169 596 106 q 739 367 739 232 l 739 956 l 868 956 z "},"Ů":{"ha":975,"x_min":107,"x_max":868,"o":"m 494 960 q 420 980 454 960 q 366 1034 386 1000 q 346 1107 346 1068 q 366 1181 346 1147 q 420 1235 386 1215 q 494 1255 454 1255 q 568 1235 534 1255 q 622 1181 602 1215 q 642 1107 642 1147 q 622 1034 642 1068 q 568 980 602 1000 q 494 960 534 960 m 494 1025 q 552 1048 528 1025 q 575 1107 575 1072 q 552 1166 575 1143 q 494 1190 528 1190 q 435 1166 459 1190 q 411 1107 411 1143 q 435 1048 411 1072 q 494 1025 459 1025 m 482 -14 q 292 25 377 -14 q 157 146 208 64 q 107 347 107 227 l 107 956 l 236 956 l 236 358 q 302 166 236 227 q 481 106 368 106 q 668 169 596 106 q 739 367 739 232 l 739 956 l 868 956 l 868 359 q 817 153 868 237 q 679 27 766 68 q 482 -14 591 -14 z "},"Ũ":{"ha":975,"x_min":107,"x_max":868,"o":"m 482 -14 q 292 25 377 -14 q 157 146 208 64 q 107 347 107 227 l 107 956 l 236 956 l 236 358 q 302 166 236 227 q 481 106 368 106 q 668 169 596 106 q 739 367 739 232 l 739 956 l 868 956 l 868 359 q 817 153 868 237 q 679 27 766 68 q 482 -14 591 -14 m 244 1038 q 282 1168 253 1117 q 382 1219 311 1219 q 438 1207 410 1219 q 505 1173 466 1196 q 554 1147 536 1156 q 589 1139 572 1139 q 629 1159 615 1139 q 647 1219 643 1180 l 730 1219 q 712 1130 724 1168 q 672 1064 701 1091 q 593 1038 644 1038 q 539 1049 566 1038 q 473 1083 513 1061 q 422 1109 442 1101 q 386 1118 403 1118 q 345 1098 359 1118 q 326 1038 330 1078 l 244 1038 z "},"V":{"ha":871,"x_min":5,"x_max":865,"o":"m 5 956 l 143 956 l 379 283 q 415 181 399 225 q 436 123 431 137 q 456 179 441 136 q 493 283 472 222 l 728 956 l 865 956 l 507 0 l 364 0 l 5 956 z "},"W":{"ha":1227,"x_min":5,"x_max":1222,"o":"m 5 956 l 142 956 l 289 349 q 343 123 323 211 q 400 361 364 222 l 547 956 l 684 956 l 832 361 q 889 123 876 174 q 920 254 894 145 l 943 349 l 1088 956 l 1222 956 l 975 0 l 814 0 l 660 607 q 626 753 650 646 l 615 804 q 570 607 588 678 l 414 0 l 254 0 l 5 956 z "},"Ẃ":{"ha":1227,"x_min":5,"x_max":1222,"o":"m 5 956 l 142 956 l 289 349 q 343 123 323 211 q 400 361 364 222 l 547 956 l 684 956 l 832 361 q 889 123 876 174 q 920 254 894 145 l 943 349 l 1088 956 l 1222 956 l 975 0 l 814 0 l 660 607 q 626 753 650 646 l 615 804 q 570 607 588 678 l 414 0 l 254 0 l 5 956 m 517 1051 l 664 1204 l 804 1204 l 804 1185 l 622 1038 l 517 1038 l 517 1051 z "},"Ŵ":{"ha":1227,"x_min":5,"x_max":1222,"o":"m 5 956 l 142 956 l 289 349 q 343 123 323 211 q 400 361 364 222 l 547 956 l 684 956 l 832 361 q 889 123 876 174 q 920 254 894 145 l 943 349 l 1088 956 l 1222 956 l 975 0 l 814 0 l 660 607 q 626 753 650 646 l 615 804 q 570 607 588 678 l 414 0 l 254 0 l 5 956 m 389 1051 l 547 1214 l 686 1214 l 838 1051 l 838 1038 l 739 1038 l 618 1132 l 616 1132 l 487 1038 l 389 1038 l 389 1051 z "},"Ẅ":{"ha":1227,"x_min":5,"x_max":1222,"o":"m 5 956 l 142 956 l 289 349 q 343 123 323 211 q 400 361 364 222 l 547 956 l 684 956 l 832 361 q 889 123 876 174 q 920 254 894 145 l 943 349 l 1088 956 l 1222 956 l 975 0 l 814 0 l 660 607 q 626 753 650 646 l 615 804 q 570 607 588 678 l 414 0 l 254 0 l 5 956 m 484 1038 q 434 1058 455 1038 q 414 1108 414 1078 q 434 1160 414 1139 q 484 1181 455 1181 q 534 1160 513 1181 q 555 1108 555 1139 q 534 1058 555 1078 q 484 1038 513 1038 m 744 1038 q 694 1058 715 1038 q 673 1108 673 1078 q 694 1160 673 1139 q 744 1181 715 1181 q 794 1160 773 1181 q 815 1108 815 1139 q 794 1058 815 1078 q 744 1038 773 1038 z "},"Ẁ":{"ha":1227,"x_min":5,"x_max":1222,"o":"m 5 956 l 142 956 l 289 349 q 343 123 323 211 q 400 361 364 222 l 547 956 l 684 956 l 832 361 q 889 123 876 174 q 920 254 894 145 l 943 349 l 1088 956 l 1222 956 l 975 0 l 814 0 l 660 607 q 626 753 650 646 l 615 804 q 570 607 588 678 l 414 0 l 254 0 l 5 956 m 433 1185 l 433 1204 l 573 1204 l 720 1051 l 720 1038 l 615 1038 l 433 1185 z "},"X":{"ha":872,"x_min":31,"x_max":842,"o":"m 694 0 l 439 410 l 178 0 l 31 0 l 370 496 l 58 956 l 207 956 l 440 589 l 667 956 l 814 956 l 513 501 l 842 0 l 694 0 z "},"Y":{"ha":871,"x_min":31,"x_max":840,"o":"m 371 366 l 31 956 l 174 956 l 436 472 l 697 956 l 840 956 l 500 366 l 500 0 l 371 0 l 371 366 z "},"Ý":{"ha":871,"x_min":31,"x_max":840,"o":"m 371 366 l 31 956 l 174 956 l 436 472 l 697 956 l 840 956 l 500 366 l 500 0 l 371 0 l 371 366 m 339 1051 l 486 1204 l 627 1204 l 627 1185 l 444 1038 l 339 1038 l 339 1051 z "},"Ŷ":{"ha":871,"x_min":31,"x_max":840,"o":"m 371 366 l 31 956 l 174 956 l 436 472 l 697 956 l 840 956 l 500 366 l 500 0 l 371 0 l 371 366 m 211 1051 l 369 1214 l 508 1214 l 660 1051 l 660 1038 l 561 1038 l 440 1132 l 439 1132 l 309 1038 l 211 1038 l 211 1051 z "},"Ÿ":{"ha":871,"x_min":31,"x_max":840,"o":"m 371 366 l 31 956 l 174 956 l 436 472 l 697 956 l 840 956 l 500 366 l 500 0 l 371 0 l 371 366 m 307 1038 q 257 1058 277 1038 q 236 1108 236 1078 q 257 1160 236 1139 q 307 1181 277 1181 q 357 1160 336 1181 q 378 1108 378 1139 q 357 1058 378 1078 q 307 1038 336 1038 m 566 1038 q 516 1058 537 1038 q 496 1108 496 1078 q 516 1160 496 1139 q 566 1181 537 1181 q 616 1160 595 1181 q 637 1108 637 1139 q 616 1058 637 1078 q 566 1038 595 1038 z "},"Ỳ":{"ha":871,"x_min":31,"x_max":840,"o":"m 371 366 l 31 956 l 174 956 l 436 472 l 697 956 l 840 956 l 500 366 l 500 0 l 371 0 l 371 366 m 255 1185 l 255 1204 l 395 1204 l 543 1051 l 543 1038 l 437 1038 l 255 1185 z "},"Z":{"ha":737,"x_min":17,"x_max":722,"o":"m 722 115 l 722 0 l 17 0 l 17 103 l 540 840 l 58 840 l 58 956 l 697 956 l 697 856 l 174 115 l 722 115 z "},"Ź":{"ha":737,"x_min":17,"x_max":722,"o":"m 722 115 l 722 0 l 17 0 l 17 103 l 540 840 l 58 840 l 58 956 l 697 956 l 697 856 l 174 115 l 722 115 m 282 1051 l 429 1204 l 570 1204 l 570 1185 l 387 1038 l 282 1038 l 282 1051 z "},"Ž":{"ha":737,"x_min":17,"x_max":722,"o":"m 722 115 l 722 0 l 17 0 l 17 103 l 540 840 l 58 840 l 58 956 l 697 956 l 697 856 l 174 115 l 722 115 m 154 1200 l 154 1214 l 252 1214 l 382 1120 l 383 1120 l 504 1214 l 603 1214 l 603 1200 l 451 1038 l 312 1038 l 154 1200 z "},"Ż":{"ha":737,"x_min":17,"x_max":722,"o":"m 722 115 l 722 0 l 17 0 l 17 103 l 540 840 l 58 840 l 58 956 l 697 956 l 697 856 l 174 115 l 722 115 m 379 1039 q 329 1059 349 1039 q 308 1109 308 1080 q 329 1161 308 1140 q 379 1182 349 1182 q 429 1161 408 1182 q 450 1109 450 1140 q 429 1059 450 1080 q 379 1039 408 1039 z "},"a":{"ha":742,"x_min":58,"x_max":650,"o":"m 288 -14 q 117 44 176 -14 q 58 204 58 102 q 150 380 58 327 q 378 436 241 433 l 524 439 l 524 482 q 485 601 524 558 q 374 644 446 644 q 268 620 315 644 q 164 534 220 595 l 87 614 q 208 710 135 672 q 376 747 281 747 q 522 715 461 747 q 613 625 582 682 q 644 494 644 568 l 644 155 q 650 0 644 68 l 532 0 q 526 109 526 50 l 524 109 q 428 17 482 48 q 288 -14 374 -14 m 315 89 q 428 115 380 89 q 499 183 475 141 q 524 273 524 226 l 524 343 l 408 340 q 246 308 307 338 q 184 203 184 277 q 219 120 184 151 q 315 89 254 89 z "},"á":{"ha":742,"x_min":58,"x_max":650,"o":"m 288 -14 q 117 44 176 -14 q 58 204 58 102 q 150 380 58 327 q 378 436 241 433 l 524 439 l 524 482 q 485 601 524 558 q 374 644 446 644 q 268 620 315 644 q 164 534 220 595 l 87 614 q 208 710 135 672 q 376 747 281 747 q 522 715 461 747 q 613 625 582 682 q 644 494 644 568 l 644 155 q 650 0 644 68 l 532 0 q 526 109 526 50 l 524 109 q 428 17 482 48 q 288 -14 374 -14 m 315 89 q 428 115 380 89 q 499 183 475 141 q 524 273 524 226 l 524 343 l 408 340 q 246 308 307 338 q 184 203 184 277 q 219 120 184 151 q 315 89 254 89 m 285 828 l 432 1022 l 572 1022 l 572 1003 l 376 814 l 285 814 l 285 828 z "},"ă":{"ha":742,"x_min":58,"x_max":650,"o":"m 288 -14 q 117 44 176 -14 q 58 204 58 102 q 150 380 58 327 q 378 436 241 433 l 524 439 l 524 482 q 485 601 524 558 q 374 644 446 644 q 268 620 315 644 q 164 534 220 595 l 87 614 q 208 710 135 672 q 376 747 281 747 q 522 715 461 747 q 613 625 582 682 q 644 494 644 568 l 644 155 q 650 0 644 68 l 532 0 q 526 109 526 50 l 524 109 q 428 17 482 48 q 288 -14 374 -14 m 315 89 q 428 115 380 89 q 499 183 475 141 q 524 273 524 226 l 524 343 l 408 340 q 246 308 307 338 q 184 203 184 277 q 219 120 184 151 q 315 89 254 89 m 372 814 q 260 843 309 814 q 183 919 212 871 q 147 1023 155 967 l 254 1023 q 294 945 263 968 q 374 921 325 921 q 453 945 422 921 q 492 1023 483 969 l 599 1023 q 562 919 590 966 q 486 843 534 871 q 372 814 438 814 z "},"â":{"ha":742,"x_min":58,"x_max":650,"o":"m 288 -14 q 117 44 176 -14 q 58 204 58 102 q 150 380 58 327 q 378 436 241 433 l 524 439 l 524 482 q 485 601 524 558 q 374 644 446 644 q 268 620 315 644 q 164 534 220 595 l 87 614 q 208 710 135 672 q 376 747 281 747 q 522 715 461 747 q 613 625 582 682 q 644 494 644 568 l 644 155 q 650 0 644 68 l 532 0 q 526 109 526 50 l 524 109 q 428 17 482 48 q 288 -14 374 -14 m 315 89 q 428 115 380 89 q 499 183 475 141 q 524 273 524 226 l 524 343 l 408 340 q 246 308 307 338 q 184 203 184 277 q 219 120 184 151 q 315 89 254 89 m 149 828 l 311 1011 l 441 1011 l 597 828 l 597 814 l 498 814 l 378 929 l 376 929 l 247 814 l 149 814 l 149 828 z "},"ä":{"ha":742,"x_min":58,"x_max":650,"o":"m 288 -14 q 117 44 176 -14 q 58 204 58 102 q 150 380 58 327 q 378 436 241 433 l 524 439 l 524 482 q 485 601 524 558 q 374 644 446 644 q 268 620 315 644 q 164 534 220 595 l 87 614 q 208 710 135 672 q 376 747 281 747 q 522 715 461 747 q 613 625 582 682 q 644 494 644 568 l 644 155 q 650 0 644 68 l 532 0 q 526 109 526 50 l 524 109 q 428 17 482 48 q 288 -14 374 -14 m 315 89 q 428 115 380 89 q 499 183 475 141 q 524 273 524 226 l 524 343 l 408 340 q 246 308 307 338 q 184 203 184 277 q 219 120 184 151 q 315 89 254 89 m 243 839 q 194 859 214 839 q 174 908 174 879 q 194 959 174 938 q 243 979 214 979 q 292 959 272 979 q 313 908 313 938 q 292 859 313 879 q 243 839 272 839 m 503 839 q 453 859 473 839 q 433 908 433 879 q 453 959 433 938 q 503 979 473 979 q 552 959 532 979 q 572 908 572 938 q 552 859 572 879 q 503 839 532 839 z "},"à":{"ha":742,"x_min":58,"x_max":650,"o":"m 288 -14 q 117 44 176 -14 q 58 204 58 102 q 150 380 58 327 q 378 436 241 433 l 524 439 l 524 482 q 485 601 524 558 q 374 644 446 644 q 268 620 315 644 q 164 534 220 595 l 87 614 q 208 710 135 672 q 376 747 281 747 q 522 715 461 747 q 613 625 582 682 q 644 494 644 568 l 644 155 q 650 0 644 68 l 532 0 q 526 109 526 50 l 524 109 q 428 17 482 48 q 288 -14 374 -14 m 315 89 q 428 115 380 89 q 499 183 475 141 q 524 273 524 226 l 524 343 l 408 340 q 246 308 307 338 q 184 203 184 277 q 219 120 184 151 q 315 89 254 89 m 182 1003 l 182 1022 l 322 1022 l 469 828 l 469 814 l 378 814 l 182 1003 z "},"ā":{"ha":742,"x_min":58,"x_max":650,"o":"m 288 -14 q 117 44 176 -14 q 58 204 58 102 q 150 380 58 327 q 378 436 241 433 l 524 439 l 524 482 q 485 601 524 558 q 374 644 446 644 q 268 620 315 644 q 164 534 220 595 l 87 614 q 208 710 135 672 q 376 747 281 747 q 522 715 461 747 q 613 625 582 682 q 644 494 644 568 l 644 155 q 650 0 644 68 l 532 0 q 526 109 526 50 l 524 109 q 428 17 482 48 q 288 -14 374 -14 m 315 89 q 428 115 380 89 q 499 183 475 141 q 524 273 524 226 l 524 343 l 408 340 q 246 308 307 338 q 184 203 184 277 q 219 120 184 151 q 315 89 254 89 m 187 925 l 559 925 l 559 839 l 187 839 l 187 925 z "},"ą":{"ha":742,"x_min":58,"x_max":685,"o":"m 590 -289 q 484 -255 521 -289 q 447 -163 447 -221 q 464 -91 447 -124 q 505 -35 481 -58 q 550 0 529 -12 l 532 0 q 526 109 526 50 l 524 109 q 428 17 482 48 q 288 -14 374 -14 q 117 44 176 -14 q 58 204 58 102 q 150 380 58 327 q 378 436 241 433 l 524 439 l 524 482 q 485 601 524 558 q 374 644 446 644 q 268 620 315 644 q 164 534 220 595 l 87 614 q 208 710 135 672 q 376 747 281 747 q 522 715 461 747 q 613 625 582 682 q 644 494 644 568 l 644 155 q 650 0 644 68 l 643 0 q 573 -63 604 -23 q 543 -147 543 -103 q 560 -190 543 -175 q 607 -204 576 -204 q 685 -187 643 -204 l 685 -271 q 590 -289 645 -289 m 315 89 q 428 115 380 89 q 499 183 475 141 q 524 273 524 226 l 524 343 l 408 340 q 246 308 307 338 q 184 203 184 277 q 219 120 184 151 q 315 89 254 89 z "},"å":{"ha":742,"x_min":58,"x_max":650,"o":"m 288 -14 q 117 44 176 -14 q 58 204 58 102 q 150 380 58 327 q 378 436 241 433 l 524 439 l 524 482 q 485 601 524 558 q 374 644 446 644 q 268 620 315 644 q 164 534 220 595 l 87 614 q 208 710 135 672 q 376 747 281 747 q 522 715 461 747 q 613 625 582 682 q 644 494 644 568 l 644 155 q 650 0 644 68 l 532 0 q 526 109 526 50 l 524 109 q 428 17 482 48 q 288 -14 374 -14 m 315 89 q 428 115 380 89 q 499 183 475 141 q 524 273 524 226 l 524 343 l 408 340 q 246 308 307 338 q 184 203 184 277 q 219 120 184 151 q 315 89 254 89 m 374 791 q 292 814 330 791 q 232 874 254 836 q 210 956 210 911 q 232 1038 210 1000 q 292 1098 254 1076 q 374 1120 330 1120 q 456 1098 418 1120 q 516 1038 494 1076 q 538 956 538 1000 q 516 874 538 911 q 456 814 494 836 q 374 791 418 791 m 374 864 q 438 890 412 864 q 464 956 464 917 q 438 1021 464 995 q 374 1047 412 1047 q 309 1021 335 1047 q 282 956 282 995 q 309 890 282 917 q 374 864 335 864 z "},"ǻ":{"ha":742,"x_min":58,"x_max":650,"o":"m 374 791 q 292 814 330 791 q 232 874 254 836 q 210 956 210 911 q 227 1028 210 994 q 273 1085 243 1062 l 401 1254 l 542 1254 l 542 1235 l 416 1114 q 504 1056 469 1100 q 538 956 538 1011 q 516 874 538 911 q 456 814 494 836 q 374 791 418 791 m 464 956 q 438 1021 464 995 q 374 1047 412 1047 q 309 1021 335 1047 q 282 956 282 995 q 309 890 282 917 q 374 864 335 864 q 438 890 412 864 q 464 956 464 917 m 644 155 q 650 0 644 68 l 532 0 q 526 109 526 50 l 524 109 q 428 17 482 48 q 288 -14 374 -14 q 117 44 176 -14 q 58 204 58 102 q 150 380 58 327 q 378 436 241 433 l 524 439 l 524 482 q 485 601 524 558 q 374 644 446 644 q 268 620 315 644 q 164 534 220 595 l 87 614 q 208 710 135 672 q 376 747 281 747 q 522 715 461 747 q 613 625 582 682 q 644 494 644 568 l 644 155 m 524 343 l 408 340 q 246 308 307 338 q 184 203 184 277 q 219 120 184 151 q 315 89 254 89 q 428 115 380 89 q 499 183 475 141 q 524 273 524 226 l 524 343 z "},"ã":{"ha":742,"x_min":58,"x_max":650,"o":"m 288 -14 q 117 44 176 -14 q 58 204 58 102 q 150 380 58 327 q 378 436 241 433 l 524 439 l 524 482 q 485 601 524 558 q 374 644 446 644 q 268 620 315 644 q 164 534 220 595 l 87 614 q 208 710 135 672 q 376 747 281 747 q 522 715 461 747 q 613 625 582 682 q 644 494 644 568 l 644 155 q 650 0 644 68 l 532 0 q 526 109 526 50 l 524 109 q 428 17 482 48 q 288 -14 374 -14 m 315 89 q 428 115 380 89 q 499 183 475 141 q 524 273 524 226 l 524 343 l 408 340 q 246 308 307 338 q 184 203 184 277 q 219 120 184 151 q 315 89 254 89 m 130 814 q 168 945 139 894 q 268 996 197 996 q 324 984 296 996 q 391 949 352 972 q 441 924 423 932 q 475 916 458 916 q 526 996 519 916 l 616 996 q 598 906 610 945 q 558 841 587 868 q 479 814 530 814 q 425 826 452 814 q 359 860 397 838 q 308 887 327 878 q 272 896 289 896 q 236 876 248 896 q 220 814 224 855 l 130 814 z "},"æ":{"ha":1227,"x_min":58,"x_max":1165,"o":"m 300 -14 q 121 44 184 -14 q 58 204 58 102 q 150 383 58 332 q 387 436 241 433 l 536 439 l 536 476 q 494 601 536 557 q 372 644 452 644 q 268 619 319 644 q 164 534 216 594 l 87 614 q 211 711 142 675 q 374 747 280 747 q 516 717 456 747 q 614 625 575 687 q 720 716 656 685 q 859 747 783 747 q 1036 695 968 747 q 1135 563 1105 644 q 1165 393 1165 483 q 1162 335 1165 370 l 663 335 q 686 220 663 276 q 756 128 709 164 q 872 92 803 92 q 950 103 915 92 q 1013 134 985 115 q 1075 183 1041 153 l 1141 96 q 1074 44 1107 67 q 988 4 1040 22 q 872 -14 936 -14 q 708 25 778 -14 q 597 138 639 64 q 521 55 560 87 q 428 4 481 22 q 300 -14 374 -14 m 1040 437 q 856 643 1023 643 q 767 622 810 643 q 696 554 724 600 q 664 437 667 507 l 1040 437 m 329 89 q 443 121 396 89 q 513 203 490 154 q 536 301 536 252 l 536 343 l 404 340 q 247 311 309 339 q 184 203 184 283 q 222 119 184 150 q 329 89 260 89 z "},"ǽ":{"ha":1227,"x_min":58,"x_max":1165,"o":"m 300 -14 q 121 44 184 -14 q 58 204 58 102 q 150 383 58 332 q 387 436 241 433 l 536 439 l 536 476 q 494 601 536 557 q 372 644 452 644 q 268 619 319 644 q 164 534 216 594 l 87 614 q 211 711 142 675 q 374 747 280 747 q 516 717 456 747 q 614 625 575 687 q 720 716 656 685 q 859 747 783 747 q 1036 695 968 747 q 1135 563 1105 644 q 1165 393 1165 483 q 1162 335 1165 370 l 663 335 q 686 220 663 276 q 756 128 709 164 q 872 92 803 92 q 950 103 915 92 q 1013 134 985 115 q 1075 183 1041 153 l 1141 96 q 1074 44 1107 67 q 988 4 1040 22 q 872 -14 936 -14 q 708 25 778 -14 q 597 138 639 64 q 521 55 560 87 q 428 4 481 22 q 300 -14 374 -14 m 1040 437 q 856 643 1023 643 q 767 622 810 643 q 696 554 724 600 q 664 437 667 507 l 1040 437 m 329 89 q 443 121 396 89 q 513 203 490 154 q 536 301 536 252 l 536 343 l 404 340 q 247 311 309 339 q 184 203 184 283 q 222 119 184 150 q 329 89 260 89 m 525 828 l 672 1022 l 812 1022 l 812 1003 l 616 814 l 525 814 l 525 828 z "},"b":{"ha":793,"x_min":89,"x_max":734,"o":"m 444 -14 q 306 15 362 -14 q 215 106 250 44 l 214 106 q 211 42 214 77 q 207 0 208 7 l 89 0 q 92 62 90 21 q 93 151 93 104 l 93 1007 l 215 1007 l 215 720 q 214 662 215 688 q 212 628 213 635 l 215 628 q 314 719 254 690 q 452 747 373 747 q 604 703 541 747 q 701 574 668 659 q 734 371 734 490 q 700 164 734 250 q 599 32 665 77 q 444 -14 534 -14 m 419 90 q 557 160 507 90 q 607 367 607 230 q 559 569 607 500 q 421 639 511 639 q 316 610 362 639 q 242 519 270 582 q 215 358 215 456 q 241 209 215 269 q 314 119 268 149 q 419 90 360 90 z "},"c":{"ha":681,"x_min":58,"x_max":657,"o":"m 392 -14 q 202 39 277 -14 q 93 178 127 92 q 58 368 58 264 q 105 584 58 498 q 228 708 153 669 q 392 747 304 747 q 539 718 479 747 q 652 628 600 688 l 566 550 q 487 619 525 597 q 390 640 448 640 q 238 568 291 640 q 186 371 186 495 q 234 173 186 250 q 389 96 281 96 q 461 106 429 96 q 523 136 494 117 q 591 184 552 154 l 657 94 q 545 19 610 51 q 392 -14 479 -14 z "},"ć":{"ha":681,"x_min":58,"x_max":657,"o":"m 392 -14 q 202 39 277 -14 q 93 178 127 92 q 58 368 58 264 q 105 584 58 498 q 228 708 153 669 q 392 747 304 747 q 539 718 479 747 q 652 628 600 688 l 566 550 q 487 619 525 597 q 390 640 448 640 q 238 568 291 640 q 186 371 186 495 q 234 173 186 250 q 389 96 281 96 q 461 106 429 96 q 523 136 494 117 q 591 184 552 154 l 657 94 q 545 19 610 51 q 392 -14 479 -14 m 292 828 l 439 1022 l 579 1022 l 579 1003 l 383 814 l 292 814 l 292 828 z "},"č":{"ha":681,"x_min":58,"x_max":657,"o":"m 392 -14 q 202 39 277 -14 q 93 178 127 92 q 58 368 58 264 q 105 584 58 498 q 228 708 153 669 q 392 747 304 747 q 539 718 479 747 q 652 628 600 688 l 566 550 q 487 619 525 597 q 390 640 448 640 q 238 568 291 640 q 186 371 186 495 q 234 173 186 250 q 389 96 281 96 q 461 106 429 96 q 523 136 494 117 q 591 184 552 154 l 657 94 q 545 19 610 51 q 392 -14 479 -14 m 150 997 l 150 1011 l 248 1011 l 378 897 l 379 897 l 500 1011 l 599 1011 l 599 997 l 443 814 l 313 814 l 150 997 z "},"ç":{"ha":681,"x_min":58,"x_max":657,"o":"m 395 -69 q 483 -99 453 -73 q 512 -168 512 -125 q 326 -289 512 -289 q 265 -286 288 -289 l 265 -210 q 323 -214 298 -214 q 400 -203 377 -214 q 423 -171 423 -192 q 329 -132 423 -132 q 290 -134 302 -132 l 335 -10 q 178 57 239 3 q 87 192 116 111 q 58 368 58 273 q 105 584 58 498 q 228 708 153 669 q 392 747 304 747 q 539 718 479 747 q 652 628 600 688 l 566 550 q 487 619 525 597 q 390 640 448 640 q 238 568 291 640 q 186 371 186 495 q 234 173 186 250 q 389 96 281 96 q 461 106 429 96 q 523 136 494 117 q 591 184 552 154 l 657 94 q 417 -13 550 -4 l 395 -69 z "},"ĉ":{"ha":681,"x_min":58,"x_max":657,"o":"m 392 -14 q 202 39 277 -14 q 93 178 127 92 q 58 368 58 264 q 105 584 58 498 q 228 708 153 669 q 392 747 304 747 q 539 718 479 747 q 652 628 600 688 l 566 550 q 487 619 525 597 q 390 640 448 640 q 238 568 291 640 q 186 371 186 495 q 234 173 186 250 q 389 96 281 96 q 461 106 429 96 q 523 136 494 117 q 591 184 552 154 l 657 94 q 545 19 610 51 q 392 -14 479 -14 m 150 828 l 313 1011 l 443 1011 l 599 828 l 599 814 l 500 814 l 379 929 l 378 929 l 248 814 l 150 814 l 150 828 z "},"ċ":{"ha":681,"x_min":58,"x_max":657,"o":"m 392 -14 q 202 39 277 -14 q 93 178 127 92 q 58 368 58 264 q 105 584 58 498 q 228 708 153 669 q 392 747 304 747 q 539 718 479 747 q 652 628 600 688 l 566 550 q 487 619 525 597 q 390 640 448 640 q 238 568 291 640 q 186 371 186 495 q 234 173 186 250 q 389 96 281 96 q 461 106 429 96 q 523 136 494 117 q 591 184 552 154 l 657 94 q 545 19 610 51 q 392 -14 479 -14 m 375 832 q 321 853 343 832 q 300 907 300 875 q 322 959 300 937 q 375 981 344 981 q 428 959 406 981 q 450 907 450 937 q 428 853 450 875 q 375 832 406 832 z "},"d":{"ha":793,"x_min":58,"x_max":704,"o":"m 354 -14 q 133 87 207 -14 q 58 364 58 189 q 93 566 58 480 q 197 700 127 652 q 367 747 267 747 q 493 719 437 747 q 578 633 549 691 l 579 633 q 578 722 578 648 l 578 1007 l 700 1007 l 700 151 q 701 62 700 104 q 704 0 703 21 l 587 0 q 583 44 585 12 q 581 110 581 77 l 578 110 q 487 17 545 48 q 354 -14 429 -14 m 372 94 q 523 161 467 94 q 578 376 578 229 q 524 580 578 517 q 382 643 471 643 q 186 368 186 643 q 231 166 186 238 q 372 94 276 94 z "},"ð":{"ha":772,"x_min":58,"x_max":721,"o":"m 502 868 q 666 631 610 764 q 721 350 721 498 l 721 346 q 683 160 721 241 q 568 33 644 79 q 383 -14 492 -14 q 208 32 281 -14 q 96 154 134 77 q 58 326 58 231 q 95 496 58 419 q 205 618 131 572 q 389 664 279 664 q 476 653 435 664 q 546 624 516 643 q 410 829 485 744 l 182 730 l 182 822 l 347 892 q 241 962 293 937 l 288 1018 q 432 928 363 981 l 631 1013 l 631 924 l 502 868 m 382 90 q 537 152 482 90 q 593 326 593 214 q 541 498 593 437 q 392 559 489 559 q 239 497 293 559 q 186 326 186 434 q 211 200 186 254 q 280 119 235 147 q 382 90 324 90 z "},"ď":{"ha":864,"x_min":58,"x_max":892,"o":"m 354 -14 q 133 87 207 -14 q 58 364 58 189 q 93 566 58 480 q 197 700 127 652 q 367 747 267 747 q 493 719 437 747 q 578 633 549 691 l 579 633 q 578 722 578 648 l 578 1007 l 700 1007 l 700 151 q 701 62 700 104 q 704 0 703 21 l 587 0 q 583 44 585 12 q 581 110 581 77 l 578 110 q 487 17 545 48 q 354 -14 429 -14 m 372 94 q 523 161 467 94 q 578 376 578 229 q 524 580 578 517 q 382 643 471 643 q 186 368 186 643 q 231 166 186 238 q 372 94 276 94 m 772 811 q 811 885 805 854 q 772 906 785 890 q 760 947 760 922 q 777 990 760 972 q 819 1007 793 1007 q 872 986 853 1007 q 892 928 892 965 q 872 846 892 883 q 819 772 852 809 l 772 811 z "},"đ":{"ha":793,"x_min":58,"x_max":789,"o":"m 700 818 l 700 151 q 701 62 700 104 q 704 0 703 21 l 587 0 q 583 44 585 12 q 581 110 581 77 l 578 110 q 487 17 545 48 q 354 -14 429 -14 q 133 87 207 -14 q 58 364 58 189 q 93 566 58 480 q 197 700 127 652 q 367 747 267 747 q 493 719 437 747 q 578 633 549 691 l 579 633 q 578 722 578 648 l 578 818 l 374 818 l 374 907 l 578 907 l 578 1007 l 700 1007 l 700 907 l 789 907 l 789 818 l 700 818 m 372 94 q 523 161 467 94 q 578 376 578 229 q 524 580 578 517 q 382 643 471 643 q 186 368 186 643 q 231 166 186 238 q 372 94 276 94 z "},"e":{"ha":750,"x_min":58,"x_max":688,"o":"m 395 -14 q 212 34 288 -14 q 97 169 136 82 q 58 370 58 255 q 100 575 58 490 q 214 704 142 660 q 378 747 287 747 q 557 695 488 747 q 657 564 627 644 q 688 393 688 484 q 685 335 688 370 l 187 335 q 210 220 187 276 q 279 128 233 164 q 395 92 326 92 q 472 103 437 92 q 535 134 507 115 q 597 183 564 153 l 664 96 q 595 44 629 66 q 510 4 562 22 q 395 -14 458 -14 m 562 437 q 507 592 553 542 q 378 643 461 643 q 291 622 332 643 q 221 554 249 600 q 189 437 193 508 l 562 437 z "},"é":{"ha":750,"x_min":58,"x_max":688,"o":"m 395 -14 q 212 34 288 -14 q 97 169 136 82 q 58 370 58 255 q 100 575 58 490 q 214 704 142 660 q 378 747 287 747 q 557 695 488 747 q 657 564 627 644 q 688 393 688 484 q 685 335 688 370 l 187 335 q 210 220 187 276 q 279 128 233 164 q 395 92 326 92 q 472 103 437 92 q 535 134 507 115 q 597 183 564 153 l 664 96 q 595 44 629 66 q 510 4 562 22 q 395 -14 458 -14 m 562 437 q 507 592 553 542 q 378 643 461 643 q 291 622 332 643 q 221 554 249 600 q 189 437 193 508 l 562 437 m 288 828 l 435 1022 l 575 1022 l 575 1003 l 379 814 l 288 814 l 288 828 z "},"ĕ":{"ha":750,"x_min":58,"x_max":688,"o":"m 395 -14 q 212 34 288 -14 q 97 169 136 82 q 58 370 58 255 q 100 575 58 490 q 214 704 142 660 q 378 747 287 747 q 557 695 488 747 q 657 564 627 644 q 688 393 688 484 q 685 335 688 370 l 187 335 q 210 220 187 276 q 279 128 233 164 q 395 92 326 92 q 472 103 437 92 q 535 134 507 115 q 597 183 564 153 l 664 96 q 595 44 629 66 q 510 4 562 22 q 395 -14 458 -14 m 562 437 q 507 592 553 542 q 378 643 461 643 q 291 622 332 643 q 221 554 249 600 q 189 437 193 508 l 562 437 m 375 814 q 263 843 311 814 q 186 919 214 871 q 150 1023 157 967 l 257 1023 q 297 945 266 968 q 376 921 328 921 q 455 945 425 921 q 494 1023 486 969 l 602 1023 q 565 919 593 966 q 489 843 537 871 q 375 814 441 814 z "},"ě":{"ha":750,"x_min":58,"x_max":688,"o":"m 395 -14 q 212 34 288 -14 q 97 169 136 82 q 58 370 58 255 q 100 575 58 490 q 214 704 142 660 q 378 747 287 747 q 557 695 488 747 q 657 564 627 644 q 688 393 688 484 q 685 335 688 370 l 187 335 q 210 220 187 276 q 279 128 233 164 q 395 92 326 92 q 472 103 437 92 q 535 134 507 115 q 597 183 564 153 l 664 96 q 595 44 629 66 q 510 4 562 22 q 395 -14 458 -14 m 562 437 q 507 592 553 542 q 378 643 461 643 q 291 622 332 643 q 221 554 249 600 q 189 437 193 508 l 562 437 m 151 997 l 151 1011 l 250 1011 l 379 897 l 380 897 l 501 1011 l 600 1011 l 600 997 l 444 814 l 314 814 l 151 997 z "},"ê":{"ha":750,"x_min":58,"x_max":688,"o":"m 395 -14 q 212 34 288 -14 q 97 169 136 82 q 58 370 58 255 q 100 575 58 490 q 214 704 142 660 q 378 747 287 747 q 557 695 488 747 q 657 564 627 644 q 688 393 688 484 q 685 335 688 370 l 187 335 q 210 220 187 276 q 279 128 233 164 q 395 92 326 92 q 472 103 437 92 q 535 134 507 115 q 597 183 564 153 l 664 96 q 595 44 629 66 q 510 4 562 22 q 395 -14 458 -14 m 562 437 q 507 592 553 542 q 378 643 461 643 q 291 622 332 643 q 221 554 249 600 q 189 437 193 508 l 562 437 m 151 828 l 314 1011 l 444 1011 l 600 828 l 600 814 l 501 814 l 380 929 l 379 929 l 250 814 l 151 814 l 151 828 z "},"ë":{"ha":750,"x_min":58,"x_max":688,"o":"m 395 -14 q 212 34 288 -14 q 97 169 136 82 q 58 370 58 255 q 100 575 58 490 q 214 704 142 660 q 378 747 287 747 q 557 695 488 747 q 657 564 627 644 q 688 393 688 484 q 685 335 688 370 l 187 335 q 210 220 187 276 q 279 128 233 164 q 395 92 326 92 q 472 103 437 92 q 535 134 507 115 q 597 183 564 153 l 664 96 q 595 44 629 66 q 510 4 562 22 q 395 -14 458 -14 m 562 437 q 507 592 553 542 q 378 643 461 643 q 291 622 332 643 q 221 554 249 600 q 189 437 193 508 l 562 437 m 245 839 q 196 859 216 839 q 176 908 176 879 q 196 959 176 938 q 245 979 216 979 q 295 959 275 979 q 315 908 315 938 q 295 859 315 879 q 245 839 275 839 m 505 839 q 456 859 476 839 q 436 908 436 879 q 456 959 436 938 q 505 979 476 979 q 554 959 534 979 q 574 908 574 938 q 554 859 574 879 q 505 839 534 839 z "},"ė":{"ha":750,"x_min":58,"x_max":688,"o":"m 395 -14 q 212 34 288 -14 q 97 169 136 82 q 58 370 58 255 q 100 575 58 490 q 214 704 142 660 q 378 747 287 747 q 557 695 488 747 q 657 564 627 644 q 688 393 688 484 q 685 335 688 370 l 187 335 q 210 220 187 276 q 279 128 233 164 q 395 92 326 92 q 472 103 437 92 q 535 134 507 115 q 597 183 564 153 l 664 96 q 595 44 629 66 q 510 4 562 22 q 395 -14 458 -14 m 562 437 q 507 592 553 542 q 378 643 461 643 q 291 622 332 643 q 221 554 249 600 q 189 437 193 508 l 562 437 m 376 832 q 323 853 345 832 q 301 907 301 875 q 323 959 301 937 q 376 981 345 981 q 429 959 408 981 q 451 907 451 937 q 429 853 451 875 q 376 832 408 832 z "},"è":{"ha":750,"x_min":58,"x_max":688,"o":"m 395 -14 q 212 34 288 -14 q 97 169 136 82 q 58 370 58 255 q 100 575 58 490 q 214 704 142 660 q 378 747 287 747 q 557 695 488 747 q 657 564 627 644 q 688 393 688 484 q 685 335 688 370 l 187 335 q 210 220 187 276 q 279 128 233 164 q 395 92 326 92 q 472 103 437 92 q 535 134 507 115 q 597 183 564 153 l 664 96 q 595 44 629 66 q 510 4 562 22 q 395 -14 458 -14 m 562 437 q 507 592 553 542 q 378 643 461 643 q 291 622 332 643 q 221 554 249 600 q 189 437 193 508 l 562 437 m 184 1003 l 184 1022 l 325 1022 l 472 828 l 472 814 l 380 814 l 184 1003 z "},"ē":{"ha":750,"x_min":58,"x_max":688,"o":"m 395 -14 q 212 34 288 -14 q 97 169 136 82 q 58 370 58 255 q 100 575 58 490 q 214 704 142 660 q 378 747 287 747 q 557 695 488 747 q 657 564 627 644 q 688 393 688 484 q 685 335 688 370 l 187 335 q 210 220 187 276 q 279 128 233 164 q 395 92 326 92 q 472 103 437 92 q 535 134 507 115 q 597 183 564 153 l 664 96 q 595 44 629 66 q 510 4 562 22 q 395 -14 458 -14 m 562 437 q 507 592 553 542 q 378 643 461 643 q 291 622 332 643 q 221 554 249 600 q 189 437 193 508 l 562 437 m 190 925 l 562 925 l 562 839 l 190 839 l 190 925 z "},"ę":{"ha":750,"x_min":58,"x_max":688,"o":"m 688 393 q 685 335 688 370 l 187 335 q 210 220 187 276 q 279 128 233 164 q 395 92 326 92 q 472 103 437 92 q 535 134 507 115 q 597 183 564 153 l 664 96 q 587 39 625 63 q 496 0 549 15 l 498 0 q 428 -63 458 -22 q 397 -147 397 -103 q 414 -190 397 -175 q 461 -204 431 -204 q 539 -187 497 -204 l 539 -271 q 445 -289 499 -289 q 339 -255 376 -289 q 302 -163 302 -221 q 326 -77 302 -115 q 384 -14 351 -39 q 207 38 280 -11 q 96 172 134 86 q 58 370 58 257 q 100 575 58 490 q 214 704 142 660 q 378 747 287 747 q 557 695 488 747 q 657 564 627 644 q 688 393 688 484 m 562 437 q 507 592 553 542 q 378 643 461 643 q 291 622 332 643 q 221 554 249 600 q 189 437 193 508 l 562 437 z "},"f":{"ha":415,"x_min":26,"x_max":415,"o":"m 122 631 l 26 631 l 26 733 l 122 733 l 122 804 q 168 952 122 897 q 313 1007 214 1007 q 415 996 366 1007 l 404 890 q 368 896 382 894 q 328 897 353 897 q 262 872 279 897 q 244 787 244 846 l 244 733 l 407 733 l 407 631 l 244 631 l 244 0 l 122 0 l 122 631 z "},"g":{"ha":742,"x_min":45,"x_max":728,"o":"m 408 126 q 578 107 516 120 q 684 54 641 95 q 728 -72 728 12 q 636 -234 728 -179 q 368 -289 545 -289 q 123 -244 201 -289 q 45 -106 45 -199 q 71 -18 45 -57 q 148 58 96 20 q 96 164 96 94 q 114 236 96 203 q 164 292 133 269 q 101 376 123 326 q 79 486 79 425 q 112 618 79 559 q 209 712 144 677 q 367 747 274 747 q 534 709 466 747 q 609 778 568 755 q 707 802 650 802 l 710 802 l 717 679 l 714 679 q 596 656 643 679 q 638 579 624 623 q 652 486 652 536 q 618 358 652 416 q 519 265 585 300 q 363 231 454 231 q 231 254 290 231 q 215 231 220 241 q 210 204 210 220 q 233 158 210 173 q 293 137 256 143 q 408 126 330 132 m 368 652 q 248 607 292 652 q 204 486 204 562 q 247 367 204 408 q 361 326 290 326 q 448 347 411 326 q 506 403 486 367 q 526 486 526 439 q 484 607 526 562 q 368 652 441 652 m 375 -192 q 544 -167 488 -192 q 600 -78 600 -142 q 575 -26 600 -44 q 504 -1 549 -8 q 375 11 458 6 q 287 17 324 14 q 218 28 250 21 q 177 -29 189 -3 q 164 -87 164 -54 q 190 -153 164 -130 q 261 -184 216 -176 q 375 -192 306 -192 z "},"ğ":{"ha":742,"x_min":45,"x_max":728,"o":"m 408 126 q 578 107 516 120 q 684 54 641 95 q 728 -72 728 12 q 636 -234 728 -179 q 368 -289 545 -289 q 123 -244 201 -289 q 45 -106 45 -199 q 71 -18 45 -57 q 148 58 96 20 q 96 164 96 94 q 114 236 96 203 q 164 292 133 269 q 101 376 123 326 q 79 486 79 425 q 112 618 79 559 q 209 712 144 677 q 367 747 274 747 q 534 709 466 747 q 609 778 568 755 q 707 802 650 802 l 710 802 l 717 679 l 714 679 q 596 656 643 679 q 638 579 624 623 q 652 486 652 536 q 618 358 652 416 q 519 265 585 300 q 363 231 454 231 q 231 254 290 231 q 215 231 220 241 q 210 204 210 220 q 233 158 210 173 q 293 137 256 143 q 408 126 330 132 m 368 652 q 248 607 292 652 q 204 486 204 562 q 247 367 204 408 q 361 326 290 326 q 448 347 411 326 q 506 403 486 367 q 526 486 526 439 q 484 607 526 562 q 368 652 441 652 m 375 -192 q 544 -167 488 -192 q 600 -78 600 -142 q 575 -26 600 -44 q 504 -1 549 -8 q 375 11 458 6 q 287 17 324 14 q 218 28 250 21 q 177 -29 189 -3 q 164 -87 164 -54 q 190 -153 164 -130 q 261 -184 216 -176 q 375 -192 306 -192 m 355 814 q 243 843 292 814 q 166 919 195 871 q 130 1023 138 967 l 237 1023 q 277 945 246 968 q 357 921 308 921 q 436 945 406 921 q 475 1023 466 969 l 582 1023 q 545 919 573 966 q 469 843 517 871 q 355 814 421 814 z "},"ĝ":{"ha":742,"x_min":45,"x_max":728,"o":"m 408 126 q 578 107 516 120 q 684 54 641 95 q 728 -72 728 12 q 636 -234 728 -179 q 368 -289 545 -289 q 123 -244 201 -289 q 45 -106 45 -199 q 71 -18 45 -57 q 148 58 96 20 q 96 164 96 94 q 114 236 96 203 q 164 292 133 269 q 101 376 123 326 q 79 486 79 425 q 112 618 79 559 q 209 712 144 677 q 367 747 274 747 q 534 709 466 747 q 609 778 568 755 q 707 802 650 802 l 710 802 l 717 679 l 714 679 q 596 656 643 679 q 638 579 624 623 q 652 486 652 536 q 618 358 652 416 q 519 265 585 300 q 363 231 454 231 q 231 254 290 231 q 215 231 220 241 q 210 204 210 220 q 233 158 210 173 q 293 137 256 143 q 408 126 330 132 m 368 652 q 248 607 292 652 q 204 486 204 562 q 247 367 204 408 q 361 326 290 326 q 448 347 411 326 q 506 403 486 367 q 526 486 526 439 q 484 607 526 562 q 368 652 441 652 m 375 -192 q 544 -167 488 -192 q 600 -78 600 -142 q 575 -26 600 -44 q 504 -1 549 -8 q 375 11 458 6 q 287 17 324 14 q 218 28 250 21 q 177 -29 189 -3 q 164 -87 164 -54 q 190 -153 164 -130 q 261 -184 216 -176 q 375 -192 306 -192 m 132 828 l 294 1011 l 425 1011 l 581 828 l 581 814 l 481 814 l 361 929 l 359 929 l 230 814 l 132 814 l 132 828 z "},"ģ":{"ha":742,"x_min":45,"x_max":728,"o":"m 408 126 q 578 107 516 120 q 684 54 641 95 q 728 -72 728 12 q 636 -234 728 -179 q 368 -289 545 -289 q 123 -244 201 -289 q 45 -106 45 -199 q 71 -18 45 -57 q 148 58 96 20 q 96 164 96 94 q 114 236 96 203 q 164 292 133 269 q 101 376 123 326 q 79 486 79 425 q 112 618 79 559 q 209 712 144 677 q 367 747 274 747 q 534 709 466 747 q 609 778 568 755 q 707 802 650 802 l 710 802 l 717 679 l 714 679 q 596 656 643 679 q 638 579 624 623 q 652 486 652 536 q 618 358 652 416 q 519 265 585 300 q 363 231 454 231 q 231 254 290 231 q 215 231 220 241 q 210 204 210 220 q 233 158 210 173 q 293 137 256 143 q 408 126 330 132 m 368 652 q 248 607 292 652 q 204 486 204 562 q 247 367 204 408 q 361 326 290 326 q 448 347 411 326 q 506 403 486 367 q 526 486 526 439 q 484 607 526 562 q 368 652 441 652 m 375 -192 q 544 -167 488 -192 q 600 -78 600 -142 q 575 -26 600 -44 q 504 -1 549 -8 q 375 11 458 6 q 287 17 324 14 q 218 28 250 21 q 177 -29 189 -3 q 164 -87 164 -54 q 190 -153 164 -130 q 261 -184 216 -176 q 375 -192 306 -192 m 364 831 q 313 851 332 831 q 294 909 294 872 q 314 991 294 955 q 367 1065 334 1028 l 414 1026 q 375 953 381 983 q 414 932 401 948 q 427 890 427 916 q 409 848 427 865 q 364 831 391 831 z "},"ġ":{"ha":742,"x_min":45,"x_max":728,"o":"m 408 126 q 578 107 516 120 q 684 54 641 95 q 728 -72 728 12 q 636 -234 728 -179 q 368 -289 545 -289 q 123 -244 201 -289 q 45 -106 45 -199 q 71 -18 45 -57 q 148 58 96 20 q 96 164 96 94 q 114 236 96 203 q 164 292 133 269 q 101 376 123 326 q 79 486 79 425 q 112 618 79 559 q 209 712 144 677 q 367 747 274 747 q 534 709 466 747 q 609 778 568 755 q 707 802 650 802 l 710 802 l 717 679 l 714 679 q 596 656 643 679 q 638 579 624 623 q 652 486 652 536 q 618 358 652 416 q 519 265 585 300 q 363 231 454 231 q 231 254 290 231 q 215 231 220 241 q 210 204 210 220 q 233 158 210 173 q 293 137 256 143 q 408 126 330 132 m 368 652 q 248 607 292 652 q 204 486 204 562 q 247 367 204 408 q 361 326 290 326 q 448 347 411 326 q 506 403 486 367 q 526 486 526 439 q 484 607 526 562 q 368 652 441 652 m 375 -192 q 544 -167 488 -192 q 600 -78 600 -142 q 575 -26 600 -44 q 504 -1 549 -8 q 375 11 458 6 q 287 17 324 14 q 218 28 250 21 q 177 -29 189 -3 q 164 -87 164 -54 q 190 -153 164 -130 q 261 -184 216 -176 q 375 -192 306 -192 m 357 832 q 303 853 325 832 q 281 907 281 875 q 303 959 281 937 q 357 981 326 981 q 410 959 388 981 q 431 907 431 937 q 410 853 431 875 q 357 832 388 832 z "},"h":{"ha":772,"x_min":96,"x_max":682,"o":"m 96 1007 l 218 1007 l 218 745 q 216 665 218 706 q 212 608 214 623 l 215 608 q 311 715 256 682 q 450 747 367 747 q 630 673 578 747 q 682 489 682 600 l 682 0 l 559 0 l 559 465 q 528 591 559 544 q 408 639 496 639 q 308 614 351 639 q 242 542 265 589 q 218 433 218 496 l 218 0 l 96 0 l 96 1007 z "},"ħ":{"ha":772,"x_min":7,"x_max":682,"o":"m 450 747 q 630 673 578 747 q 682 489 682 600 l 682 0 l 559 0 l 559 465 q 528 591 559 544 q 408 639 496 639 q 308 614 351 639 q 242 542 265 589 q 218 433 218 496 l 218 0 l 96 0 l 96 818 l 7 818 l 7 907 l 96 907 l 96 1007 l 218 1007 l 218 907 l 422 907 l 422 818 l 218 818 l 218 745 q 216 665 218 706 q 212 608 214 623 l 215 608 q 311 715 256 682 q 450 747 367 747 z "},"ĥ":{"ha":772,"x_min":96,"x_max":682,"o":"m 96 1007 l 218 1007 l 218 745 q 216 665 218 706 q 212 608 214 623 l 215 608 q 311 715 256 682 q 450 747 367 747 q 630 673 578 747 q 682 489 682 600 l 682 0 l 559 0 l 559 465 q 528 591 559 544 q 408 639 496 639 q 308 614 351 639 q 242 542 265 589 q 218 433 218 496 l 218 0 l 96 0 l 96 1007 m 203 1051 l 361 1214 l 500 1214 l 652 1051 l 652 1038 l 553 1038 l 433 1132 l 431 1132 l 302 1038 l 203 1038 l 203 1051 z "},"i":{"ha":309,"x_min":72,"x_max":235,"o":"m 154 869 q 95 893 119 869 q 72 951 72 916 q 95 1010 72 987 q 154 1034 119 1034 q 212 1010 189 1034 q 235 951 235 987 q 212 893 235 917 q 154 869 189 869 m 93 733 l 215 733 l 215 0 l 93 0 l 93 733 z "},"ı":{"ha":309,"x_min":93,"x_max":215,"o":"m 93 733 l 215 733 l 215 0 l 93 0 l 93 733 z "},"í":{"ha":386,"x_min":93,"x_max":392,"o":"m 93 733 l 215 733 l 215 0 l 93 0 l 93 733 m 104 828 l 252 1022 l 392 1022 l 392 1003 l 196 814 l 104 814 l 104 828 z "},"ĭ":{"ha":386,"x_min":-33,"x_max":418,"o":"m 93 733 l 215 733 l 215 0 l 93 0 l 93 733 m 192 814 q 80 843 128 814 q 3 919 31 871 q -33 1023 -26 967 l 74 1023 q 114 945 83 968 q 193 921 144 921 q 272 945 242 921 q 311 1023 302 969 l 418 1023 q 382 919 410 966 q 306 843 354 871 q 192 814 258 814 z "},"î":{"ha":386,"x_min":-32,"x_max":417,"o":"m 93 733 l 215 733 l 215 0 l 93 0 l 93 733 m -32 828 l 131 1011 l 261 1011 l 417 828 l 417 814 l 318 814 l 197 929 l 196 929 l 66 814 l -32 814 l -32 828 z "},"ï":{"ha":386,"x_min":-7,"x_max":391,"o":"m 93 733 l 215 733 l 215 0 l 93 0 l 93 733 m 62 839 q 13 859 33 839 q -7 908 -7 879 q 13 959 -7 938 q 62 979 33 979 q 112 959 92 979 q 132 908 132 938 q 112 859 132 879 q 62 839 92 839 m 322 839 q 273 859 293 839 q 253 908 253 879 q 273 959 253 938 q 322 979 293 979 q 371 959 351 979 q 391 908 391 938 q 371 859 391 879 q 322 839 351 839 z "},"ì":{"ha":386,"x_min":1,"x_max":289,"o":"m 93 733 l 215 733 l 215 0 l 93 0 l 93 733 m 1 1003 l 1 1022 l 142 1022 l 289 828 l 289 814 l 197 814 l 1 1003 z "},"ĳ":{"ha":617,"x_min":72,"x_max":543,"o":"m 154 869 q 95 893 119 869 q 72 951 72 916 q 95 1010 72 987 q 154 1034 119 1034 q 212 1010 189 1034 q 235 951 235 987 q 212 893 235 917 q 154 869 189 869 m 93 733 l 215 733 l 215 0 l 93 0 l 93 733 m 463 869 q 404 893 427 869 q 380 951 380 916 q 404 1010 380 987 q 463 1034 427 1034 q 520 1010 497 1034 q 543 951 543 987 q 520 893 543 917 q 463 869 497 869 m 361 -289 q 275 -282 307 -289 l 283 -174 q 322 -178 303 -178 q 371 -167 354 -178 q 395 -133 388 -156 q 401 -72 401 -111 l 401 733 l 524 733 l 524 -90 q 488 -236 524 -184 q 361 -289 452 -289 z "},"ī":{"ha":386,"x_min":7,"x_max":379,"o":"m 93 733 l 215 733 l 215 0 l 93 0 l 93 733 m 7 925 l 379 925 l 379 839 l 7 839 l 7 925 z "},"į":{"ha":309,"x_min":20,"x_max":257,"o":"m 154 869 q 95 893 119 869 q 72 951 72 916 q 95 1010 72 987 q 154 1034 119 1034 q 212 1010 189 1034 q 235 951 235 987 q 212 893 235 917 q 154 869 189 869 m 179 -204 q 257 -187 215 -204 l 257 -271 q 163 -289 217 -289 q 56 -255 93 -289 q 20 -163 20 -221 q 49 -69 20 -111 q 118 0 78 -28 l 93 0 l 93 733 l 215 733 l 215 0 l 214 0 q 145 -63 175 -22 q 115 -147 115 -103 q 132 -190 115 -175 q 179 -204 149 -204 z "},"ĩ":{"ha":386,"x_min":-50,"x_max":436,"o":"m 93 733 l 215 733 l 215 0 l 93 0 l 93 733 m -50 814 q -13 945 -41 894 q 87 996 16 996 q 144 984 116 996 q 211 949 172 972 q 260 924 243 932 q 294 916 278 916 q 346 996 339 916 l 436 996 q 418 906 430 945 q 378 841 406 868 q 299 814 349 814 q 244 826 271 814 q 179 860 217 838 q 127 887 146 878 q 92 896 109 896 q 56 876 68 896 q 39 814 43 855 l -50 814 z "},"j":{"ha":309,"x_min":-33,"x_max":235,"o":"m 154 869 q 95 893 119 869 q 72 951 72 916 q 95 1010 72 987 q 154 1034 119 1034 q 212 1010 189 1034 q 235 951 235 987 q 212 893 235 917 q 154 869 189 869 m 53 -289 q -33 -282 -2 -289 l -25 -174 q 14 -178 -5 -178 q 62 -167 45 -178 q 86 -133 79 -156 q 93 -72 93 -111 l 93 733 l 215 733 l 215 -90 q 179 -236 215 -184 q 53 -289 143 -289 z "},"ȷ":{"ha":309,"x_min":-33,"x_max":215,"o":"m 53 -289 q -33 -282 -2 -289 l -25 -174 q 14 -178 -5 -178 q 62 -167 45 -178 q 86 -133 79 -156 q 93 -72 93 -111 l 93 733 l 215 733 l 215 -90 q 179 -236 215 -184 q 53 -289 143 -289 z "},"ĵ":{"ha":309,"x_min":-71,"x_max":378,"o":"m 53 -289 q -33 -282 -2 -289 l -25 -174 q 14 -178 -5 -178 q 62 -167 45 -178 q 86 -133 79 -156 q 93 -72 93 -111 l 93 733 l 215 733 l 215 -90 q 179 -236 215 -184 q 53 -289 143 -289 m -71 828 l 92 1011 l 222 1011 l 378 828 l 378 814 l 279 814 l 158 929 l 157 929 l 27 814 l -71 814 l -71 828 z "},"k":{"ha":694,"x_min":93,"x_max":696,"o":"m 93 1007 l 215 1007 l 215 385 l 530 733 l 681 733 l 383 418 l 696 0 l 550 0 l 306 335 l 215 256 l 215 0 l 93 0 l 93 1007 z "},"ķ":{"ha":694,"x_min":93,"x_max":696,"o":"m 93 1007 l 215 1007 l 215 385 l 530 733 l 681 733 l 383 418 l 696 0 l 550 0 l 306 335 l 215 256 l 215 0 l 93 0 l 93 1007 m 328 -256 q 352 -217 342 -235 q 364 -179 361 -198 q 324 -158 339 -175 q 309 -117 309 -141 q 326 -74 309 -91 q 371 -57 344 -57 q 423 -79 404 -57 q 442 -140 442 -100 q 425 -219 442 -183 q 378 -292 407 -254 l 328 -256 z "},"ĸ":{"ha":694,"x_min":93,"x_max":696,"o":"m 93 733 l 215 733 l 215 383 l 532 733 l 681 733 l 383 418 l 696 0 l 553 0 l 306 335 l 215 256 l 215 0 l 93 0 l 93 733 z "},"l":{"ha":355,"x_min":89,"x_max":346,"o":"m 236 -11 q 89 170 89 -11 l 89 1007 l 211 1007 l 211 196 q 223 121 211 142 q 264 100 235 100 q 294 102 279 100 q 330 110 308 104 l 346 5 q 292 -7 317 -3 q 236 -11 267 -11 z "},"ĺ":{"ha":355,"x_min":53,"x_max":346,"o":"m 236 -11 q 89 170 89 -11 l 89 1007 l 211 1007 l 211 196 q 223 121 211 142 q 264 100 235 100 q 294 102 279 100 q 330 110 308 104 l 346 5 q 292 -7 317 -3 q 236 -11 267 -11 m 53 1051 l 200 1204 l 340 1204 l 340 1185 l 158 1038 l 53 1038 l 53 1051 z "},"ľ":{"ha":376,"x_min":89,"x_max":404,"o":"m 236 -11 q 89 170 89 -11 l 89 1007 l 211 1007 l 211 196 q 223 121 211 142 q 264 100 235 100 q 294 102 279 100 q 330 110 308 104 l 346 5 q 292 -7 317 -3 q 236 -11 267 -11 m 284 811 q 323 885 317 854 q 285 906 298 890 q 272 947 272 922 q 289 990 272 972 q 332 1007 306 1007 q 385 986 366 1007 q 404 928 404 965 q 384 846 404 883 q 332 772 364 809 l 284 811 z "},"ļ":{"ha":355,"x_min":89,"x_max":346,"o":"m 236 -11 q 89 170 89 -11 l 89 1007 l 211 1007 l 211 196 q 223 121 211 142 q 264 100 235 100 q 294 102 279 100 q 330 110 308 104 l 346 5 q 292 -7 317 -3 q 236 -11 267 -11 m 159 -256 q 182 -217 173 -235 q 195 -179 192 -198 q 154 -158 170 -175 q 139 -117 139 -141 q 157 -74 139 -91 q 201 -57 174 -57 q 254 -79 235 -57 q 273 -140 273 -100 q 255 -219 273 -183 q 208 -292 237 -254 l 159 -256 z "},"ŀ":{"ha":444,"x_min":89,"x_max":458,"o":"m 236 -11 q 89 170 89 -11 l 89 1007 l 211 1007 l 211 196 q 223 121 211 142 q 264 100 235 100 q 294 102 279 100 q 330 110 308 104 l 346 5 q 292 -7 317 -3 q 236 -11 267 -11 m 384 407 q 330 428 352 407 q 309 481 309 450 q 331 534 309 512 q 384 555 353 555 q 437 534 415 555 q 458 481 458 512 q 437 428 458 450 q 384 407 415 407 z "},"ł":{"ha":359,"x_min":11,"x_max":350,"o":"m 350 5 q 296 -7 321 -3 q 240 -11 271 -11 q 93 170 93 -11 l 93 424 l 11 376 l 11 485 l 93 530 l 93 1007 l 215 1007 l 215 602 l 300 650 l 300 542 l 215 493 l 215 196 q 227 121 215 142 q 268 100 239 100 q 298 102 283 100 q 334 110 312 104 l 350 5 z "},"m":{"ha":1157,"x_min":92,"x_max":1065,"o":"m 96 578 q 94 672 96 620 q 92 733 93 724 l 207 733 q 211 674 209 715 q 212 608 212 633 l 215 608 q 429 747 285 747 q 558 712 505 747 q 629 608 611 677 l 631 608 q 721 711 663 674 q 852 747 778 747 q 1011 685 958 747 q 1065 489 1065 623 l 1065 0 l 945 0 l 945 465 q 911 600 945 561 q 810 639 878 639 q 726 614 765 639 q 665 542 688 590 q 642 425 642 493 l 642 0 l 521 0 l 521 465 q 488 600 521 561 q 386 639 454 639 q 303 613 341 639 q 241 539 264 588 q 218 425 218 491 l 218 0 l 96 0 l 96 578 z "},"n":{"ha":772,"x_min":92,"x_max":682,"o":"m 96 578 q 94 672 96 620 q 92 733 93 724 l 207 733 q 211 674 209 715 q 212 608 212 633 l 215 608 q 306 712 252 677 q 450 747 360 747 q 625 679 568 747 q 682 489 682 610 l 682 0 l 559 0 l 559 465 q 524 594 559 550 q 408 639 489 639 q 308 614 351 639 q 242 541 265 589 q 218 425 218 493 l 218 0 l 96 0 l 96 578 z "},"ń":{"ha":772,"x_min":92,"x_max":682,"o":"m 96 578 q 94 672 96 620 q 92 733 93 724 l 207 733 q 211 674 209 715 q 212 608 212 633 l 215 608 q 306 712 252 677 q 450 747 360 747 q 625 679 568 747 q 682 489 682 610 l 682 0 l 559 0 l 559 465 q 524 594 559 550 q 408 639 489 639 q 308 614 351 639 q 242 541 265 589 q 218 425 218 493 l 218 0 l 96 0 l 96 578 m 319 828 l 467 1022 l 607 1022 l 607 1003 l 411 814 l 319 814 l 319 828 z "},"ŉ":{"ha":835,"x_min":-28,"x_max":745,"o":"m 158 578 q 157 672 158 620 q 154 733 155 724 l 269 733 q 273 674 271 715 q 275 608 275 633 l 277 608 q 369 712 315 677 q 513 747 422 747 q 687 679 630 747 q 745 489 745 610 l 745 0 l 622 0 l 622 465 q 587 594 622 550 q 471 639 551 639 q 370 614 413 639 q 304 541 328 589 q 281 425 281 493 l 281 0 l 158 0 l 158 578 m -28 665 q 18 738 -1 703 q 41 811 36 773 q -4 839 13 817 q -21 895 -21 861 q -1 951 -21 929 q 51 974 19 974 q 108 947 87 974 q 129 869 129 920 q 101 745 129 802 q 28 627 74 688 l -28 665 z "},"ň":{"ha":772,"x_min":92,"x_max":682,"o":"m 96 578 q 94 672 96 620 q 92 733 93 724 l 207 733 q 211 674 209 715 q 212 608 212 633 l 215 608 q 306 712 252 677 q 450 747 360 747 q 625 679 568 747 q 682 489 682 610 l 682 0 l 559 0 l 559 465 q 524 594 559 550 q 408 639 489 639 q 308 614 351 639 q 242 541 265 589 q 218 425 218 493 l 218 0 l 96 0 l 96 578 m 183 997 l 183 1011 l 281 1011 l 411 897 l 412 897 l 533 1011 l 632 1011 l 632 997 l 476 814 l 346 814 l 183 997 z "},"ņ":{"ha":772,"x_min":92,"x_max":682,"o":"m 96 578 q 94 672 96 620 q 92 733 93 724 l 207 733 q 211 674 209 715 q 212 608 212 633 l 215 608 q 306 712 252 677 q 450 747 360 747 q 625 679 568 747 q 682 489 682 610 l 682 0 l 559 0 l 559 465 q 524 594 559 550 q 408 639 489 639 q 308 614 351 639 q 242 541 265 589 q 218 425 218 493 l 218 0 l 96 0 l 96 578 m 339 -256 q 363 -217 353 -235 q 375 -179 372 -198 q 335 -158 350 -175 q 319 -117 319 -141 q 337 -74 319 -91 q 382 -57 355 -57 q 434 -79 415 -57 q 453 -140 453 -100 q 435 -219 453 -183 q 389 -292 418 -254 l 339 -256 z "},"ŋ":{"ha":772,"x_min":92,"x_max":682,"o":"m 450 747 q 625 679 568 747 q 682 489 682 610 l 682 -90 q 646 -236 682 -184 q 519 -289 610 -289 q 433 -282 465 -289 l 441 -174 q 481 -178 461 -178 q 530 -167 513 -178 q 553 -133 547 -156 q 559 -72 559 -111 l 559 465 q 524 594 559 550 q 408 639 489 639 q 308 614 351 639 q 242 541 265 589 q 218 425 218 493 l 218 0 l 96 0 l 96 578 q 94 672 96 620 q 92 733 93 724 l 207 733 q 211 674 209 715 q 212 608 212 633 l 215 608 q 306 712 252 677 q 450 747 360 747 z "},"ñ":{"ha":772,"x_min":92,"x_max":682,"o":"m 96 578 q 94 672 96 620 q 92 733 93 724 l 207 733 q 211 674 209 715 q 212 608 212 633 l 215 608 q 306 712 252 677 q 450 747 360 747 q 625 679 568 747 q 682 489 682 610 l 682 0 l 559 0 l 559 465 q 524 594 559 550 q 408 639 489 639 q 308 614 351 639 q 242 541 265 589 q 218 425 218 493 l 218 0 l 96 0 l 96 578 m 165 814 q 202 945 174 894 q 302 996 231 996 q 359 984 331 996 q 426 949 387 972 q 475 924 458 932 q 509 916 493 916 q 561 996 554 916 l 651 996 q 633 906 645 945 q 593 841 621 868 q 514 814 564 814 q 459 826 486 814 q 394 860 432 838 q 342 887 361 878 q 307 896 323 896 q 271 876 283 896 q 254 814 258 855 l 165 814 z "},"o":{"ha":772,"x_min":58,"x_max":714,"o":"m 383 -14 q 209 34 282 -14 q 97 167 136 81 q 58 368 58 253 q 96 567 58 481 q 207 700 133 652 q 387 747 281 747 q 633 646 552 747 q 714 368 714 545 q 676 167 714 253 q 564 34 638 81 q 383 -14 489 -14 m 382 90 q 532 159 479 90 q 586 368 586 228 q 535 575 586 507 q 389 643 484 643 q 239 573 293 643 q 186 368 186 504 q 211 214 186 276 q 281 121 237 151 q 382 90 325 90 z "},"ó":{"ha":772,"x_min":58,"x_max":714,"o":"m 383 -14 q 209 34 282 -14 q 97 167 136 81 q 58 368 58 253 q 96 567 58 481 q 207 700 133 652 q 387 747 281 747 q 633 646 552 747 q 714 368 714 545 q 676 167 714 253 q 564 34 638 81 q 383 -14 489 -14 m 382 90 q 532 159 479 90 q 586 368 586 228 q 535 575 586 507 q 389 643 484 643 q 239 573 293 643 q 186 368 186 504 q 211 214 186 276 q 281 121 237 151 q 382 90 325 90 m 297 828 l 444 1022 l 585 1022 l 585 1003 l 389 814 l 297 814 l 297 828 z "},"ŏ":{"ha":772,"x_min":58,"x_max":714,"o":"m 383 -14 q 209 34 282 -14 q 97 167 136 81 q 58 368 58 253 q 96 567 58 481 q 207 700 133 652 q 387 747 281 747 q 633 646 552 747 q 714 368 714 545 q 676 167 714 253 q 564 34 638 81 q 383 -14 489 -14 m 382 90 q 532 159 479 90 q 586 368 586 228 q 535 575 586 507 q 389 643 484 643 q 239 573 293 643 q 186 368 186 504 q 211 214 186 276 q 281 121 237 151 q 382 90 325 90 m 385 814 q 272 843 321 814 q 195 919 224 871 q 159 1023 167 967 l 267 1023 q 306 945 275 968 q 386 921 337 921 q 465 945 435 921 q 504 1023 495 969 l 611 1023 q 574 919 602 966 q 498 843 547 871 q 385 814 450 814 z "},"ô":{"ha":772,"x_min":58,"x_max":714,"o":"m 383 -14 q 209 34 282 -14 q 97 167 136 81 q 58 368 58 253 q 96 567 58 481 q 207 700 133 652 q 387 747 281 747 q 633 646 552 747 q 714 368 714 545 q 676 167 714 253 q 564 34 638 81 q 383 -14 489 -14 m 382 90 q 532 159 479 90 q 586 368 586 228 q 535 575 586 507 q 389 643 484 643 q 239 573 293 643 q 186 368 186 504 q 211 214 186 276 q 281 121 237 151 q 382 90 325 90 m 161 828 l 323 1011 l 454 1011 l 610 828 l 610 814 l 511 814 l 390 929 l 389 929 l 259 814 l 161 814 l 161 828 z "},"ö":{"ha":772,"x_min":58,"x_max":714,"o":"m 383 -14 q 209 34 282 -14 q 97 167 136 81 q 58 368 58 253 q 96 567 58 481 q 207 700 133 652 q 387 747 281 747 q 633 646 552 747 q 714 368 714 545 q 676 167 714 253 q 564 34 638 81 q 383 -14 489 -14 m 382 90 q 532 159 479 90 q 586 368 586 228 q 535 575 586 507 q 389 643 484 643 q 239 573 293 643 q 186 368 186 504 q 211 214 186 276 q 281 121 237 151 q 382 90 325 90 m 255 839 q 206 859 226 839 q 186 908 186 879 q 206 959 186 938 q 255 979 226 979 q 304 959 284 979 q 325 908 325 938 q 304 859 325 879 q 255 839 284 839 m 515 839 q 466 859 486 839 q 446 908 446 879 q 466 959 446 938 q 515 979 486 979 q 564 959 544 979 q 584 908 584 938 q 564 859 584 879 q 515 839 544 839 z "},"ò":{"ha":772,"x_min":58,"x_max":714,"o":"m 383 -14 q 209 34 282 -14 q 97 167 136 81 q 58 368 58 253 q 96 567 58 481 q 207 700 133 652 q 387 747 281 747 q 633 646 552 747 q 714 368 714 545 q 676 167 714 253 q 564 34 638 81 q 383 -14 489 -14 m 382 90 q 532 159 479 90 q 586 368 586 228 q 535 575 586 507 q 389 643 484 643 q 239 573 293 643 q 186 368 186 504 q 211 214 186 276 q 281 121 237 151 q 382 90 325 90 m 194 1003 l 194 1022 l 334 1022 l 481 828 l 481 814 l 390 814 l 194 1003 z "},"ő":{"ha":772,"x_min":58,"x_max":714,"o":"m 383 -14 q 209 34 282 -14 q 97 167 136 81 q 58 368 58 253 q 96 567 58 481 q 207 700 133 652 q 387 747 281 747 q 633 646 552 747 q 714 368 714 545 q 676 167 714 253 q 564 34 638 81 q 383 -14 489 -14 m 382 90 q 532 159 479 90 q 586 368 586 228 q 535 575 586 507 q 389 643 484 643 q 239 573 293 643 q 186 368 186 504 q 211 214 186 276 q 281 121 237 151 q 382 90 325 90 m 186 828 l 334 1022 l 460 1022 l 460 1003 l 278 814 l 186 814 l 186 828 m 421 828 l 568 1022 l 694 1022 l 694 1003 l 513 814 l 421 814 l 421 828 z "},"ō":{"ha":772,"x_min":58,"x_max":714,"o":"m 383 -14 q 209 34 282 -14 q 97 167 136 81 q 58 368 58 253 q 96 567 58 481 q 207 700 133 652 q 387 747 281 747 q 633 646 552 747 q 714 368 714 545 q 676 167 714 253 q 564 34 638 81 q 383 -14 489 -14 m 382 90 q 532 159 479 90 q 586 368 586 228 q 535 575 586 507 q 389 643 484 643 q 239 573 293 643 q 186 368 186 504 q 211 214 186 276 q 281 121 237 151 q 382 90 325 90 m 199 925 l 572 925 l 572 839 l 199 839 l 199 925 z "},"ø":{"ha":818,"x_min":29,"x_max":789,"o":"m 677 622 q 741 368 741 526 q 703 167 741 253 q 590 34 665 81 q 410 -14 515 -14 q 208 53 290 -14 l 143 -26 l 29 -26 l 149 119 q 85 368 85 218 q 122 567 85 481 q 233 700 159 652 q 414 747 307 747 q 617 687 538 747 l 675 757 l 789 757 l 677 622 m 212 368 q 234 222 212 286 l 543 596 q 415 643 495 643 q 266 573 319 643 q 212 368 212 504 m 612 368 q 591 517 612 456 l 282 142 q 408 90 332 90 q 559 159 505 90 q 612 368 612 228 z "},"ǿ":{"ha":818,"x_min":29,"x_max":789,"o":"m 677 622 q 741 368 741 526 q 703 167 741 253 q 590 34 665 81 q 410 -14 515 -14 q 208 53 290 -14 l 143 -26 l 29 -26 l 149 119 q 85 368 85 218 q 122 567 85 481 q 233 700 159 652 q 414 747 307 747 q 617 687 538 747 l 675 757 l 789 757 l 677 622 m 212 368 q 234 222 212 286 l 543 596 q 415 643 495 643 q 266 573 319 643 q 212 368 212 504 m 612 368 q 591 517 612 456 l 282 142 q 408 90 332 90 q 559 159 505 90 q 612 368 612 228 m 322 828 l 469 1022 l 610 1022 l 610 1003 l 414 814 l 322 814 l 322 828 z "},"õ":{"ha":772,"x_min":58,"x_max":714,"o":"m 383 -14 q 209 34 282 -14 q 97 167 136 81 q 58 368 58 253 q 96 567 58 481 q 207 700 133 652 q 387 747 281 747 q 633 646 552 747 q 714 368 714 545 q 676 167 714 253 q 564 34 638 81 q 383 -14 489 -14 m 382 90 q 532 159 479 90 q 586 368 586 228 q 535 575 586 507 q 389 643 484 643 q 239 573 293 643 q 186 368 186 504 q 211 214 186 276 q 281 121 237 151 q 382 90 325 90 m 142 814 q 180 945 151 894 q 280 996 209 996 q 336 984 309 996 q 404 949 364 972 q 453 924 435 932 q 487 916 471 916 q 538 996 532 916 l 629 996 q 611 906 623 945 q 570 841 599 868 q 492 814 542 814 q 437 826 464 814 q 372 860 410 838 q 320 887 339 878 q 284 896 301 896 q 248 876 260 896 q 232 814 236 855 l 142 814 z "},"œ":{"ha":1278,"x_min":58,"x_max":1215,"o":"m 383 -14 q 209 34 282 -14 q 97 167 136 81 q 58 368 58 253 q 96 567 58 481 q 207 700 133 652 q 387 747 281 747 q 542 711 477 747 q 648 608 608 675 q 758 712 690 676 q 905 747 825 747 q 1085 695 1016 747 q 1185 564 1154 644 q 1215 393 1215 484 q 1213 335 1215 370 l 715 335 q 738 220 715 275 q 807 128 761 164 q 922 92 854 92 q 1000 103 965 92 q 1063 134 1035 115 q 1125 183 1091 153 l 1192 96 q 1124 44 1158 67 q 1038 4 1090 22 q 922 -14 986 -14 q 758 24 828 -14 q 646 132 688 62 q 537 24 603 62 q 383 -14 471 -14 m 382 90 q 532 159 479 90 q 586 368 586 228 q 535 575 586 507 q 389 643 484 643 q 239 573 293 643 q 186 368 186 504 q 211 214 186 276 q 281 121 237 151 q 382 90 325 90 m 1090 437 q 1035 592 1081 542 q 905 643 989 643 q 818 622 860 643 q 748 554 777 600 q 717 437 720 508 l 1090 437 z "},"p":{"ha":793,"x_min":89,"x_max":734,"o":"m 93 583 q 92 675 93 631 q 89 733 90 719 l 207 733 q 211 692 208 728 q 214 629 214 656 l 216 629 q 446 747 288 747 q 608 699 543 747 q 704 565 673 650 q 734 371 734 481 q 703 175 734 262 q 605 37 671 88 q 439 -14 538 -14 q 306 15 368 -14 q 216 100 245 43 l 212 100 q 214 65 213 97 q 215 -1 215 33 l 215 -289 l 93 -289 l 93 583 m 419 90 q 560 165 513 90 q 607 368 607 240 q 561 566 607 492 q 421 639 514 639 q 274 575 333 639 q 215 358 215 512 q 271 156 215 222 q 419 90 327 90 z "},"þ":{"ha":793,"x_min":93,"x_max":734,"o":"m 93 1007 l 215 1007 l 215 717 l 214 629 l 216 629 q 446 747 288 747 q 608 699 543 747 q 704 565 673 650 q 734 371 734 481 q 703 175 734 262 q 605 37 671 88 q 439 -14 538 -14 q 306 15 368 -14 q 216 100 245 43 l 212 100 q 214 65 213 97 q 215 -1 215 33 l 215 -289 l 93 -289 l 93 1007 m 419 90 q 560 165 513 90 q 607 368 607 240 q 561 566 607 492 q 421 639 514 639 q 274 575 333 639 q 215 358 215 512 q 271 156 215 222 q 419 90 327 90 z "},"q":{"ha":793,"x_min":58,"x_max":703,"o":"m 578 9 q 579 68 578 36 q 581 110 580 100 l 579 110 q 487 16 543 45 q 347 -14 432 -14 q 191 31 256 -14 q 92 161 126 76 q 58 364 58 245 q 95 569 58 483 q 200 701 132 655 q 361 747 268 747 q 493 719 442 747 q 578 633 544 691 l 579 633 q 582 695 579 661 q 586 733 584 729 l 703 733 q 700 543 700 703 l 700 -289 l 578 -289 l 578 9 m 376 94 q 520 157 462 94 q 578 376 578 220 q 525 581 578 518 q 386 643 471 643 q 236 572 286 643 q 186 368 186 502 q 233 165 186 236 q 376 94 280 94 z "},"r":{"ha":463,"x_min":92,"x_max":443,"o":"m 96 562 q 92 733 96 673 l 207 733 q 211 668 209 704 q 212 611 212 633 l 215 611 q 285 713 242 680 q 382 747 328 747 q 443 741 419 747 l 433 621 q 375 628 409 628 q 256 562 294 628 q 218 382 218 496 l 218 0 l 96 0 l 96 562 z "},"ŕ":{"ha":463,"x_min":92,"x_max":472,"o":"m 96 562 q 92 733 96 673 l 207 733 q 211 668 209 704 q 212 611 212 633 l 215 611 q 285 713 242 680 q 382 747 328 747 q 443 741 419 747 l 433 621 q 375 628 409 628 q 256 562 294 628 q 218 382 218 496 l 218 0 l 96 0 l 96 562 m 184 828 l 332 1022 l 472 1022 l 472 1003 l 276 814 l 184 814 l 184 828 z "},"ř":{"ha":463,"x_min":48,"x_max":497,"o":"m 96 562 q 92 733 96 673 l 207 733 q 211 668 209 704 q 212 611 212 633 l 215 611 q 285 713 242 680 q 382 747 328 747 q 443 741 419 747 l 433 621 q 375 628 409 628 q 256 562 294 628 q 218 382 218 496 l 218 0 l 96 0 l 96 562 m 48 997 l 48 1011 l 146 1011 l 276 897 l 277 897 l 398 1011 l 497 1011 l 497 997 l 341 814 l 211 814 l 48 997 z "},"ŗ":{"ha":463,"x_min":92,"x_max":443,"o":"m 96 562 q 92 733 96 673 l 207 733 q 211 668 209 704 q 212 611 212 633 l 215 611 q 285 713 242 680 q 382 747 328 747 q 443 741 419 747 l 433 621 q 375 628 409 628 q 256 562 294 628 q 218 382 218 496 l 218 0 l 96 0 l 96 562 m 185 -256 q 209 -217 199 -235 q 221 -179 218 -198 q 181 -158 196 -175 q 165 -117 165 -141 q 183 -74 165 -91 q 228 -57 201 -57 q 280 -79 261 -57 q 299 -140 299 -100 q 281 -219 299 -183 q 235 -292 264 -254 l 185 -256 z "},"s":{"ha":642,"x_min":28,"x_max":597,"o":"m 321 -14 q 158 15 235 -14 q 28 100 81 43 l 100 187 q 203 112 149 137 q 321 87 258 87 q 433 112 389 87 q 478 193 478 137 q 460 254 478 231 q 412 290 441 277 q 323 321 382 303 l 293 330 q 175 372 223 350 q 94 436 127 395 q 61 543 61 478 q 93 653 61 608 q 184 723 125 699 q 319 746 242 746 q 458 721 391 746 q 572 652 526 696 l 503 566 q 415 622 465 602 q 319 643 366 643 q 217 620 254 643 q 179 549 179 596 q 198 495 179 515 q 249 464 218 475 q 342 435 280 452 l 366 428 q 483 387 436 408 q 564 320 530 365 q 597 203 597 276 q 563 86 597 135 q 465 12 528 37 q 321 -14 402 -14 z "},"ś":{"ha":642,"x_min":28,"x_max":597,"o":"m 321 -14 q 158 15 235 -14 q 28 100 81 43 l 100 187 q 203 112 149 137 q 321 87 258 87 q 433 112 389 87 q 478 193 478 137 q 460 254 478 231 q 412 290 441 277 q 323 321 382 303 l 293 330 q 175 372 223 350 q 94 436 127 395 q 61 543 61 478 q 93 653 61 608 q 184 723 125 699 q 319 746 242 746 q 458 721 391 746 q 572 652 526 696 l 503 566 q 415 622 465 602 q 319 643 366 643 q 217 620 254 643 q 179 549 179 596 q 198 495 179 515 q 249 464 218 475 q 342 435 280 452 l 366 428 q 483 387 436 408 q 564 320 530 365 q 597 203 597 276 q 563 86 597 135 q 465 12 528 37 q 321 -14 402 -14 m 229 828 l 376 1022 l 517 1022 l 517 1003 l 321 814 l 229 814 l 229 828 z "},"š":{"ha":642,"x_min":28,"x_max":597,"o":"m 321 -14 q 158 15 235 -14 q 28 100 81 43 l 100 187 q 203 112 149 137 q 321 87 258 87 q 433 112 389 87 q 478 193 478 137 q 460 254 478 231 q 412 290 441 277 q 323 321 382 303 l 293 330 q 175 372 223 350 q 94 436 127 395 q 61 543 61 478 q 93 653 61 608 q 184 723 125 699 q 319 746 242 746 q 458 721 391 746 q 572 652 526 696 l 503 566 q 415 622 465 602 q 319 643 366 643 q 217 620 254 643 q 179 549 179 596 q 198 495 179 515 q 249 464 218 475 q 342 435 280 452 l 366 428 q 483 387 436 408 q 564 320 530 365 q 597 203 597 276 q 563 86 597 135 q 465 12 528 37 q 321 -14 402 -14 m 93 997 l 93 1011 l 191 1011 l 321 897 l 322 897 l 443 1011 l 542 1011 l 542 997 l 386 814 l 256 814 l 93 997 z "},"ş":{"ha":642,"x_min":28,"x_max":597,"o":"m 597 203 q 538 58 597 114 q 378 -10 479 3 l 355 -69 q 443 -99 413 -73 q 472 -168 472 -125 q 286 -289 472 -289 q 225 -286 248 -289 l 225 -210 q 283 -214 259 -214 q 360 -203 337 -214 q 383 -171 383 -192 q 289 -132 383 -132 q 250 -134 262 -132 l 294 -13 q 146 19 215 -9 q 28 100 77 47 l 100 187 q 203 112 149 137 q 321 87 258 87 q 433 112 389 87 q 478 193 478 137 q 460 254 478 231 q 412 290 441 277 q 323 321 382 303 l 293 330 q 175 372 223 350 q 94 436 127 395 q 61 543 61 478 q 93 653 61 608 q 184 723 125 699 q 319 746 242 746 q 458 721 391 746 q 572 652 526 696 l 503 566 q 415 622 465 602 q 319 643 366 643 q 217 620 254 643 q 179 549 179 596 q 198 495 179 515 q 249 464 218 475 q 342 435 280 452 l 366 428 q 483 387 436 408 q 564 320 530 365 q 597 203 597 276 z "},"ŝ":{"ha":642,"x_min":28,"x_max":597,"o":"m 321 -14 q 158 15 235 -14 q 28 100 81 43 l 100 187 q 203 112 149 137 q 321 87 258 87 q 433 112 389 87 q 478 193 478 137 q 460 254 478 231 q 412 290 441 277 q 323 321 382 303 l 293 330 q 175 372 223 350 q 94 436 127 395 q 61 543 61 478 q 93 653 61 608 q 184 723 125 699 q 319 746 242 746 q 458 721 391 746 q 572 652 526 696 l 503 566 q 415 622 465 602 q 319 643 366 643 q 217 620 254 643 q 179 549 179 596 q 198 495 179 515 q 249 464 218 475 q 342 435 280 452 l 366 428 q 483 387 436 408 q 564 320 530 365 q 597 203 597 276 q 563 86 597 135 q 465 12 528 37 q 321 -14 402 -14 m 93 828 l 256 1011 l 386 1011 l 542 828 l 542 814 l 443 814 l 322 929 l 321 929 l 191 814 l 93 814 l 93 828 z "},"ș":{"ha":642,"x_min":28,"x_max":597,"o":"m 321 -14 q 158 15 235 -14 q 28 100 81 43 l 100 187 q 203 112 149 137 q 321 87 258 87 q 433 112 389 87 q 478 193 478 137 q 460 254 478 231 q 412 290 441 277 q 323 321 382 303 l 293 330 q 175 372 223 350 q 94 436 127 395 q 61 543 61 478 q 93 653 61 608 q 184 723 125 699 q 319 746 242 746 q 458 721 391 746 q 572 652 526 696 l 503 566 q 415 622 465 602 q 319 643 366 643 q 217 620 254 643 q 179 549 179 596 q 198 495 179 515 q 249 464 218 475 q 342 435 280 452 l 366 428 q 483 387 436 408 q 564 320 530 365 q 597 203 597 276 q 563 86 597 135 q 465 12 528 37 q 321 -14 402 -14 m 281 -256 q 304 -217 295 -235 q 317 -179 314 -198 q 276 -158 292 -175 q 261 -117 261 -141 q 279 -74 261 -91 q 323 -57 296 -57 q 376 -79 357 -57 q 395 -140 395 -100 q 377 -219 395 -183 q 330 -292 359 -254 l 281 -256 z "},"ß":{"ha":848,"x_min":96,"x_max":791,"o":"m 549 -14 q 436 -2 490 -14 q 346 29 382 10 l 383 139 q 440 116 421 123 q 486 103 460 109 q 546 98 513 98 q 642 124 608 98 q 675 196 675 149 q 658 258 675 231 q 618 302 641 284 q 550 349 595 320 q 487 396 512 374 q 445 453 461 419 q 428 532 428 486 q 439 593 428 566 q 468 637 451 619 q 512 680 484 656 l 526 693 q 565 742 551 718 q 578 796 578 765 q 558 848 578 825 q 500 884 538 871 q 412 897 463 897 q 268 849 317 897 q 218 693 218 801 l 218 0 l 96 0 l 96 696 q 178 930 96 853 q 412 1007 260 1007 q 566 981 502 1007 q 662 908 629 954 q 694 806 694 863 q 674 711 694 750 q 619 639 654 673 l 598 619 q 555 575 569 593 q 542 536 542 557 q 554 500 542 517 q 583 469 566 483 q 635 432 600 456 q 714 372 683 400 q 769 301 746 344 q 791 200 791 258 q 766 90 791 138 q 686 14 740 42 q 549 -14 631 -14 z "},"ſ":{"ha":374,"x_min":122,"x_max":415,"o":"m 122 804 q 168 952 122 897 q 313 1007 214 1007 q 415 996 366 1007 l 404 890 q 368 896 382 894 q 328 897 353 897 q 262 872 279 897 q 244 787 244 846 l 244 0 l 122 0 l 122 804 z "},"t":{"ha":421,"x_min":21,"x_max":404,"o":"m 282 -11 q 111 155 111 -11 l 111 631 l 21 631 l 21 733 l 114 733 l 119 885 l 233 897 l 233 733 l 392 733 l 392 631 l 233 631 l 233 182 q 252 118 233 136 q 317 100 270 100 q 349 102 332 100 q 378 107 367 104 q 393 110 389 109 l 404 5 q 345 -7 372 -3 q 282 -11 317 -11 z "},"ŧ":{"ha":421,"x_min":21,"x_max":404,"o":"m 404 5 q 345 -7 372 -3 q 282 -11 317 -11 q 111 155 111 -11 l 111 350 l 24 350 l 24 439 l 111 439 l 111 631 l 21 631 l 21 733 l 114 733 l 119 885 l 233 897 l 233 733 l 392 733 l 392 631 l 233 631 l 233 439 l 370 439 l 370 350 l 233 350 l 233 182 q 252 118 233 136 q 317 100 270 100 q 349 102 332 100 q 378 107 367 104 q 393 110 389 109 l 404 5 z "},"ť":{"ha":449,"x_min":21,"x_max":490,"o":"m 282 -11 q 111 155 111 -11 l 111 631 l 21 631 l 21 733 l 114 733 l 119 885 l 233 897 l 233 733 l 392 733 l 392 631 l 233 631 l 233 182 q 252 118 233 136 q 317 100 270 100 q 349 102 332 100 q 378 107 367 104 q 393 110 389 109 l 404 5 q 345 -7 372 -3 q 282 -11 317 -11 m 370 811 q 410 885 404 854 q 371 906 384 890 q 358 947 358 922 q 375 990 358 972 q 418 1007 392 1007 q 471 986 452 1007 q 490 928 490 965 q 470 846 490 883 q 418 772 450 809 l 370 811 z "},"ţ":{"ha":400,"x_min":21,"x_max":404,"o":"m 275 -69 q 362 -99 332 -73 q 391 -168 391 -125 q 205 -289 391 -289 q 144 -286 167 -289 l 144 -210 q 203 -214 178 -214 q 279 -203 256 -214 q 302 -171 302 -192 q 208 -132 302 -132 q 170 -134 182 -132 l 216 -3 q 111 155 111 25 l 111 631 l 21 631 l 21 733 l 114 733 l 119 885 l 233 897 l 233 733 l 392 733 l 392 631 l 233 631 l 233 182 q 252 118 233 136 q 317 100 270 100 q 349 102 332 100 q 378 107 367 104 q 393 110 389 109 l 404 5 q 297 -11 349 -9 l 275 -69 z "},"ț":{"ha":421,"x_min":21,"x_max":404,"o":"m 282 -11 q 111 155 111 -11 l 111 631 l 21 631 l 21 733 l 114 733 l 119 885 l 233 897 l 233 733 l 392 733 l 392 631 l 233 631 l 233 182 q 252 118 233 136 q 317 100 270 100 q 349 102 332 100 q 378 107 367 104 q 393 110 389 109 l 404 5 q 345 -7 372 -3 q 282 -11 317 -11 m 199 -256 q 222 -217 213 -235 q 235 -179 232 -198 q 194 -158 210 -175 q 179 -117 179 -141 q 197 -74 179 -91 q 241 -57 214 -57 q 294 -79 275 -57 q 313 -140 313 -100 q 295 -219 313 -183 q 248 -292 277 -254 l 199 -256 z "},"u":{"ha":772,"x_min":90,"x_max":681,"o":"m 322 -14 q 149 56 207 -14 q 90 258 90 125 l 90 733 l 212 733 l 212 282 q 249 138 212 182 q 364 94 285 94 q 460 122 417 94 q 529 202 504 151 q 554 318 554 253 l 554 733 l 676 733 l 676 157 q 678 61 676 112 q 681 0 680 9 l 566 0 q 562 52 564 7 q 559 121 559 97 l 557 121 q 464 21 521 56 q 322 -14 407 -14 z "},"ú":{"ha":772,"x_min":90,"x_max":681,"o":"m 322 -14 q 149 56 207 -14 q 90 258 90 125 l 90 733 l 212 733 l 212 282 q 249 138 212 182 q 364 94 285 94 q 460 122 417 94 q 529 202 504 151 q 554 318 554 253 l 554 733 l 676 733 l 676 157 q 678 61 676 112 q 681 0 680 9 l 566 0 q 562 52 564 7 q 559 121 559 97 l 557 121 q 464 21 521 56 q 322 -14 407 -14 m 297 828 l 444 1022 l 585 1022 l 585 1003 l 389 814 l 297 814 l 297 828 z "},"ŭ":{"ha":772,"x_min":90,"x_max":681,"o":"m 322 -14 q 149 56 207 -14 q 90 258 90 125 l 90 733 l 212 733 l 212 282 q 249 138 212 182 q 364 94 285 94 q 460 122 417 94 q 529 202 504 151 q 554 318 554 253 l 554 733 l 676 733 l 676 157 q 678 61 676 112 q 681 0 680 9 l 566 0 q 562 52 564 7 q 559 121 559 97 l 557 121 q 464 21 521 56 q 322 -14 407 -14 m 385 814 q 272 843 321 814 q 195 919 224 871 q 159 1023 167 967 l 267 1023 q 306 945 275 968 q 386 921 337 921 q 465 945 435 921 q 504 1023 495 969 l 611 1023 q 574 919 602 966 q 498 843 547 871 q 385 814 450 814 z "},"û":{"ha":772,"x_min":90,"x_max":681,"o":"m 322 -14 q 149 56 207 -14 q 90 258 90 125 l 90 733 l 212 733 l 212 282 q 249 138 212 182 q 364 94 285 94 q 460 122 417 94 q 529 202 504 151 q 554 318 554 253 l 554 733 l 676 733 l 676 157 q 678 61 676 112 q 681 0 680 9 l 566 0 q 562 52 564 7 q 559 121 559 97 l 557 121 q 464 21 521 56 q 322 -14 407 -14 m 161 828 l 323 1011 l 454 1011 l 610 828 l 610 814 l 511 814 l 390 929 l 389 929 l 259 814 l 161 814 l 161 828 z "},"ü":{"ha":772,"x_min":90,"x_max":681,"o":"m 322 -14 q 149 56 207 -14 q 90 258 90 125 l 90 733 l 212 733 l 212 282 q 249 138 212 182 q 364 94 285 94 q 460 122 417 94 q 529 202 504 151 q 554 318 554 253 l 554 733 l 676 733 l 676 157 q 678 61 676 112 q 681 0 680 9 l 566 0 q 562 52 564 7 q 559 121 559 97 l 557 121 q 464 21 521 56 q 322 -14 407 -14 m 255 839 q 206 859 226 839 q 186 908 186 879 q 206 959 186 938 q 255 979 226 979 q 304 959 284 979 q 325 908 325 938 q 304 859 325 879 q 255 839 284 839 m 515 839 q 466 859 486 839 q 446 908 446 879 q 466 959 446 938 q 515 979 486 979 q 564 959 544 979 q 584 908 584 938 q 564 859 584 879 q 515 839 544 839 z "},"ù":{"ha":772,"x_min":90,"x_max":681,"o":"m 322 -14 q 149 56 207 -14 q 90 258 90 125 l 90 733 l 212 733 l 212 282 q 249 138 212 182 q 364 94 285 94 q 460 122 417 94 q 529 202 504 151 q 554 318 554 253 l 554 733 l 676 733 l 676 157 q 678 61 676 112 q 681 0 680 9 l 566 0 q 562 52 564 7 q 559 121 559 97 l 557 121 q 464 21 521 56 q 322 -14 407 -14 m 194 1003 l 194 1022 l 334 1022 l 481 828 l 481 814 l 390 814 l 194 1003 z "},"ű":{"ha":772,"x_min":90,"x_max":694,"o":"m 322 -14 q 149 56 207 -14 q 90 258 90 125 l 90 733 l 212 733 l 212 282 q 249 138 212 182 q 364 94 285 94 q 460 122 417 94 q 529 202 504 151 q 554 318 554 253 l 554 733 l 676 733 l 676 157 q 678 61 676 112 q 681 0 680 9 l 566 0 q 562 52 564 7 q 559 121 559 97 l 557 121 q 464 21 521 56 q 322 -14 407 -14 m 186 828 l 334 1022 l 460 1022 l 460 1003 l 278 814 l 186 814 l 186 828 m 421 828 l 568 1022 l 694 1022 l 694 1003 l 513 814 l 421 814 l 421 828 z "},"ū":{"ha":772,"x_min":90,"x_max":681,"o":"m 322 -14 q 149 56 207 -14 q 90 258 90 125 l 90 733 l 212 733 l 212 282 q 249 138 212 182 q 364 94 285 94 q 460 122 417 94 q 529 202 504 151 q 554 318 554 253 l 554 733 l 676 733 l 676 157 q 678 61 676 112 q 681 0 680 9 l 566 0 q 562 52 564 7 q 559 121 559 97 l 557 121 q 464 21 521 56 q 322 -14 407 -14 m 199 925 l 572 925 l 572 839 l 199 839 l 199 925 z "},"ų":{"ha":772,"x_min":90,"x_max":711,"o":"m 616 -289 q 510 -255 547 -289 q 473 -163 473 -221 q 491 -91 473 -124 q 532 -35 508 -58 q 576 0 555 -12 l 566 0 q 562 52 564 7 q 559 121 559 97 l 557 121 q 464 21 521 56 q 322 -14 407 -14 q 149 56 207 -14 q 90 258 90 125 l 90 733 l 212 733 l 212 282 q 249 138 212 182 q 364 94 285 94 q 460 122 417 94 q 529 202 504 151 q 554 318 554 253 l 554 733 l 676 733 l 676 157 q 678 61 676 112 q 681 0 680 9 l 669 0 q 600 -63 630 -23 q 570 -147 570 -103 q 586 -190 570 -175 q 633 -204 603 -204 q 711 -187 669 -204 l 711 -271 q 616 -289 671 -289 z "},"ů":{"ha":772,"x_min":90,"x_max":681,"o":"m 322 -14 q 149 56 207 -14 q 90 258 90 125 l 90 733 l 212 733 l 212 282 q 249 138 212 182 q 364 94 285 94 q 460 122 417 94 q 529 202 504 151 q 554 318 554 253 l 554 733 l 676 733 l 676 157 q 678 61 676 112 q 681 0 680 9 l 566 0 q 562 52 564 7 q 559 121 559 97 l 557 121 q 464 21 521 56 q 322 -14 407 -14 m 386 791 q 304 814 342 791 q 244 874 266 836 q 222 956 222 911 q 244 1038 222 1000 q 304 1098 266 1076 q 386 1120 342 1120 q 468 1098 430 1120 q 528 1038 506 1076 q 550 956 550 1000 q 528 874 550 911 q 468 814 506 836 q 386 791 430 791 m 386 864 q 450 890 425 864 q 476 956 476 917 q 450 1021 476 995 q 386 1047 425 1047 q 321 1021 347 1047 q 294 956 294 995 q 321 890 294 917 q 386 864 347 864 z "},"ũ":{"ha":772,"x_min":90,"x_max":681,"o":"m 322 -14 q 149 56 207 -14 q 90 258 90 125 l 90 733 l 212 733 l 212 282 q 249 138 212 182 q 364 94 285 94 q 460 122 417 94 q 529 202 504 151 q 554 318 554 253 l 554 733 l 676 733 l 676 157 q 678 61 676 112 q 681 0 680 9 l 566 0 q 562 52 564 7 q 559 121 559 97 l 557 121 q 464 21 521 56 q 322 -14 407 -14 m 142 814 q 180 945 151 894 q 280 996 209 996 q 336 984 309 996 q 404 949 364 972 q 453 924 435 932 q 487 916 471 916 q 538 996 532 916 l 629 996 q 611 906 623 945 q 570 841 599 868 q 492 814 542 814 q 437 826 464 814 q 372 860 410 838 q 320 887 339 878 q 284 896 301 896 q 248 876 260 896 q 232 814 236 855 l 142 814 z "},"v":{"ha":686,"x_min":4,"x_max":682,"o":"m 4 733 l 135 733 l 292 257 q 339 107 311 203 q 389 256 355 165 l 551 733 l 682 733 l 414 0 l 264 0 l 4 733 z "},"w":{"ha":1003,"x_min":-1,"x_max":1007,"o":"m -1 733 l 119 733 l 244 235 q 259 168 251 209 q 272 104 268 126 l 285 157 l 302 231 l 435 733 l 570 733 l 697 231 l 704 201 q 726 104 723 125 q 730 120 728 111 q 735 143 732 130 q 755 235 743 184 l 886 733 l 1007 733 l 796 0 l 654 0 l 538 473 q 518 556 530 505 q 501 631 506 608 q 488 565 500 621 q 465 471 475 509 l 345 0 l 203 0 l -1 733 z "},"ẃ":{"ha":1003,"x_min":-1,"x_max":1007,"o":"m -1 733 l 119 733 l 244 235 q 259 168 251 209 q 272 104 268 126 l 285 157 l 302 231 l 435 733 l 570 733 l 697 231 l 704 201 q 726 104 723 125 q 730 120 728 111 q 735 143 732 130 q 755 235 743 184 l 886 733 l 1007 733 l 796 0 l 654 0 l 538 473 q 518 556 530 505 q 501 631 506 608 q 488 565 500 621 q 465 471 475 509 l 345 0 l 203 0 l -1 733 m 412 828 l 559 1022 l 700 1022 l 700 1003 l 504 814 l 412 814 l 412 828 z "},"ŵ":{"ha":1003,"x_min":-1,"x_max":1007,"o":"m -1 733 l 119 733 l 244 235 q 259 168 251 209 q 272 104 268 126 l 285 157 l 302 231 l 435 733 l 570 733 l 697 231 l 704 201 q 726 104 723 125 q 730 120 728 111 q 735 143 732 130 q 755 235 743 184 l 886 733 l 1007 733 l 796 0 l 654 0 l 538 473 q 518 556 530 505 q 501 631 506 608 q 488 565 500 621 q 465 471 475 509 l 345 0 l 203 0 l -1 733 m 276 828 l 439 1011 l 569 1011 l 725 828 l 725 814 l 626 814 l 505 929 l 504 929 l 374 814 l 276 814 l 276 828 z "},"ẅ":{"ha":1003,"x_min":-1,"x_max":1007,"o":"m -1 733 l 119 733 l 244 235 q 259 168 251 209 q 272 104 268 126 l 285 157 l 302 231 l 435 733 l 570 733 l 697 231 l 704 201 q 726 104 723 125 q 730 120 728 111 q 735 143 732 130 q 755 235 743 184 l 886 733 l 1007 733 l 796 0 l 654 0 l 538 473 q 518 556 530 505 q 501 631 506 608 q 488 565 500 621 q 465 471 475 509 l 345 0 l 203 0 l -1 733 m 370 839 q 321 859 341 839 q 301 908 301 879 q 321 959 301 938 q 370 979 341 979 q 420 959 399 979 q 440 908 440 938 q 420 859 440 879 q 370 839 399 839 m 630 839 q 581 859 601 839 q 561 908 561 879 q 581 959 561 938 q 630 979 601 979 q 679 959 659 979 q 699 908 699 938 q 679 859 699 879 q 630 839 659 839 z "},"ẁ":{"ha":1003,"x_min":-1,"x_max":1007,"o":"m -1 733 l 119 733 l 244 235 q 259 168 251 209 q 272 104 268 126 l 285 157 l 302 231 l 435 733 l 570 733 l 697 231 l 704 201 q 726 104 723 125 q 730 120 728 111 q 735 143 732 130 q 755 235 743 184 l 886 733 l 1007 733 l 796 0 l 654 0 l 538 473 q 518 556 530 505 q 501 631 506 608 q 488 565 500 621 q 465 471 475 509 l 345 0 l 203 0 l -1 733 m 309 1003 l 309 1022 l 450 1022 l 597 828 l 597 814 l 505 814 l 309 1003 z "},"x":{"ha":694,"x_min":16,"x_max":679,"o":"m 275 376 l 28 733 l 165 733 l 346 452 l 525 733 l 664 733 l 416 378 l 679 0 l 541 0 l 346 298 l 151 0 l 16 0 l 275 376 z "},"y":{"ha":694,"x_min":3,"x_max":692,"o":"m 129 -289 q 85 -287 104 -289 q 46 -281 66 -286 l 54 -182 q 103 -186 79 -186 q 283 -26 218 -186 l 294 3 l 3 733 l 134 733 l 289 328 q 327 220 303 290 q 354 138 351 151 q 380 210 357 147 q 419 315 410 287 l 562 733 l 692 733 l 410 0 q 335 -158 372 -96 q 248 -255 298 -220 q 129 -289 197 -289 z "},"ý":{"ha":694,"x_min":3,"x_max":692,"o":"m 129 -289 q 85 -287 104 -289 q 46 -281 66 -286 l 54 -182 q 103 -186 79 -186 q 283 -26 218 -186 l 294 3 l 3 733 l 134 733 l 289 328 q 327 220 303 290 q 354 138 351 151 q 380 210 357 147 q 419 315 410 287 l 562 733 l 692 733 l 410 0 q 335 -158 372 -96 q 248 -255 298 -220 q 129 -289 197 -289 m 258 828 l 406 1022 l 546 1022 l 546 1003 l 350 814 l 258 814 l 258 828 z "},"ŷ":{"ha":694,"x_min":3,"x_max":692,"o":"m 129 -289 q 85 -287 104 -289 q 46 -281 66 -286 l 54 -182 q 103 -186 79 -186 q 283 -26 218 -186 l 294 3 l 3 733 l 134 733 l 289 328 q 327 220 303 290 q 354 138 351 151 q 380 210 357 147 q 419 315 410 287 l 562 733 l 692 733 l 410 0 q 335 -158 372 -96 q 248 -255 298 -220 q 129 -289 197 -289 m 122 828 l 285 1011 l 415 1011 l 571 828 l 571 814 l 472 814 l 351 929 l 350 929 l 220 814 l 122 814 l 122 828 z "},"ÿ":{"ha":694,"x_min":3,"x_max":692,"o":"m 129 -289 q 85 -287 104 -289 q 46 -281 66 -286 l 54 -182 q 103 -186 79 -186 q 283 -26 218 -186 l 294 3 l 3 733 l 134 733 l 289 328 q 327 220 303 290 q 354 138 351 151 q 380 210 357 147 q 419 315 410 287 l 562 733 l 692 733 l 410 0 q 335 -158 372 -96 q 248 -255 298 -220 q 129 -289 197 -289 m 216 839 q 167 859 187 839 q 147 908 147 879 q 167 959 147 938 q 216 979 187 979 q 266 959 245 979 q 286 908 286 938 q 266 859 286 879 q 216 839 245 839 m 476 839 q 427 859 447 839 q 407 908 407 879 q 427 959 407 938 q 476 979 447 979 q 525 959 505 979 q 545 908 545 938 q 525 859 545 879 q 476 839 505 839 z "},"ỳ":{"ha":694,"x_min":3,"x_max":692,"o":"m 129 -289 q 85 -287 104 -289 q 46 -281 66 -286 l 54 -182 q 103 -186 79 -186 q 283 -26 218 -186 l 294 3 l 3 733 l 134 733 l 289 328 q 327 220 303 290 q 354 138 351 151 q 380 210 357 147 q 419 315 410 287 l 562 733 l 692 733 l 410 0 q 335 -158 372 -96 q 248 -255 298 -220 q 129 -289 197 -289 m 155 1003 l 155 1022 l 296 1022 l 443 828 l 443 814 l 351 814 l 155 1003 z "},"z":{"ha":694,"x_min":61,"x_max":629,"o":"m 629 104 l 629 0 l 61 0 l 61 97 l 467 629 l 83 629 l 83 733 l 615 733 l 615 636 l 209 104 l 629 104 z "},"ź":{"ha":694,"x_min":61,"x_max":629,"o":"m 629 104 l 629 0 l 61 0 l 61 97 l 467 629 l 83 629 l 83 733 l 615 733 l 615 636 l 209 104 l 629 104 m 257 828 l 404 1022 l 545 1022 l 545 1003 l 349 814 l 257 814 l 257 828 z "},"ž":{"ha":694,"x_min":61,"x_max":629,"o":"m 629 104 l 629 0 l 61 0 l 61 97 l 467 629 l 83 629 l 83 733 l 615 733 l 615 636 l 209 104 l 629 104 m 121 997 l 121 1011 l 219 1011 l 349 897 l 350 897 l 471 1011 l 570 1011 l 570 997 l 414 814 l 283 814 l 121 997 z "},"ż":{"ha":694,"x_min":61,"x_max":629,"o":"m 629 104 l 629 0 l 61 0 l 61 97 l 467 629 l 83 629 l 83 733 l 615 733 l 615 636 l 209 104 l 629 104 m 346 832 q 292 853 314 832 q 271 907 271 875 q 293 959 271 937 q 346 981 315 981 q 399 959 377 981 q 420 907 420 937 q 399 853 420 875 q 346 832 377 832 z "},"ﬀ":{"ha":771,"x_min":26,"x_max":771,"o":"m 614 733 l 771 733 l 771 631 l 614 631 l 614 0 l 492 0 l 492 631 l 248 631 l 248 0 l 125 0 l 125 631 l 26 631 l 26 733 l 125 733 l 125 800 q 168 946 125 888 q 301 1003 211 1003 q 393 991 351 1003 l 382 886 q 353 891 364 890 q 325 893 342 893 q 277 882 294 893 q 254 848 260 871 q 248 783 248 825 l 248 733 l 492 733 l 492 804 q 536 950 492 892 q 677 1007 581 1007 q 771 996 728 1007 l 760 890 q 730 896 743 894 q 697 897 717 897 q 631 872 649 897 q 614 787 614 846 l 614 733 z "},"ﬃ":{"ha":1080,"x_min":26,"x_max":1006,"o":"m 614 733 l 771 733 l 771 631 l 614 631 l 614 0 l 492 0 l 492 631 l 248 631 l 248 0 l 125 0 l 125 631 l 26 631 l 26 733 l 125 733 l 125 800 q 168 946 125 888 q 301 1003 211 1003 q 393 991 351 1003 l 382 886 q 353 891 364 890 q 325 893 342 893 q 277 882 294 893 q 254 848 260 871 q 248 783 248 825 l 248 733 l 492 733 l 492 804 q 536 950 492 892 q 677 1007 581 1007 q 771 996 728 1007 l 760 890 q 730 896 743 894 q 697 897 717 897 q 631 872 649 897 q 614 787 614 846 l 614 733 m 925 869 q 866 893 890 869 q 843 951 843 916 q 866 1010 843 987 q 925 1034 890 1034 q 983 1010 960 1034 q 1006 951 1006 987 q 983 893 1006 917 q 925 869 960 869 m 864 733 l 986 733 l 986 0 l 864 0 l 864 733 z "},"ﬄ":{"ha":1126,"x_min":26,"x_max":1117,"o":"m 614 733 l 771 733 l 771 631 l 614 631 l 614 0 l 492 0 l 492 631 l 248 631 l 248 0 l 125 0 l 125 631 l 26 631 l 26 733 l 125 733 l 125 800 q 168 946 125 888 q 301 1003 211 1003 q 393 991 351 1003 l 382 886 q 353 891 364 890 q 325 893 342 893 q 277 882 294 893 q 254 848 260 871 q 248 783 248 825 l 248 733 l 492 733 l 492 804 q 536 950 492 892 q 677 1007 581 1007 q 771 996 728 1007 l 760 890 q 730 896 743 894 q 697 897 717 897 q 631 872 649 897 q 614 787 614 846 l 614 733 m 1007 -11 q 860 170 860 -11 l 860 1007 l 982 1007 l 982 196 q 994 121 982 142 q 1035 100 1006 100 q 1065 102 1050 100 q 1101 110 1079 104 l 1117 5 q 1063 -7 1088 -3 q 1007 -11 1038 -11 z "},"ﬁ":{"ha":724,"x_min":26,"x_max":650,"o":"m 122 631 l 26 631 l 26 733 l 122 733 l 122 804 q 168 952 122 897 q 313 1007 214 1007 q 415 996 366 1007 l 404 890 q 368 896 382 894 q 328 897 353 897 q 262 872 279 897 q 244 787 244 846 l 244 733 l 407 733 l 407 631 l 244 631 l 244 0 l 122 0 l 122 631 m 569 869 q 510 893 534 869 q 487 951 487 916 q 510 1010 487 987 q 569 1034 534 1034 q 627 1010 604 1034 q 650 951 650 987 q 627 893 650 917 q 569 869 604 869 m 508 733 l 630 733 l 630 0 l 508 0 l 508 733 z "},"ﬂ":{"ha":770,"x_min":26,"x_max":761,"o":"m 122 631 l 26 631 l 26 733 l 122 733 l 122 804 q 168 952 122 897 q 313 1007 214 1007 q 415 996 366 1007 l 404 890 q 368 896 382 894 q 328 897 353 897 q 262 872 279 897 q 244 787 244 846 l 244 733 l 407 733 l 407 631 l 244 631 l 244 0 l 122 0 l 122 631 m 651 -11 q 504 170 504 -11 l 504 1007 l 626 1007 l 626 196 q 638 121 626 142 q 679 100 650 100 q 709 102 694 100 q 745 110 723 104 l 761 5 q 707 -7 732 -3 q 651 -11 682 -11 z "},"ª":{"ha":557,"x_min":56,"x_max":485,"o":"m 214 441 q 98 481 141 441 q 56 590 56 520 q 115 714 56 673 q 267 757 174 755 l 387 760 l 387 783 q 281 893 387 893 q 209 879 241 893 q 135 825 176 864 l 81 890 q 172 950 124 930 q 283 971 219 971 q 431 923 377 971 q 485 787 485 875 l 485 543 l 485 454 l 395 454 l 393 491 q 392 528 393 503 l 389 528 q 214 441 338 441 m 240 522 q 316 539 282 522 q 368 585 349 556 q 387 650 387 614 l 387 689 l 294 686 q 157 599 157 682 q 177 542 157 562 q 240 522 197 522 z "},"º":{"ha":555,"x_min":41,"x_max":514,"o":"m 277 441 q 150 476 203 441 q 69 571 96 511 q 41 707 41 631 q 68 840 41 780 q 149 936 95 900 q 279 971 202 971 q 412 936 359 971 q 489 841 465 901 q 514 707 514 781 q 487 570 514 630 q 407 476 460 510 q 277 441 353 441 m 275 526 q 377 572 342 526 q 412 707 412 617 q 379 840 412 793 q 281 886 345 886 q 180 839 216 886 q 144 707 144 792 q 180 572 144 618 q 275 526 215 526 z "},"ⁿ":{"ha":571,"x_min":71,"x_max":496,"o":"m 72 846 l 71 915 q 71 956 71 931 l 165 956 q 168 868 168 916 l 170 868 q 236 940 195 914 q 334 965 277 965 q 455 918 415 965 q 496 771 496 871 l 496 437 l 395 437 l 395 743 q 385 826 395 795 q 353 869 374 856 q 296 882 332 882 q 235 864 263 882 q 191 811 208 846 q 174 729 174 777 l 174 437 l 72 437 l 72 846 z "},"А":{"ha":871,"x_min":3,"x_max":868,"o":"m 646 258 l 228 258 l 138 0 l 3 0 l 363 956 l 515 956 l 868 0 l 736 0 l 646 258 m 606 371 l 493 696 q 458 788 475 743 q 437 852 442 833 q 415 785 431 831 q 380 694 399 740 l 267 371 l 606 371 z "},"Б":{"ha":911,"x_min":114,"x_max":839,"o":"m 114 956 l 742 956 l 742 836 l 243 836 l 243 554 l 503 554 q 688 520 613 554 q 801 426 764 487 q 839 282 839 365 q 802 137 839 201 q 691 37 764 73 q 511 0 617 0 l 114 0 l 114 956 m 492 117 q 656 159 602 117 q 710 281 710 201 q 653 397 710 356 q 488 437 597 437 l 243 437 l 243 117 l 492 117 z "},"В":{"ha":899,"x_min":114,"x_max":825,"o":"m 114 956 l 465 956 q 787 721 787 956 q 744 577 787 637 q 619 497 701 516 q 731 457 684 488 q 801 378 777 427 q 825 269 825 330 q 780 116 825 176 q 659 28 735 56 q 488 0 583 0 l 114 0 l 114 956 m 461 550 q 612 589 566 550 q 659 703 659 629 q 610 805 659 773 q 465 838 562 838 l 243 838 l 243 550 l 461 550 m 481 118 q 640 154 584 118 q 696 279 696 191 q 637 397 696 359 q 471 435 578 435 l 243 435 l 243 118 l 481 118 z "},"Г":{"ha":737,"x_min":114,"x_max":699,"o":"m 114 956 l 699 956 l 699 836 l 243 836 l 243 0 l 114 0 l 114 956 z "},"Ѓ":{"ha":737,"x_min":114,"x_max":699,"o":"m 114 956 l 699 956 l 699 836 l 243 836 l 243 0 l 114 0 l 114 956 m 321 1051 l 468 1204 l 608 1204 l 608 1185 l 426 1038 l 321 1038 l 321 1051 z "},"Ґ":{"ha":679,"x_min":114,"x_max":647,"o":"m 114 956 l 525 956 l 525 1235 l 647 1235 l 647 836 l 243 836 l 243 0 l 114 0 l 114 956 z "},"Д":{"ha":940,"x_min":9,"x_max":916,"o":"m 9 119 l 109 119 q 199 304 163 186 q 260 610 235 421 l 306 956 l 796 956 l 796 119 l 916 119 l 916 -277 l 793 -277 l 793 0 l 132 0 l 132 -277 l 9 -277 l 9 119 m 669 119 l 669 833 l 415 833 l 382 597 q 327 301 357 416 q 254 119 297 186 l 669 119 z "},"Е":{"ha":815,"x_min":114,"x_max":755,"o":"m 114 956 l 728 956 l 728 836 l 243 836 l 243 550 l 688 550 l 688 432 l 243 432 l 243 119 l 755 119 l 755 0 l 114 0 l 114 956 z "},"Ѐ":{"ha":815,"x_min":114,"x_max":755,"o":"m 114 956 l 728 956 l 728 836 l 243 836 l 243 550 l 688 550 l 688 432 l 243 432 l 243 119 l 755 119 l 755 0 l 114 0 l 114 956 m 256 1185 l 256 1204 l 397 1204 l 544 1051 l 544 1038 l 439 1038 l 256 1185 z "},"Ё":{"ha":815,"x_min":114,"x_max":755,"o":"m 114 956 l 728 956 l 728 836 l 243 836 l 243 550 l 688 550 l 688 432 l 243 432 l 243 119 l 755 119 l 755 0 l 114 0 l 114 956 m 308 1038 q 258 1058 279 1038 q 237 1108 237 1078 q 258 1160 237 1139 q 308 1181 279 1181 q 358 1160 337 1181 q 379 1108 379 1139 q 358 1058 379 1078 q 308 1038 337 1038 m 568 1038 q 518 1058 538 1038 q 497 1108 497 1078 q 518 1160 497 1139 q 568 1181 538 1181 q 618 1160 597 1181 q 639 1108 639 1139 q 618 1058 639 1078 q 568 1038 597 1038 z "},"Ж":{"ha":1282,"x_min":20,"x_max":1264,"o":"m 364 525 q 243 677 331 550 l 52 956 l 186 956 l 325 749 q 425 613 392 652 q 491 558 458 574 q 576 543 523 543 l 576 956 l 705 956 l 705 543 q 791 558 759 543 q 858 613 824 574 q 957 749 891 653 l 1096 956 l 1232 956 l 1040 677 q 918 525 954 553 l 1264 0 l 1112 0 l 823 463 q 763 445 798 453 q 705 437 728 437 l 705 0 l 576 0 l 576 437 q 519 445 554 437 q 460 463 484 453 l 170 0 l 20 0 l 364 525 z "},"З":{"ha":819,"x_min":46,"x_max":751,"o":"m 545 499 q 650 463 604 490 q 724 387 696 435 q 751 275 751 340 q 710 124 751 190 q 589 23 668 59 q 401 -14 510 -14 q 186 30 269 -14 q 46 157 102 73 l 150 231 q 251 138 191 172 q 397 104 310 104 q 561 149 502 104 q 619 273 619 193 q 558 397 619 358 q 367 436 497 436 l 304 436 l 304 551 l 367 551 q 537 590 481 551 q 593 708 593 628 q 543 813 593 777 q 403 850 492 850 q 170 742 263 850 l 75 819 q 214 932 132 894 q 408 970 296 970 q 575 939 505 970 q 684 851 646 907 q 722 720 722 794 q 676 575 722 629 q 545 499 629 520 z "},"И":{"ha":999,"x_min":114,"x_max":885,"o":"m 114 956 l 231 956 l 231 329 q 227 165 231 247 l 227 144 l 733 956 l 885 956 l 885 0 l 770 0 l 770 635 q 772 764 770 660 l 772 806 l 269 0 l 114 0 l 114 956 z "},"Й":{"ha":999,"x_min":114,"x_max":885,"o":"m 114 956 l 231 956 l 231 329 q 227 165 231 247 l 227 144 l 733 956 l 885 956 l 885 0 l 770 0 l 770 635 q 772 764 770 660 l 772 806 l 269 0 l 114 0 l 114 956 m 501 1038 q 317 1091 371 1038 q 262 1229 262 1144 l 262 1257 l 367 1257 l 367 1229 q 399 1139 367 1170 q 501 1108 431 1108 q 605 1140 569 1108 q 642 1229 642 1171 l 642 1257 l 746 1257 l 746 1229 q 722 1133 746 1176 q 643 1064 698 1090 q 501 1038 589 1038 z "},"Ѝ":{"ha":999,"x_min":114,"x_max":885,"o":"m 114 956 l 231 956 l 231 329 q 227 165 231 247 l 227 144 l 733 956 l 885 956 l 885 0 l 770 0 l 770 635 q 772 764 770 660 l 772 806 l 269 0 l 114 0 l 114 956 m 319 1185 l 319 1204 l 459 1204 l 606 1051 l 606 1038 l 501 1038 l 319 1185 z "},"К":{"ha":810,"x_min":114,"x_max":802,"o":"m 114 956 l 243 956 l 243 543 q 329 558 296 543 q 395 613 361 574 q 494 749 429 653 l 633 956 l 770 956 l 578 677 q 456 525 490 551 l 802 0 l 650 0 l 361 463 q 302 445 337 452 q 243 437 267 437 l 243 0 l 114 0 l 114 956 z "},"Ќ":{"ha":810,"x_min":114,"x_max":802,"o":"m 114 956 l 243 956 l 243 543 q 329 558 296 543 q 395 613 361 574 q 494 749 429 653 l 633 956 l 770 956 l 578 677 q 456 525 490 551 l 802 0 l 650 0 l 361 463 q 302 445 337 452 q 243 437 267 437 l 243 0 l 114 0 l 114 956 m 309 1051 l 456 1204 l 596 1204 l 596 1185 l 414 1038 l 309 1038 l 309 1051 z "},"Л":{"ha":911,"x_min":12,"x_max":799,"o":"m 71 -11 q 12 -4 34 -11 l 24 97 q 50 94 36 94 q 123 134 94 94 q 178 283 153 173 q 232 610 203 393 l 278 956 l 799 956 l 799 0 l 672 0 l 672 833 l 387 833 l 355 597 q 291 221 321 345 q 211 43 261 98 q 71 -11 161 -11 z "},"М":{"ha":1157,"x_min":114,"x_max":1043,"o":"m 114 956 l 285 956 l 539 293 q 564 220 550 263 q 581 161 578 177 q 601 222 585 178 q 628 293 616 267 l 876 956 l 1043 956 l 1043 0 l 926 0 l 926 637 q 930 819 926 751 q 909 751 928 810 q 872 652 889 692 l 627 0 l 534 0 l 285 652 q 250 745 271 682 q 227 819 229 808 l 227 785 q 229 637 229 669 l 229 0 l 114 0 l 114 956 z "},"Н":{"ha":962,"x_min":114,"x_max":848,"o":"m 114 956 l 243 956 l 243 558 l 720 558 l 720 956 l 848 956 l 848 0 l 720 0 l 720 436 l 243 436 l 243 0 l 114 0 l 114 956 z "},"О":{"ha":1023,"x_min":65,"x_max":958,"o":"m 511 -14 q 272 50 373 -14 q 118 225 172 113 q 65 482 65 338 q 120 740 65 630 q 275 910 174 850 q 513 970 376 970 q 749 910 648 970 q 904 739 850 850 q 958 482 958 629 q 903 222 958 334 q 746 48 847 109 q 511 -14 644 -14 m 511 106 q 683 154 612 106 q 790 287 754 201 q 827 482 827 372 q 788 675 827 592 q 679 804 749 759 q 513 850 608 850 q 344 804 415 850 q 235 676 273 759 q 197 482 197 593 q 236 287 197 372 q 346 154 275 201 q 511 106 417 106 z "},"П":{"ha":977,"x_min":114,"x_max":863,"o":"m 114 956 l 863 956 l 863 0 l 732 0 l 732 832 l 243 832 l 243 0 l 114 0 l 114 956 z "},"Р":{"ha":885,"x_min":114,"x_max":811,"o":"m 114 956 l 475 956 q 661 920 585 956 q 773 819 736 884 q 811 665 811 753 q 774 511 811 579 q 663 405 736 444 q 482 366 589 366 l 243 366 l 243 0 l 114 0 l 114 956 m 464 482 q 628 529 574 482 q 682 664 682 575 q 626 793 682 749 q 458 838 569 838 l 243 838 l 243 482 l 464 482 z "},"С":{"ha":953,"x_min":66,"x_max":900,"o":"m 515 -14 q 270 52 372 -14 q 118 230 169 117 q 66 482 66 342 q 119 735 66 625 q 274 908 172 846 q 515 970 375 970 q 739 914 646 970 q 886 766 831 858 l 782 700 q 715 778 750 746 q 632 830 681 810 q 517 850 583 850 q 345 802 416 850 q 236 671 273 754 q 199 482 199 588 q 238 292 199 378 q 350 157 277 207 q 522 107 424 107 q 676 151 611 107 q 796 273 742 194 l 900 208 q 746 48 842 110 q 515 -14 649 -14 z "},"Т":{"ha":791,"x_min":31,"x_max":761,"o":"m 332 836 l 31 836 l 31 956 l 761 956 l 761 836 l 461 836 l 461 0 l 332 0 l 332 836 z "},"У":{"ha":882,"x_min":37,"x_max":889,"o":"m 225 -14 q 137 -1 182 -14 q 60 33 92 12 l 115 139 q 171 110 144 121 q 228 98 199 98 q 286 111 262 98 q 333 155 310 124 q 393 249 357 186 l 427 309 l 37 956 l 184 956 l 490 424 l 750 956 l 889 956 l 500 215 q 418 81 454 129 q 336 10 382 34 q 225 -14 291 -14 z "},"Ў":{"ha":882,"x_min":37,"x_max":889,"o":"m 225 -14 q 137 -1 182 -14 q 60 33 92 12 l 115 139 q 171 110 144 121 q 228 98 199 98 q 286 111 262 98 q 333 155 310 124 q 393 249 357 186 l 427 309 l 37 956 l 184 956 l 490 424 l 750 956 l 889 956 l 500 215 q 418 81 454 129 q 336 10 382 34 q 225 -14 291 -14 m 457 1038 q 273 1091 327 1038 q 218 1229 218 1144 l 218 1257 l 323 1257 l 323 1229 q 355 1139 323 1170 q 457 1108 387 1108 q 561 1140 525 1108 q 597 1229 597 1171 l 597 1257 l 702 1257 l 702 1229 q 678 1133 702 1176 q 599 1064 654 1090 q 457 1038 545 1038 z "},"Ф":{"ha":1108,"x_min":79,"x_max":1029,"o":"m 492 146 l 435 146 q 239 193 319 146 q 119 321 159 241 q 79 498 79 401 q 120 679 79 602 q 242 797 161 755 q 443 839 323 839 l 492 839 l 492 962 l 616 962 l 616 839 l 665 839 q 866 797 785 839 q 989 679 948 755 q 1029 498 1029 602 q 989 321 1029 401 q 869 193 949 241 q 673 146 789 146 l 616 146 l 616 -7 l 492 -7 l 492 146 m 492 253 l 492 732 l 457 732 q 271 673 333 732 q 210 496 210 615 q 271 317 210 380 q 454 253 332 253 l 492 253 m 656 253 q 838 317 777 253 q 899 496 899 380 q 836 673 899 615 q 650 732 774 732 l 616 732 l 616 253 l 656 253 z "},"Х":{"ha":872,"x_min":31,"x_max":842,"o":"m 694 0 l 439 410 l 178 0 l 31 0 l 370 496 l 58 956 l 207 956 l 440 589 l 667 956 l 814 956 l 513 501 l 842 0 l 694 0 z "},"Ч":{"ha":926,"x_min":109,"x_max":812,"o":"m 684 345 q 541 317 608 328 q 407 306 473 306 q 181 371 254 306 q 109 567 109 437 l 109 956 l 237 956 l 237 581 q 281 461 237 498 q 416 424 325 424 q 546 433 479 424 q 684 457 613 443 l 684 956 l 812 956 l 812 0 l 684 0 l 684 345 z "},"Ц":{"ha":1028,"x_min":114,"x_max":1002,"o":"m 879 0 l 114 0 l 114 956 l 243 956 l 243 119 l 757 119 l 757 956 l 884 956 l 884 119 l 1002 119 l 1002 -277 l 879 -277 l 879 0 z "},"Ш":{"ha":1274,"x_min":114,"x_max":1158,"o":"m 114 956 l 243 956 l 243 119 l 575 119 l 575 956 l 701 956 l 701 119 l 1034 119 l 1034 956 l 1158 956 l 1158 0 l 114 0 l 114 956 z "},"Щ":{"ha":1303,"x_min":114,"x_max":1247,"o":"m 1125 0 l 114 0 l 114 956 l 243 956 l 243 119 l 559 119 l 559 956 l 686 956 l 686 119 l 1003 119 l 1003 956 l 1129 956 l 1129 119 l 1247 119 l 1247 -277 l 1125 -277 l 1125 0 z "},"Џ":{"ha":999,"x_min":114,"x_max":885,"o":"m 437 0 l 114 0 l 114 956 l 243 956 l 243 119 l 758 119 l 758 956 l 885 956 l 885 0 l 559 0 l 559 -277 l 437 -277 l 437 0 z "},"Я":{"ha":947,"x_min":65,"x_max":835,"o":"m 336 397 q 205 453 258 412 q 128 551 153 494 q 103 673 103 609 q 142 825 103 762 q 257 922 182 888 q 440 956 333 956 l 835 956 l 835 0 l 704 0 l 704 383 l 463 383 l 214 0 l 65 0 l 336 397 m 704 498 l 704 838 l 453 838 q 291 796 348 838 q 233 672 233 754 q 287 546 233 594 q 447 498 340 498 l 704 498 z "},"Ь":{"ha":911,"x_min":114,"x_max":839,"o":"m 114 956 l 243 956 l 243 551 l 503 551 q 688 518 613 551 q 801 424 764 484 q 839 281 839 363 q 802 137 839 201 q 691 37 764 73 q 511 0 617 0 l 114 0 l 114 956 m 492 117 q 710 277 710 117 q 653 393 710 352 q 488 433 597 433 l 243 433 l 243 117 l 492 117 z "},"Ъ":{"ha":1100,"x_min":31,"x_max":1028,"o":"m 343 836 l 31 836 l 31 956 l 472 956 l 472 551 l 690 551 q 877 518 801 551 q 990 424 953 484 q 1028 281 1028 363 q 991 137 1028 201 q 879 37 954 73 q 699 0 805 0 l 343 0 l 343 836 m 681 117 q 897 279 897 117 q 841 395 897 355 q 675 435 785 435 l 472 435 l 472 117 l 681 117 z "},"Ы":{"ha":1229,"x_min":114,"x_max":1116,"o":"m 114 956 l 243 956 l 243 551 l 503 551 q 688 518 613 551 q 801 424 764 484 q 839 281 839 363 q 802 137 839 201 q 691 37 764 73 q 511 0 617 0 l 114 0 l 114 956 m 986 956 l 1116 956 l 1116 0 l 986 0 l 986 956 m 492 117 q 656 158 602 117 q 710 279 710 200 q 654 395 710 355 q 488 435 597 435 l 243 435 l 243 117 l 492 117 z "},"Љ":{"ha":1468,"x_min":12,"x_max":1396,"o":"m 71 -11 q 12 -4 34 -11 l 24 97 q 50 94 33 94 q 123 134 94 94 q 178 283 153 173 q 232 610 203 393 l 278 956 l 800 956 l 800 551 l 1060 551 q 1245 518 1170 551 q 1358 424 1320 484 q 1396 281 1396 363 q 1358 137 1396 201 q 1247 37 1321 73 q 1068 0 1174 0 l 671 0 l 671 833 l 389 833 l 355 597 q 292 222 323 346 q 212 43 262 98 q 71 -11 161 -11 m 1048 117 q 1213 158 1158 117 q 1267 279 1267 200 q 1210 395 1267 355 q 1043 435 1153 435 l 800 435 l 800 117 l 1048 117 z "},"Њ":{"ha":1402,"x_min":114,"x_max":1331,"o":"m 114 956 l 243 956 l 243 551 l 633 551 l 633 956 l 762 956 l 762 551 l 994 551 q 1180 518 1105 551 q 1293 424 1255 484 q 1331 281 1331 363 q 1293 137 1331 201 q 1182 37 1256 73 q 1003 0 1109 0 l 633 0 l 633 429 l 243 429 l 243 0 l 114 0 l 114 956 m 983 117 q 1147 158 1093 117 q 1202 279 1202 200 q 1145 395 1202 355 q 979 435 1089 435 l 762 435 l 762 117 l 983 117 z "},"Ѕ":{"ha":847,"x_min":66,"x_max":783,"o":"m 424 -14 q 66 146 183 -14 l 158 228 q 228 159 194 186 q 310 116 261 132 q 428 100 359 100 q 591 139 527 100 q 656 257 656 178 q 630 342 656 311 q 561 390 604 373 q 434 429 517 407 q 397 439 422 432 q 241 491 301 465 q 140 571 182 517 q 98 714 98 625 q 142 859 98 801 q 261 943 186 916 q 427 970 335 970 q 616 935 537 970 q 751 831 695 899 l 663 749 q 560 829 616 800 q 425 857 503 857 q 275 820 326 857 q 225 721 225 782 q 251 642 225 672 q 317 596 277 612 q 428 559 357 579 l 456 551 l 491 541 q 646 487 588 513 q 744 408 704 461 q 783 264 783 354 q 742 120 783 182 q 620 22 701 57 q 424 -14 538 -14 z "},"Є":{"ha":951,"x_min":65,"x_max":899,"o":"m 514 -14 q 269 52 370 -14 q 116 230 168 117 q 65 482 65 342 q 118 735 65 625 q 272 908 171 846 q 514 970 374 970 q 737 914 644 970 q 885 766 830 858 l 781 700 q 714 778 749 746 q 631 830 680 810 q 515 850 582 850 q 357 811 425 850 q 251 703 290 772 q 201 545 212 634 l 590 545 l 590 427 l 200 427 q 252 262 210 335 q 362 149 293 190 q 521 107 431 107 q 676 151 610 107 q 796 273 743 194 l 899 208 q 744 48 841 110 q 514 -14 648 -14 z "},"Э":{"ha":951,"x_min":53,"x_max":886,"o":"m 437 -14 q 207 48 303 -14 q 53 208 111 110 l 155 273 q 275 151 209 194 q 431 107 342 107 q 589 149 520 107 q 700 262 659 190 q 751 427 741 335 l 361 427 l 361 545 l 750 545 q 701 703 740 634 q 594 811 661 772 q 436 850 527 850 q 321 830 370 850 q 237 778 272 810 q 171 700 203 746 l 66 766 q 214 914 121 858 q 437 970 307 970 q 679 908 578 970 q 833 735 781 846 q 886 482 886 625 q 835 230 886 342 q 683 52 784 117 q 437 -14 581 -14 z "},"І":{"ha":386,"x_min":127,"x_max":258,"o":"m 127 956 l 258 956 l 258 0 l 127 0 l 127 956 z "},"Ї":{"ha":386,"x_min":-7,"x_max":395,"o":"m 127 956 l 258 956 l 258 0 l 127 0 l 127 956 m 64 1038 q 14 1058 35 1038 q -7 1108 -7 1078 q 14 1160 -7 1139 q 64 1181 35 1181 q 114 1160 93 1181 q 135 1108 135 1139 q 114 1058 135 1078 q 64 1038 93 1038 m 323 1038 q 274 1058 294 1038 q 253 1108 253 1078 q 274 1160 253 1139 q 323 1181 294 1181 q 374 1160 353 1181 q 395 1108 395 1139 q 374 1058 395 1078 q 323 1038 353 1038 z "},"Ј":{"ha":694,"x_min":31,"x_max":591,"o":"m 306 -14 q 200 0 246 -14 q 113 50 155 14 q 31 150 71 85 l 136 224 q 216 133 177 159 q 307 106 255 106 q 420 152 378 106 q 463 282 463 197 l 463 956 l 591 956 l 591 285 q 557 127 591 195 q 458 23 523 60 q 306 -14 394 -14 z "},"Ћ":{"ha":1186,"x_min":31,"x_max":1074,"o":"m 359 836 l 31 836 l 31 956 l 847 956 l 847 836 l 489 836 l 489 611 q 636 640 566 628 q 774 652 707 652 q 1000 589 927 652 q 1074 404 1074 527 l 1074 0 l 945 0 l 945 376 q 902 496 945 458 q 768 533 859 533 q 489 498 656 533 l 489 0 l 359 0 l 359 836 z "},"Ю":{"ha":1402,"x_min":114,"x_max":1336,"o":"m 896 -14 q 667 43 764 -14 q 516 201 570 100 q 456 436 463 303 l 243 436 l 243 0 l 114 0 l 114 956 l 243 956 l 243 558 l 458 558 q 527 778 470 685 q 678 920 583 870 q 897 970 772 970 q 1131 910 1031 970 q 1283 740 1230 850 q 1336 482 1336 629 q 1282 221 1336 334 q 1128 48 1227 109 q 896 -14 1028 -14 m 896 106 q 1065 154 996 106 q 1170 286 1135 201 q 1204 482 1204 371 q 1167 676 1204 593 q 1061 804 1130 759 q 897 850 991 850 q 730 804 800 850 q 623 676 660 759 q 586 482 586 593 q 624 287 586 372 q 731 154 661 201 q 896 106 802 106 z "},"Ђ":{"ha":1174,"x_min":31,"x_max":1068,"o":"m 829 -14 q 711 8 761 -14 q 619 69 661 29 l 700 163 q 759 120 730 135 q 828 104 788 104 q 913 156 888 104 q 939 314 939 207 q 887 477 939 421 q 741 533 836 533 q 592 518 671 533 q 461 485 512 503 l 461 0 l 332 0 l 332 836 l 31 836 l 31 956 l 761 956 l 761 836 l 461 836 l 461 597 q 610 635 535 619 q 753 652 684 652 q 990 570 911 652 q 1068 321 1068 488 q 1009 73 1068 159 q 829 -14 951 -14 z "},"а":{"ha":742,"x_min":58,"x_max":650,"o":"m 288 -14 q 117 44 176 -14 q 58 204 58 102 q 150 380 58 327 q 378 436 241 433 l 524 439 l 524 482 q 485 601 524 558 q 374 644 446 644 q 268 620 315 644 q 164 534 220 595 l 87 614 q 208 710 135 672 q 376 747 281 747 q 522 715 461 747 q 613 625 582 682 q 644 494 644 568 l 644 155 q 650 0 644 68 l 532 0 q 526 109 526 50 l 524 109 q 428 17 482 48 q 288 -14 374 -14 m 315 89 q 428 115 380 89 q 499 183 475 141 q 524 273 524 226 l 524 343 l 408 340 q 246 308 307 338 q 184 203 184 277 q 219 120 184 151 q 315 89 254 89 z "},"б":{"ha":796,"x_min":82,"x_max":737,"o":"m 444 696 q 664 605 591 696 q 737 342 737 513 q 699 150 737 229 q 586 28 661 70 q 406 -14 512 -14 q 82 432 82 -14 q 118 717 82 607 q 233 890 154 827 q 447 978 312 952 q 703 1018 587 1004 l 703 909 q 473 875 569 893 q 307 825 363 854 q 222 729 250 795 q 189 536 194 663 q 288 652 222 608 q 444 696 355 696 m 406 90 q 556 150 504 90 q 608 340 608 209 q 559 532 608 472 q 418 593 511 593 q 268 533 326 593 q 210 340 210 474 q 262 151 210 212 q 406 90 315 90 z "},"в":{"ha":737,"x_min":96,"x_max":677,"o":"m 96 733 l 382 733 q 578 692 503 733 q 654 550 654 650 q 616 444 654 484 q 517 389 578 404 l 517 383 q 635 329 592 368 q 677 211 677 289 q 643 94 677 142 q 545 23 608 47 q 399 0 482 0 l 96 0 l 96 733 m 366 429 q 461 440 427 429 q 510 473 496 451 q 525 533 525 496 q 490 607 525 584 q 375 629 456 629 l 218 629 l 218 429 l 366 429 m 378 102 q 509 127 470 102 q 549 211 549 153 q 531 280 549 254 q 474 318 513 307 q 371 330 435 330 l 218 330 l 218 102 l 378 102 z "},"г":{"ha":507,"x_min":96,"x_max":465,"o":"m 96 733 l 465 733 l 465 631 l 218 631 l 218 0 l 96 0 l 96 733 z "},"ѓ":{"ha":507,"x_min":96,"x_max":467,"o":"m 96 733 l 465 733 l 465 631 l 218 631 l 218 0 l 96 0 l 96 733 m 179 828 l 326 1022 l 467 1022 l 467 1003 l 271 814 l 179 814 l 179 828 z "},"ґ":{"ha":557,"x_min":96,"x_max":514,"o":"m 96 733 l 403 733 l 403 979 l 514 979 l 514 631 l 218 631 l 218 0 l 96 0 l 96 733 z "},"д":{"ha":810,"x_min":14,"x_max":786,"o":"m 14 103 l 94 103 q 173 291 138 174 q 240 632 208 407 l 252 733 l 688 733 l 688 103 l 786 103 l 786 -277 l 676 -277 l 676 0 l 123 0 l 123 -277 l 14 -277 l 14 103 m 566 103 l 566 631 l 358 631 l 353 590 q 295 288 325 397 q 229 103 264 178 l 566 103 z "},"е":{"ha":750,"x_min":58,"x_max":688,"o":"m 395 -14 q 212 34 288 -14 q 97 169 136 82 q 58 370 58 255 q 100 575 58 490 q 214 704 142 660 q 378 747 287 747 q 557 695 488 747 q 657 564 627 644 q 688 393 688 484 q 685 335 688 370 l 187 335 q 210 220 187 276 q 279 128 233 164 q 395 92 326 92 q 472 103 437 92 q 535 134 507 115 q 597 183 564 153 l 664 96 q 595 44 629 66 q 510 4 562 22 q 395 -14 458 -14 m 562 437 q 507 592 553 542 q 378 643 461 643 q 291 622 332 643 q 221 554 249 600 q 189 437 193 508 l 562 437 z "},"ѐ":{"ha":750,"x_min":58,"x_max":688,"o":"m 395 -14 q 212 34 288 -14 q 97 169 136 82 q 58 370 58 255 q 100 575 58 490 q 214 704 142 660 q 378 747 287 747 q 557 695 488 747 q 657 564 627 644 q 688 393 688 484 q 685 335 688 370 l 187 335 q 210 220 187 276 q 279 128 233 164 q 395 92 326 92 q 472 103 437 92 q 535 134 507 115 q 597 183 564 153 l 664 96 q 595 44 629 66 q 510 4 562 22 q 395 -14 458 -14 m 562 437 q 507 592 553 542 q 378 643 461 643 q 291 622 332 643 q 221 554 249 600 q 189 437 193 508 l 562 437 m 194 1003 l 194 1022 l 334 1022 l 481 828 l 481 814 l 390 814 l 194 1003 z "},"ё":{"ha":750,"x_min":58,"x_max":688,"o":"m 395 -14 q 212 34 288 -14 q 97 169 136 82 q 58 370 58 255 q 100 575 58 490 q 214 704 142 660 q 378 747 287 747 q 557 695 488 747 q 657 564 627 644 q 688 393 688 484 q 685 335 688 370 l 187 335 q 210 220 187 276 q 279 128 233 164 q 395 92 326 92 q 472 103 437 92 q 535 134 507 115 q 597 183 564 153 l 664 96 q 595 44 629 66 q 510 4 562 22 q 395 -14 458 -14 m 562 437 q 507 592 553 542 q 378 643 461 643 q 291 622 332 643 q 221 554 249 600 q 189 437 193 508 l 562 437 m 255 839 q 206 859 226 839 q 186 908 186 879 q 206 959 186 938 q 255 979 226 979 q 304 959 284 979 q 325 908 325 938 q 304 859 325 879 q 255 839 284 839 m 515 839 q 466 859 486 839 q 446 908 446 879 q 466 959 446 938 q 515 979 486 979 q 564 959 544 979 q 584 908 584 938 q 564 859 584 879 q 515 839 544 839 z "},"ж":{"ha":929,"x_min":4,"x_max":925,"o":"m 244 401 q 157 514 220 421 l 11 733 l 139 733 l 239 572 q 308 472 283 503 q 354 430 334 441 q 404 419 375 419 l 404 733 l 525 733 l 525 419 q 575 430 554 419 q 621 472 595 441 q 690 572 646 503 l 790 733 l 918 733 l 772 514 q 685 401 709 421 l 925 0 l 789 0 l 600 338 q 565 328 587 332 q 525 323 543 323 l 525 0 l 404 0 l 404 323 q 364 328 387 323 q 329 338 342 332 l 140 0 l 4 0 l 244 401 z "},"з":{"ha":618,"x_min":33,"x_max":567,"o":"m 294 -14 q 145 18 209 -14 q 33 115 81 50 l 123 191 q 202 113 160 138 q 297 87 244 87 q 400 117 362 87 q 437 203 437 147 q 379 305 437 275 q 227 335 321 335 l 210 335 l 210 436 l 227 436 q 373 460 320 436 q 425 549 425 485 q 391 619 425 593 q 296 646 357 646 q 209 624 254 646 q 127 553 164 603 l 46 623 q 300 747 136 747 q 431 723 374 747 q 518 654 488 698 q 549 554 549 610 q 524 469 549 505 q 461 413 500 433 q 380 387 423 392 l 380 386 q 475 358 432 381 q 542 296 517 335 q 567 205 567 256 q 536 92 567 142 q 445 15 506 43 q 294 -14 384 -14 z "},"и":{"ha":777,"x_min":96,"x_max":679,"o":"m 96 733 l 214 733 l 214 332 q 213 241 214 292 q 211 151 212 190 q 232 189 215 158 l 253 225 l 543 733 l 679 733 l 679 0 l 562 0 l 562 447 q 566 585 562 549 q 535 532 543 545 l 504 479 l 229 0 l 96 0 l 96 733 z "},"й":{"ha":777,"x_min":96,"x_max":679,"o":"m 96 733 l 214 733 l 214 332 q 213 241 214 292 q 211 151 212 190 q 232 189 215 158 l 253 225 l 543 733 l 679 733 l 679 0 l 562 0 l 562 447 q 566 585 562 549 q 535 532 543 545 l 504 479 l 229 0 l 96 0 l 96 733 m 395 808 q 211 862 265 808 q 157 1000 157 915 l 157 1026 l 261 1026 l 261 1000 q 293 910 261 941 q 395 879 326 879 q 499 911 463 879 q 536 1000 536 943 l 536 1026 l 640 1026 l 640 1000 q 616 904 640 947 q 537 835 592 861 q 395 808 483 808 z "},"ѝ":{"ha":777,"x_min":96,"x_max":679,"o":"m 96 733 l 214 733 l 214 332 q 213 241 214 292 q 211 151 212 190 q 232 189 215 158 l 253 225 l 543 733 l 679 733 l 679 0 l 562 0 l 562 447 q 566 585 562 549 q 535 532 543 545 l 504 479 l 229 0 l 96 0 l 96 733 m 195 1003 l 195 1022 l 336 1022 l 483 828 l 483 814 l 391 814 l 195 1003 z "},"к":{"ha":608,"x_min":93,"x_max":614,"o":"m 93 733 l 215 733 l 215 419 q 266 430 245 419 q 312 472 286 440 q 379 572 337 504 l 479 733 l 608 733 l 463 514 q 410 441 433 471 q 375 401 387 411 l 614 0 l 479 0 l 290 338 q 255 328 277 332 q 215 323 233 323 l 215 0 l 93 0 l 93 733 z "},"ќ":{"ha":608,"x_min":93,"x_max":614,"o":"m 93 733 l 215 733 l 215 419 q 266 430 245 419 q 312 472 286 440 q 379 572 337 504 l 479 733 l 608 733 l 463 514 q 410 441 433 471 q 375 401 387 411 l 614 0 l 479 0 l 290 338 q 255 328 277 332 q 215 323 233 323 l 215 0 l 93 0 l 93 733 m 216 828 l 363 1022 l 503 1022 l 503 1003 l 307 814 l 216 814 l 216 828 z "},"л":{"ha":810,"x_min":7,"x_max":714,"o":"m 71 -14 q 7 -4 46 -14 l 17 89 q 34 84 26 85 q 54 83 42 83 q 116 124 94 83 q 155 250 139 165 q 199 530 171 334 l 207 587 l 228 733 l 714 733 l 714 0 l 591 0 l 591 631 l 338 631 l 328 559 q 268 203 294 316 q 198 38 242 90 q 71 -14 154 -14 z "},"м":{"ha":956,"x_min":96,"x_max":860,"o":"m 96 733 l 286 733 l 435 286 q 482 113 467 189 q 528 286 496 193 l 676 733 l 860 733 l 860 0 l 742 0 l 742 492 q 746 637 742 578 l 533 0 l 431 0 l 211 635 q 214 492 214 589 l 214 0 l 96 0 l 96 733 z "},"н":{"ha":766,"x_min":96,"x_max":671,"o":"m 96 733 l 218 733 l 218 431 l 549 431 l 549 733 l 671 733 l 671 0 l 549 0 l 549 328 l 218 328 l 218 0 l 96 0 l 96 733 z "},"о":{"ha":772,"x_min":58,"x_max":714,"o":"m 383 -14 q 209 34 282 -14 q 97 167 136 81 q 58 368 58 253 q 96 567 58 481 q 207 700 133 652 q 387 747 281 747 q 633 646 552 747 q 714 368 714 545 q 676 167 714 253 q 564 34 638 81 q 383 -14 489 -14 m 382 90 q 532 159 479 90 q 586 368 586 228 q 535 575 586 507 q 389 643 484 643 q 239 573 293 643 q 186 368 186 504 q 211 214 186 276 q 281 121 237 151 q 382 90 325 90 z "},"п":{"ha":753,"x_min":96,"x_max":656,"o":"m 96 733 l 656 733 l 656 0 l 533 0 l 533 631 l 218 631 l 218 0 l 96 0 l 96 733 z "},"р":{"ha":793,"x_min":89,"x_max":734,"o":"m 93 583 q 92 675 93 631 q 89 733 90 719 l 207 733 q 211 692 208 728 q 214 629 214 656 l 216 629 q 446 747 288 747 q 608 699 543 747 q 704 565 673 650 q 734 371 734 481 q 703 175 734 262 q 605 37 671 88 q 439 -14 538 -14 q 306 15 368 -14 q 216 100 245 43 l 212 100 q 214 65 213 97 q 215 -1 215 33 l 215 -289 l 93 -289 l 93 583 m 419 90 q 560 165 513 90 q 607 368 607 240 q 561 566 607 492 q 421 639 514 639 q 274 575 333 639 q 215 358 215 512 q 271 156 215 222 q 419 90 327 90 z "},"с":{"ha":681,"x_min":58,"x_max":657,"o":"m 392 -14 q 202 39 277 -14 q 93 178 127 92 q 58 368 58 264 q 105 584 58 498 q 228 708 153 669 q 392 747 304 747 q 539 718 479 747 q 652 628 600 688 l 566 550 q 487 619 525 597 q 390 640 448 640 q 238 568 291 640 q 186 371 186 495 q 234 173 186 250 q 389 96 281 96 q 461 106 429 96 q 523 136 494 117 q 591 184 552 154 l 657 94 q 545 19 610 51 q 392 -14 479 -14 z "},"т":{"ha":636,"x_min":24,"x_max":612,"o":"m 257 631 l 24 631 l 24 733 l 612 733 l 612 631 l 379 631 l 379 0 l 257 0 l 257 631 z "},"у":{"ha":694,"x_min":3,"x_max":692,"o":"m 129 -289 q 85 -287 104 -289 q 46 -281 66 -286 l 54 -182 q 103 -186 79 -186 q 283 -26 218 -186 l 294 3 l 3 733 l 134 733 l 289 328 q 327 220 303 290 q 354 138 351 151 q 380 210 357 147 q 419 315 410 287 l 562 733 l 692 733 l 410 0 q 335 -158 372 -96 q 248 -255 298 -220 q 129 -289 197 -289 z "},"ў":{"ha":694,"x_min":3,"x_max":692,"o":"m 129 -289 q 85 -287 104 -289 q 46 -281 66 -286 l 54 -182 q 103 -186 79 -186 q 283 -26 218 -186 l 294 3 l 3 733 l 134 733 l 289 328 q 327 220 303 290 q 354 138 351 151 q 380 210 357 147 q 419 315 410 287 l 562 733 l 692 733 l 410 0 q 335 -158 372 -96 q 248 -255 298 -220 q 129 -289 197 -289 m 355 808 q 171 862 225 808 q 117 1000 117 915 l 117 1026 l 221 1026 l 221 1000 q 253 910 221 941 q 355 879 286 879 q 459 911 423 879 q 496 1000 496 943 l 496 1026 l 600 1026 l 600 1000 q 576 904 600 947 q 497 835 552 861 q 355 808 443 808 z "},"ф":{"ha":1143,"x_min":58,"x_max":1083,"o":"m 514 -1 q 517 104 514 72 l 514 104 q 431 15 485 44 q 310 -14 378 -14 q 121 84 184 -14 q 58 364 58 182 q 123 648 58 548 q 313 747 189 747 q 432 719 378 747 q 514 633 485 690 l 517 633 l 515 674 l 514 722 l 514 1007 l 629 1007 l 629 722 q 629 676 629 703 q 627 629 628 649 l 631 629 q 711 719 659 690 q 832 747 763 747 q 1023 645 964 747 q 1083 371 1083 543 q 1023 93 1083 199 q 832 -14 963 -14 q 711 15 767 -14 q 629 100 654 43 l 625 100 q 629 -1 629 58 l 629 -289 l 514 -289 l 514 -1 m 345 94 q 467 158 420 94 q 514 359 514 222 q 472 574 514 506 q 349 643 430 643 q 227 575 267 643 q 186 368 186 507 q 224 163 186 231 q 345 94 262 94 m 796 90 q 919 163 882 90 q 956 368 956 237 q 919 567 956 496 q 798 639 882 639 q 677 578 725 639 q 629 358 629 517 q 673 156 629 222 q 796 90 716 90 z "},"х":{"ha":694,"x_min":16,"x_max":679,"o":"m 275 376 l 28 733 l 165 733 l 346 452 l 525 733 l 664 733 l 416 378 l 679 0 l 541 0 l 346 298 l 151 0 l 16 0 l 275 376 z "},"ч":{"ha":724,"x_min":83,"x_max":627,"o":"m 504 298 l 484 292 q 369 264 417 274 q 267 254 321 254 q 131 308 179 254 q 83 456 83 361 l 83 733 l 205 733 l 205 475 q 232 390 205 421 q 318 358 258 358 q 405 366 361 358 q 504 390 448 374 l 504 733 l 627 733 l 627 0 l 504 0 l 504 298 z "},"ц":{"ha":796,"x_min":96,"x_max":764,"o":"m 653 0 l 96 0 l 96 733 l 218 733 l 218 103 l 542 103 l 542 733 l 664 733 l 664 103 l 764 103 l 764 -277 l 653 -277 l 653 0 z "},"ш":{"ha":1114,"x_min":96,"x_max":1018,"o":"m 96 733 l 218 733 l 218 103 l 496 103 l 496 733 l 618 733 l 618 103 l 896 103 l 896 733 l 1018 733 l 1018 0 l 96 0 l 96 733 z "},"щ":{"ha":1143,"x_min":96,"x_max":1111,"o":"m 1000 0 l 96 0 l 96 733 l 218 733 l 218 103 l 493 103 l 493 733 l 615 733 l 615 103 l 889 103 l 889 733 l 1011 733 l 1011 103 l 1111 103 l 1111 -277 l 1000 -277 l 1000 0 z "},"џ":{"ha":766,"x_min":96,"x_max":671,"o":"m 328 0 l 96 0 l 96 733 l 218 733 l 218 103 l 549 103 l 549 733 l 671 733 l 671 0 l 439 0 l 439 -277 l 328 -277 l 328 0 z "},"я":{"ha":739,"x_min":11,"x_max":642,"o":"m 244 306 q 117 379 157 326 q 77 515 77 431 q 150 677 77 621 q 363 733 223 733 l 642 733 l 642 0 l 519 0 l 519 297 l 363 297 l 149 0 l 11 0 l 244 306 m 519 396 l 519 633 l 375 633 q 247 604 288 633 q 205 514 205 574 q 242 425 205 454 q 363 396 279 396 l 519 396 z "},"ь":{"ha":724,"x_min":96,"x_max":654,"o":"m 96 733 l 218 733 l 218 424 l 374 424 q 584 372 513 424 q 654 215 654 321 q 583 57 654 113 q 374 0 511 0 l 96 0 l 96 733 m 355 100 q 486 128 446 100 q 525 215 525 157 q 485 298 525 272 q 355 325 445 325 l 218 325 l 218 100 l 355 100 z "},"ъ":{"ha":868,"x_min":31,"x_max":811,"o":"m 253 631 l 31 631 l 31 733 l 375 733 l 375 424 l 529 424 q 740 373 669 424 q 811 215 811 321 q 740 57 811 113 q 530 0 668 0 l 253 0 l 253 631 m 513 100 q 643 129 604 100 q 682 215 682 157 q 642 298 682 272 q 513 325 602 325 l 375 325 l 375 100 l 513 100 z "},"ы":{"ha":999,"x_min":96,"x_max":901,"o":"m 96 733 l 218 733 l 218 424 l 374 424 q 584 372 513 424 q 654 215 654 321 q 583 57 654 113 q 374 0 511 0 l 96 0 l 96 733 m 781 733 l 901 733 l 901 0 l 781 0 l 781 733 m 355 100 q 486 128 446 100 q 525 215 525 157 q 485 298 525 272 q 355 325 445 325 l 218 325 l 218 100 l 355 100 z "},"љ":{"ha":1231,"x_min":7,"x_max":1174,"o":"m 71 -14 q 7 -4 46 -14 l 17 89 q 54 83 36 83 q 116 125 94 83 q 155 252 139 166 q 200 538 172 338 l 208 597 l 228 733 l 711 733 l 711 424 l 893 424 q 1103 372 1032 424 q 1174 215 1174 321 q 1102 57 1174 113 q 893 0 1030 0 l 587 0 l 587 631 l 338 631 l 326 553 q 266 199 292 310 q 197 38 241 89 q 71 -14 153 -14 m 875 100 q 1005 128 966 100 q 1044 215 1044 157 q 1004 298 1044 272 q 875 325 964 325 l 711 325 l 711 100 l 875 100 z "},"њ":{"ha":1129,"x_min":96,"x_max":1071,"o":"m 96 733 l 218 733 l 218 424 l 513 424 l 513 733 l 636 733 l 636 424 l 790 424 q 1001 373 930 424 q 1071 215 1071 321 q 999 57 1071 113 q 790 0 928 0 l 513 0 l 513 321 l 218 321 l 218 0 l 96 0 l 96 733 m 772 100 q 903 129 863 100 q 942 215 942 157 q 902 298 942 272 q 774 325 863 325 l 636 325 l 636 100 l 772 100 z "},"ѕ":{"ha":642,"x_min":28,"x_max":597,"o":"m 321 -14 q 158 15 235 -14 q 28 100 81 43 l 100 187 q 203 112 149 137 q 321 87 258 87 q 433 112 389 87 q 478 193 478 137 q 460 254 478 231 q 412 290 441 277 q 323 321 382 303 l 293 330 q 175 372 223 350 q 94 436 127 395 q 61 543 61 478 q 93 653 61 608 q 184 723 125 699 q 319 746 242 746 q 458 721 391 746 q 572 652 526 696 l 503 566 q 415 622 465 602 q 319 643 366 643 q 217 620 254 643 q 179 549 179 596 q 198 495 179 515 q 249 464 218 475 q 342 435 280 452 l 366 428 q 483 387 436 408 q 564 320 530 365 q 597 203 597 276 q 563 86 597 135 q 465 12 528 37 q 321 -14 402 -14 z "},"є":{"ha":681,"x_min":58,"x_max":657,"o":"m 392 -14 q 202 39 277 -14 q 93 178 127 92 q 58 368 58 264 q 105 584 58 498 q 228 708 153 669 q 392 747 304 747 q 539 718 479 747 q 652 628 600 688 l 566 550 q 487 619 525 597 q 390 640 448 640 q 250 582 302 640 q 189 422 199 524 l 467 422 l 467 319 l 189 319 q 246 157 198 218 q 389 96 294 96 q 461 106 429 96 q 523 136 494 117 q 591 184 552 154 l 657 94 q 545 19 610 51 q 392 -14 479 -14 z "},"э":{"ha":681,"x_min":24,"x_max":623,"o":"m 289 -14 q 143 15 205 -14 q 24 94 82 43 l 93 186 q 158 136 131 154 q 217 107 184 118 q 292 96 250 96 q 435 157 387 96 q 492 319 483 218 l 214 319 l 214 422 l 492 422 q 433 583 482 525 q 296 640 384 640 q 226 630 256 640 q 171 601 196 620 q 115 549 146 581 l 29 628 q 150 718 89 689 q 297 747 210 747 q 459 708 385 747 q 577 584 532 669 q 623 368 623 499 q 588 178 623 264 q 479 39 553 92 q 289 -14 404 -14 z "},"і":{"ha":309,"x_min":72,"x_max":235,"o":"m 154 869 q 95 893 119 869 q 72 951 72 916 q 95 1010 72 987 q 154 1034 119 1034 q 212 1010 189 1034 q 235 951 235 987 q 212 893 235 917 q 154 869 189 869 m 93 733 l 215 733 l 215 0 l 93 0 l 93 733 z "},"ї":{"ha":386,"x_min":-7,"x_max":391,"o":"m 93 733 l 215 733 l 215 0 l 93 0 l 93 733 m 62 839 q 13 859 33 839 q -7 908 -7 879 q 13 959 -7 938 q 62 979 33 979 q 112 959 92 979 q 132 908 132 938 q 112 859 132 879 q 62 839 92 839 m 322 839 q 273 859 293 839 q 253 908 253 879 q 273 959 253 938 q 322 979 293 979 q 371 959 351 979 q 391 908 391 938 q 371 859 391 879 q 322 839 351 839 z "},"ј":{"ha":309,"x_min":-33,"x_max":235,"o":"m 154 869 q 95 893 119 869 q 72 951 72 916 q 95 1010 72 987 q 154 1034 119 1034 q 212 1010 189 1034 q 235 951 235 987 q 212 893 235 917 q 154 869 189 869 m 53 -289 q -33 -282 -2 -289 l -25 -174 q 14 -178 -5 -178 q 62 -167 45 -178 q 86 -133 79 -156 q 93 -72 93 -111 l 93 733 l 215 733 l 215 -90 q 179 -236 215 -184 q 53 -289 143 -289 z "},"ћ":{"ha":772,"x_min":7,"x_max":682,"o":"m 450 747 q 630 673 578 747 q 682 489 682 600 l 682 0 l 559 0 l 559 465 q 528 591 559 544 q 408 639 496 639 q 308 614 351 639 q 242 542 265 589 q 218 433 218 496 l 218 0 l 96 0 l 96 818 l 7 818 l 7 907 l 96 907 l 96 1007 l 218 1007 l 218 907 l 422 907 l 422 818 l 218 818 l 218 745 q 216 665 218 706 q 212 608 214 623 l 215 608 q 311 715 256 682 q 450 747 367 747 z "},"ю":{"ha":1042,"x_min":96,"x_max":983,"o":"m 672 -14 q 514 26 581 -14 q 411 143 448 66 q 370 328 374 220 l 218 328 l 218 0 l 96 0 l 96 733 l 218 733 l 218 431 l 370 431 q 459 664 381 581 q 676 747 537 747 q 983 368 983 747 q 903 85 983 184 q 672 -14 823 -14 m 672 90 q 808 156 761 90 q 856 368 856 221 q 810 578 856 513 q 679 643 765 643 q 543 577 590 643 q 496 368 496 511 q 544 157 496 224 q 672 90 591 90 z "},"ђ":{"ha":772,"x_min":7,"x_max":682,"o":"m 450 747 q 630 673 578 747 q 682 489 682 600 l 682 -90 q 646 -236 682 -184 q 519 -289 610 -289 q 433 -282 465 -289 l 441 -174 q 481 -178 461 -178 q 530 -167 513 -178 q 553 -133 547 -156 q 559 -72 559 -111 l 559 465 q 528 591 559 544 q 408 639 496 639 q 308 614 351 639 q 242 542 265 589 q 218 433 218 496 l 218 0 l 96 0 l 96 818 l 7 818 l 7 907 l 96 907 l 96 1007 l 218 1007 l 218 907 l 422 907 l 422 818 l 218 818 l 218 745 q 216 665 218 706 q 212 608 214 623 l 215 608 q 311 715 256 682 q 450 747 367 747 z "},"Α":{"ha":871,"x_min":3,"x_max":868,"o":"m 646 258 l 228 258 l 138 0 l 3 0 l 363 956 l 515 956 l 868 0 l 736 0 l 646 258 m 606 371 l 493 696 q 458 788 475 743 q 437 852 442 833 q 415 785 431 831 q 380 694 399 740 l 267 371 l 606 371 z "},"Β":{"ha":899,"x_min":114,"x_max":825,"o":"m 114 956 l 465 956 q 787 721 787 956 q 744 577 787 637 q 619 497 701 516 q 731 457 684 488 q 801 378 777 427 q 825 269 825 330 q 780 116 825 176 q 659 28 735 56 q 488 0 583 0 l 114 0 l 114 956 m 461 550 q 612 589 566 550 q 659 703 659 629 q 610 805 659 773 q 465 838 562 838 l 243 838 l 243 550 l 461 550 m 481 118 q 640 154 584 118 q 696 279 696 191 q 637 397 696 359 q 471 435 578 435 l 243 435 l 243 118 l 481 118 z "},"Γ":{"ha":737,"x_min":114,"x_max":699,"o":"m 114 956 l 699 956 l 699 836 l 243 836 l 243 0 l 114 0 l 114 956 z "},"Δ":{"ha":822,"x_min":3,"x_max":819,"o":"m 819 96 l 819 0 l 3 0 l 3 96 l 339 956 l 488 956 l 819 96 m 681 111 l 468 685 q 412 850 441 757 q 355 684 395 791 l 143 111 l 681 111 z "},"Ε":{"ha":815,"x_min":114,"x_max":755,"o":"m 114 956 l 728 956 l 728 836 l 243 836 l 243 550 l 688 550 l 688 432 l 243 432 l 243 119 l 755 119 l 755 0 l 114 0 l 114 956 z "},"Ζ":{"ha":737,"x_min":17,"x_max":722,"o":"m 722 115 l 722 0 l 17 0 l 17 103 l 540 840 l 58 840 l 58 956 l 697 956 l 697 856 l 174 115 l 722 115 z "},"Η":{"ha":962,"x_min":114,"x_max":848,"o":"m 114 956 l 243 956 l 243 558 l 720 558 l 720 956 l 848 956 l 848 0 l 720 0 l 720 436 l 243 436 l 243 0 l 114 0 l 114 956 z "},"Θ":{"ha":1051,"x_min":65,"x_max":986,"o":"m 525 -14 q 278 50 382 -14 q 120 225 174 113 q 65 482 65 338 q 121 740 65 630 q 282 910 178 850 q 526 970 386 970 q 770 910 666 970 q 930 739 873 850 q 986 482 986 629 q 928 222 986 334 q 766 48 871 109 q 525 -14 662 -14 m 525 106 q 704 154 630 106 q 817 287 779 201 q 854 482 854 372 q 814 675 854 592 q 700 804 774 759 q 526 850 625 850 q 351 804 425 850 q 237 676 277 759 q 197 482 197 593 q 238 287 197 372 q 352 154 278 201 q 525 106 427 106 m 334 539 l 718 539 l 718 431 l 334 431 l 334 539 z "},"Ι":{"ha":386,"x_min":127,"x_max":258,"o":"m 127 956 l 258 956 l 258 0 l 127 0 l 127 956 z "},"Κ":{"ha":880,"x_min":114,"x_max":869,"o":"m 708 0 l 356 459 l 243 351 l 243 0 l 114 0 l 114 956 l 243 956 l 243 493 l 659 956 l 815 956 l 436 545 l 869 0 l 708 0 z "},"Λ":{"ha":872,"x_min":7,"x_max":865,"o":"m 368 956 l 504 956 l 865 0 l 729 0 l 493 665 q 456 773 471 727 q 436 833 441 819 q 414 767 431 819 q 379 665 397 715 l 143 0 l 7 0 l 368 956 z "},"Μ":{"ha":1157,"x_min":114,"x_max":1043,"o":"m 114 956 l 285 956 l 539 293 q 564 220 550 263 q 581 161 578 177 q 601 222 585 178 q 628 293 616 267 l 876 956 l 1043 956 l 1043 0 l 926 0 l 926 637 q 930 819 926 751 q 909 751 928 810 q 872 652 889 692 l 627 0 l 534 0 l 285 652 q 250 745 271 682 q 227 819 229 808 l 227 785 q 229 637 229 669 l 229 0 l 114 0 l 114 956 z "},"Ν":{"ha":977,"x_min":114,"x_max":863,"o":"m 114 956 l 267 956 l 750 143 q 748 220 749 161 q 746 329 746 279 l 746 956 l 863 956 l 863 0 l 703 0 l 227 807 q 228 739 227 789 q 229 635 229 688 l 229 0 l 114 0 l 114 956 z "},"Ξ":{"ha":847,"x_min":61,"x_max":786,"o":"m 85 956 l 762 956 l 762 836 l 85 836 l 85 956 m 167 550 l 681 550 l 681 432 l 167 432 l 167 550 m 61 119 l 786 119 l 786 0 l 61 0 l 61 119 z "},"Ο":{"ha":1023,"x_min":65,"x_max":958,"o":"m 511 -14 q 272 50 373 -14 q 118 225 172 113 q 65 482 65 338 q 120 740 65 630 q 275 910 174 850 q 513 970 376 970 q 749 910 648 970 q 904 739 850 850 q 958 482 958 629 q 903 222 958 334 q 746 48 847 109 q 511 -14 644 -14 m 511 106 q 683 154 612 106 q 790 287 754 201 q 827 482 827 372 q 788 675 827 592 q 679 804 749 759 q 513 850 608 850 q 344 804 415 850 q 235 676 273 759 q 197 482 197 593 q 236 287 197 372 q 346 154 275 201 q 511 106 417 106 z "},"Π":{"ha":977,"x_min":114,"x_max":863,"o":"m 114 956 l 863 956 l 863 0 l 732 0 l 732 832 l 243 832 l 243 0 l 114 0 l 114 956 z "},"Ρ":{"ha":885,"x_min":114,"x_max":811,"o":"m 114 956 l 475 956 q 661 920 585 956 q 773 819 736 884 q 811 665 811 753 q 774 511 811 579 q 663 405 736 444 q 482 366 589 366 l 243 366 l 243 0 l 114 0 l 114 956 m 464 482 q 628 529 574 482 q 682 664 682 575 q 626 793 682 749 q 458 838 569 838 l 243 838 l 243 482 l 464 482 z "},"Σ":{"ha":817,"x_min":74,"x_max":762,"o":"m 762 115 l 762 0 l 74 0 l 74 110 l 424 503 l 85 846 l 85 956 l 721 956 l 721 840 l 247 840 l 534 549 l 534 464 l 224 115 l 762 115 z "},"Τ":{"ha":791,"x_min":31,"x_max":761,"o":"m 332 836 l 31 836 l 31 956 l 761 956 l 761 836 l 461 836 l 461 0 l 332 0 l 332 836 z "},"Υ":{"ha":871,"x_min":31,"x_max":840,"o":"m 371 366 l 31 956 l 174 956 l 436 472 l 697 956 l 840 956 l 500 366 l 500 0 l 371 0 l 371 366 z "},"Φ":{"ha":1108,"x_min":79,"x_max":1029,"o":"m 492 146 l 435 146 q 239 193 319 146 q 119 321 159 241 q 79 498 79 401 q 120 679 79 602 q 242 797 161 755 q 443 839 323 839 l 492 839 l 492 962 l 616 962 l 616 839 l 665 839 q 866 797 785 839 q 989 679 948 755 q 1029 498 1029 602 q 989 321 1029 401 q 869 193 949 241 q 673 146 789 146 l 616 146 l 616 -7 l 492 -7 l 492 146 m 492 253 l 492 732 l 457 732 q 271 673 333 732 q 210 496 210 615 q 271 317 210 380 q 454 253 332 253 l 492 253 m 656 253 q 838 317 777 253 q 899 496 899 380 q 836 673 899 615 q 650 732 774 732 l 616 732 l 616 253 l 656 253 z "},"Χ":{"ha":872,"x_min":31,"x_max":842,"o":"m 694 0 l 439 410 l 178 0 l 31 0 l 370 496 l 58 956 l 207 956 l 440 589 l 667 956 l 814 956 l 513 501 l 842 0 l 694 0 z "},"Ψ":{"ha":1160,"x_min":98,"x_max":1063,"o":"m 518 289 l 461 289 q 263 337 345 289 q 140 465 182 385 q 98 642 98 545 l 98 956 l 228 956 l 228 639 q 256 515 228 569 q 341 430 285 460 q 479 399 398 399 l 518 399 l 518 956 l 643 956 l 643 399 l 681 399 q 821 430 764 399 q 904 514 877 460 q 932 639 932 568 l 932 956 l 1063 956 l 1063 642 q 1021 465 1063 545 q 897 337 979 385 q 699 289 814 289 l 643 289 l 643 0 l 518 0 l 518 289 z "},"Ω":{"ha":1039,"x_min":58,"x_max":979,"o":"m 58 119 l 225 119 q 339 114 252 119 l 366 113 q 155 297 233 186 q 78 543 78 408 q 131 771 78 675 q 284 919 184 867 q 519 970 383 970 q 754 919 654 970 q 906 771 853 867 q 960 543 960 675 q 884 295 960 406 q 672 113 808 184 l 701 114 q 812 119 788 119 l 979 119 l 979 0 l 579 0 l 579 165 q 767 325 706 231 q 828 534 828 419 q 792 705 828 635 q 686 813 755 776 q 519 850 617 850 q 352 813 421 850 q 246 705 282 776 q 210 534 210 635 q 271 325 210 419 q 458 165 332 231 l 458 0 l 58 0 l 58 119 z "},"Ά":{"ha":871,"x_min":3,"x_max":868,"o":"m 646 258 l 228 258 l 138 0 l 3 0 l 363 956 l 515 956 l 868 0 l 736 0 l 646 258 m 606 371 l 493 696 q 458 788 475 743 q 437 852 442 833 q 415 785 431 831 q 380 694 399 740 l 267 371 l 606 371 m 9 758 l 56 956 l 196 956 l 196 930 l 60 736 l 9 736 l 9 758 z "},"Έ":{"ha":815,"x_min":-129,"x_max":755,"o":"m 114 956 l 728 956 l 728 836 l 243 836 l 243 550 l 688 550 l 688 432 l 243 432 l 243 119 l 755 119 l 755 0 l 114 0 l 114 956 m -129 758 l -82 956 l 58 956 l 58 930 l -77 736 l -129 736 l -129 758 z "},"Ή":{"ha":962,"x_min":-129,"x_max":848,"o":"m 114 956 l 243 956 l 243 558 l 720 558 l 720 956 l 848 956 l 848 0 l 720 0 l 720 436 l 243 436 l 243 0 l 114 0 l 114 956 m -129 758 l -82 956 l 58 956 l 58 930 l -77 736 l -129 736 l -129 758 z "},"Ί":{"ha":386,"x_min":-115,"x_max":258,"o":"m 127 956 l 258 956 l 258 0 l 127 0 l 127 956 m -115 758 l -68 956 l 72 956 l 72 930 l -64 736 l -115 736 l -115 758 z "},"Ό":{"ha":1023,"x_min":-77,"x_max":958,"o":"m 511 -14 q 272 50 373 -14 q 118 225 172 113 q 65 482 65 338 q 120 740 65 630 q 275 910 174 850 q 513 970 376 970 q 749 910 648 970 q 904 739 850 850 q 958 482 958 629 q 903 222 958 334 q 746 48 847 109 q 511 -14 644 -14 m 511 106 q 683 154 612 106 q 790 287 754 201 q 827 482 827 372 q 788 675 827 592 q 679 804 749 759 q 513 850 608 850 q 344 804 415 850 q 235 676 273 759 q 197 482 197 593 q 236 287 197 372 q 346 154 275 201 q 511 106 417 106 m -77 758 l -31 956 l 110 956 l 110 930 l -26 736 l -77 736 l -77 758 z "},"Ύ":{"ha":871,"x_min":-215,"x_max":840,"o":"m 371 366 l 31 956 l 174 956 l 436 472 l 697 956 l 840 956 l 500 366 l 500 0 l 371 0 l 371 366 m -215 758 l -168 956 l -28 956 l -28 930 l -163 736 l -215 736 l -215 758 z "},"Ώ":{"ha":1039,"x_min":-79,"x_max":979,"o":"m 58 119 l 225 119 q 339 114 252 119 l 366 113 q 155 297 233 186 q 78 543 78 408 q 131 771 78 675 q 284 919 184 867 q 519 970 383 970 q 754 919 654 970 q 906 771 853 867 q 960 543 960 675 q 884 295 960 406 q 672 113 808 184 l 701 114 q 812 119 788 119 l 979 119 l 979 0 l 579 0 l 579 165 q 767 325 706 231 q 828 534 828 419 q 792 705 828 635 q 686 813 755 776 q 519 850 617 850 q 352 813 421 850 q 246 705 282 776 q 210 534 210 635 q 271 325 210 419 q 458 165 332 231 l 458 0 l 58 0 l 58 119 m -79 758 l -32 956 l 109 956 l 109 930 l -27 736 l -79 736 l -79 758 z "},"Ϊ":{"ha":386,"x_min":-7,"x_max":395,"o":"m 127 956 l 258 956 l 258 0 l 127 0 l 127 956 m 64 1038 q 14 1058 35 1038 q -7 1108 -7 1078 q 14 1160 -7 1139 q 64 1181 35 1181 q 114 1160 93 1181 q 135 1108 135 1139 q 114 1058 135 1078 q 64 1038 93 1038 m 323 1038 q 274 1058 294 1038 q 253 1108 253 1078 q 274 1160 253 1139 q 323 1181 294 1181 q 374 1160 353 1181 q 395 1108 395 1139 q 374 1058 395 1078 q 323 1038 353 1038 z "},"Ϋ":{"ha":871,"x_min":31,"x_max":840,"o":"m 371 366 l 31 956 l 174 956 l 436 472 l 697 956 l 840 956 l 500 366 l 500 0 l 371 0 l 371 366 m 307 1038 q 257 1058 277 1038 q 236 1108 236 1078 q 257 1160 236 1139 q 307 1181 277 1181 q 357 1160 336 1181 q 378 1108 378 1139 q 357 1058 378 1078 q 307 1038 336 1038 m 566 1038 q 516 1058 537 1038 q 496 1108 496 1078 q 516 1160 496 1139 q 566 1181 537 1181 q 616 1160 595 1181 q 637 1108 637 1139 q 616 1058 637 1078 q 566 1038 595 1038 z "},"α":{"ha":857,"x_min":58,"x_max":836,"o":"m 318 -14 q 123 81 188 -14 q 58 361 58 176 q 94 572 58 486 q 196 703 130 659 q 354 747 262 747 q 526 685 463 747 q 611 497 589 622 l 614 481 l 620 503 q 629 533 630 534 q 656 617 641 566 q 694 734 679 693 l 814 734 q 766 619 787 675 q 715 485 744 563 l 673 371 l 692 262 q 712 160 703 194 q 735 110 722 126 q 774 94 749 94 q 819 100 798 94 l 836 5 q 745 -8 781 -8 q 672 16 698 -8 q 633 82 646 40 q 606 204 620 125 l 597 250 l 585 216 q 525 92 556 141 q 443 15 493 43 q 318 -14 393 -14 m 335 92 q 418 116 385 92 q 477 185 452 140 q 538 318 502 231 l 557 367 l 551 406 q 490 583 533 524 q 363 643 448 643 q 272 613 312 643 q 209 520 233 583 q 186 361 186 457 q 335 92 186 92 z "},"β":{"ha":799,"x_min":96,"x_max":745,"o":"m 528 538 q 634 497 585 528 q 714 411 683 467 q 745 275 745 355 q 711 127 745 193 q 609 24 678 62 q 435 -14 539 -14 q 315 4 370 -14 q 218 50 259 22 l 214 50 q 218 -87 218 -40 l 218 -289 l 96 -289 l 96 696 q 173 931 96 855 q 404 1007 250 1007 q 608 945 537 1007 q 679 770 679 882 q 528 538 679 601 m 429 86 q 576 136 524 86 q 628 272 628 186 q 572 421 628 366 q 400 476 515 476 l 400 574 q 524 638 485 591 q 562 768 562 686 q 523 867 562 829 q 406 905 484 905 q 264 856 309 905 q 218 693 218 806 l 218 149 q 314 104 257 121 q 429 86 372 86 z "},"γ":{"ha":717,"x_min":0,"x_max":677,"o":"m 248 -289 q 258 -151 248 -227 q 288 -1 269 -76 q 228 222 265 92 q 157 454 191 353 q 115 568 134 528 q 77 625 96 608 q 31 642 57 642 q 9 639 18 642 l 0 741 q 20 743 7 742 q 43 745 32 745 q 131 729 96 745 q 195 664 165 713 q 257 518 225 616 q 298 375 277 456 q 346 182 319 294 l 363 113 q 492 416 435 252 q 549 734 549 580 l 677 734 q 636 489 677 618 q 538 244 595 359 q 406 0 481 130 q 384 -144 391 -68 q 376 -289 376 -220 l 248 -289 z "},"δ":{"ha":774,"x_min":58,"x_max":714,"o":"m 521 703 q 623 588 583 639 q 688 471 662 538 q 714 322 714 405 q 676 146 714 222 q 564 28 637 71 q 387 -14 490 -14 q 211 26 285 -14 q 97 142 136 66 q 58 321 58 217 q 144 554 58 463 q 374 696 231 646 l 157 926 l 157 1007 l 654 1007 l 654 909 l 411 909 q 386 910 399 909 q 362 911 374 911 q 315 914 349 913 l 521 703 m 387 90 q 538 152 491 90 q 586 319 586 213 q 541 496 586 420 q 436 631 495 572 q 256 513 327 591 q 186 319 186 435 q 208 201 186 253 q 275 120 230 150 q 387 90 320 90 z "},"ε":{"ha":619,"x_min":47,"x_max":591,"o":"m 301 -14 q 160 13 216 -14 q 75 88 103 40 q 47 200 47 136 q 71 291 47 251 q 136 354 95 330 q 227 382 176 378 l 227 383 q 145 411 180 389 q 89 470 109 433 q 69 551 69 506 q 99 652 69 608 q 186 722 130 697 q 319 747 243 747 q 571 629 489 747 l 488 562 q 414 623 456 602 q 319 643 371 643 q 226 618 258 643 q 193 549 193 593 q 224 473 193 499 q 307 438 255 447 q 436 429 358 429 l 436 338 q 301 329 357 338 q 210 290 246 320 q 174 203 174 260 q 211 121 174 150 q 310 92 248 92 q 431 120 376 92 q 521 186 486 149 l 591 111 q 472 22 545 57 q 301 -14 399 -14 z "},"ζ":{"ha":612,"x_min":58,"x_max":586,"o":"m 374 96 q 484 60 444 77 q 555 9 525 44 q 586 -82 586 -25 q 568 -163 586 -122 q 529 -239 551 -205 l 437 -200 q 464 -153 452 -178 q 475 -104 475 -127 q 455 -58 475 -75 q 405 -30 436 -40 q 310 -4 373 -19 q 182 36 233 14 q 95 107 131 58 q 58 240 58 156 q 168 565 58 391 q 440 914 277 738 q 358 911 386 911 l 126 911 l 126 1007 l 562 1007 l 562 921 q 295 568 402 740 q 187 257 187 396 q 211 173 187 203 q 269 129 234 142 q 374 96 304 115 z "},"η":{"ha":772,"x_min":11,"x_max":682,"o":"m 559 437 q 525 590 559 541 q 408 639 490 639 q 308 614 351 639 q 242 541 265 589 q 218 425 218 493 l 218 0 l 96 0 l 96 553 q 84 619 96 601 q 46 637 72 637 q 25 635 39 637 l 11 728 q 89 741 48 741 q 178 710 149 741 q 212 612 206 680 l 215 612 q 309 713 254 678 q 450 747 364 747 q 682 461 682 747 l 682 -289 l 559 -289 l 559 437 z "},"θ":{"ha":772,"x_min":72,"x_max":700,"o":"m 383 -14 q 153 114 233 -14 q 72 497 72 241 q 151 878 72 751 q 387 1006 230 1006 q 566 950 496 1006 q 667 782 635 894 q 700 497 700 669 q 620 114 700 241 q 383 -14 539 -14 m 572 553 q 547 766 569 688 q 486 876 525 844 q 389 908 447 908 q 290 876 330 908 q 227 766 250 844 q 201 553 204 688 l 572 553 m 382 86 q 481 119 441 86 q 546 232 522 152 q 572 450 569 312 l 201 450 q 253 169 205 251 q 382 86 300 86 z "},"ι":{"ha":351,"x_min":93,"x_max":323,"o":"m 227 -14 q 124 25 155 -14 q 93 154 93 64 l 93 733 l 215 733 l 215 175 q 227 109 215 127 q 265 90 239 90 q 295 93 282 90 q 310 96 307 95 l 323 0 q 275 -10 297 -7 q 227 -14 252 -14 z "},"κ":{"ha":694,"x_min":93,"x_max":696,"o":"m 93 733 l 215 733 l 215 383 l 532 733 l 681 733 l 383 418 l 696 0 l 553 0 l 306 335 l 215 256 l 215 0 l 93 0 l 93 733 z "},"λ":{"ha":690,"x_min":9,"x_max":700,"o":"m 700 -8 q 602 13 640 -8 q 535 83 564 33 q 471 229 505 132 l 412 392 q 370 536 379 489 q 342 464 361 509 q 318 406 323 418 l 311 390 l 136 0 l 9 0 l 314 654 l 289 722 q 244 833 260 800 q 207 884 229 866 q 149 901 184 901 q 131 899 142 901 q 117 895 119 897 l 89 990 q 132 1002 109 998 q 176 1007 156 1007 q 264 985 228 1007 q 330 914 300 964 q 393 774 359 864 l 575 281 q 623 161 608 196 q 654 110 639 126 q 690 94 669 94 l 700 -8 z "},"μ":{"ha":789,"x_min":93,"x_max":785,"o":"m 93 733 l 216 733 l 216 297 q 257 149 216 202 q 390 96 297 96 q 482 124 444 96 q 539 202 519 152 q 558 315 558 252 l 558 733 l 681 733 l 681 180 q 693 109 681 128 q 730 89 705 89 q 771 94 748 89 l 785 0 q 692 -14 734 -14 q 598 15 628 -14 q 564 110 568 44 l 561 110 q 485 16 526 45 q 376 -14 444 -14 q 280 7 321 -14 q 216 64 239 27 l 214 64 q 216 -14 216 36 l 216 -289 l 93 -289 l 93 733 z "},"ν":{"ha":765,"x_min":-1,"x_max":708,"o":"m 296 0 q 218 263 249 161 q 158 446 188 364 q 113 569 132 528 q 76 626 94 610 q 32 642 58 642 q 11 639 20 642 l -1 741 q 19 743 7 742 q 41 745 31 745 q 126 729 94 745 q 189 665 159 713 q 253 519 219 617 q 314 323 281 437 q 375 110 348 209 q 519 414 458 248 q 581 733 581 581 l 708 733 q 663 483 708 614 q 558 240 618 352 q 418 0 497 127 l 296 0 z "},"ξ":{"ha":623,"x_min":58,"x_max":593,"o":"m 374 96 q 488 60 446 76 q 561 9 529 43 q 593 -82 593 -25 q 576 -160 593 -121 q 536 -239 560 -198 l 444 -199 q 471 -152 459 -177 q 482 -103 482 -126 q 463 -58 482 -75 q 414 -31 444 -41 q 326 -8 383 -21 l 310 -4 q 182 36 233 14 q 95 107 131 58 q 58 240 58 156 q 91 377 58 313 q 193 487 123 441 q 371 550 263 534 l 371 551 q 258 578 308 556 q 180 640 209 600 q 151 733 151 679 q 203 853 151 809 q 329 916 254 898 q 164 911 196 911 l 114 911 l 114 1007 l 545 1007 l 545 922 q 346 867 419 906 q 272 746 272 828 q 304 661 272 692 q 389 616 337 630 q 515 595 441 602 l 515 505 q 278 426 368 488 q 187 257 187 365 q 211 173 187 203 q 269 129 234 142 q 374 96 304 115 z "},"ο":{"ha":772,"x_min":58,"x_max":714,"o":"m 383 -14 q 209 34 282 -14 q 97 167 136 81 q 58 368 58 253 q 96 567 58 481 q 207 700 133 652 q 387 747 281 747 q 633 646 552 747 q 714 368 714 545 q 676 167 714 253 q 564 34 638 81 q 383 -14 489 -14 m 382 90 q 532 159 479 90 q 586 368 586 228 q 535 575 586 507 q 389 643 484 643 q 239 573 293 643 q 186 368 186 504 q 211 214 186 276 q 281 121 237 151 q 382 90 325 90 z "},"π":{"ha":958,"x_min":54,"x_max":897,"o":"m 764 -14 q 651 25 685 -14 q 616 154 616 64 l 616 631 l 345 631 l 345 596 q 326 269 345 429 q 278 0 307 109 l 150 0 q 203 279 180 123 q 225 590 225 435 l 225 631 l 216 631 q 128 625 166 631 q 68 611 90 620 l 54 714 q 112 728 71 722 q 201 733 152 733 l 897 733 l 897 631 l 739 631 l 739 180 q 755 114 739 132 q 803 96 770 96 q 825 97 812 96 q 847 102 838 99 l 861 0 q 812 -10 835 -7 q 764 -14 790 -14 z "},"ρ":{"ha":790,"x_min":89,"x_max":734,"o":"m 89 395 q 125 582 89 502 q 231 705 161 661 q 399 749 301 749 q 569 701 492 749 q 690 563 646 654 q 734 350 734 473 q 697 161 734 244 q 592 33 660 79 q 437 -14 525 -14 q 305 11 358 -14 q 211 83 252 35 l 208 83 q 211 0 211 31 l 211 -289 l 89 -289 l 89 395 m 422 90 q 558 161 511 90 q 604 355 604 231 q 578 510 604 445 q 504 610 552 575 q 390 644 455 644 q 211 392 211 644 l 211 191 q 306 117 250 144 q 422 90 363 90 z "},"ς":{"ha":669,"x_min":58,"x_max":627,"o":"m 476 -200 q 503 -153 491 -178 q 514 -104 514 -127 q 495 -61 514 -79 q 441 -30 475 -43 q 345 1 406 -16 q 183 62 243 30 q 91 156 124 95 q 58 322 58 218 q 91 501 58 401 q 199 674 124 600 q 395 747 275 747 q 493 736 452 747 q 559 707 534 724 q 608 665 585 690 l 530 583 q 468 623 500 608 q 395 637 436 637 q 280 585 327 637 q 210 457 233 532 q 187 319 187 382 q 208 220 187 258 q 274 156 228 182 q 407 102 320 129 l 429 94 q 531 57 491 75 q 598 5 570 39 q 627 -82 627 -29 q 610 -160 627 -121 q 571 -239 594 -199 l 476 -200 z "},"σ":{"ha":857,"x_min":58,"x_max":836,"o":"m 395 -14 q 144 82 230 -14 q 58 355 58 178 q 108 566 58 481 q 245 692 157 651 q 450 733 334 733 l 836 733 l 836 631 l 724 631 q 655 633 711 631 l 624 635 l 624 632 q 698 493 670 565 q 726 334 726 421 q 689 152 726 231 q 577 30 652 74 q 395 -14 503 -14 m 389 90 q 546 153 493 90 q 599 330 599 216 q 515 631 599 494 l 454 631 q 317 601 378 631 q 222 510 257 571 q 187 357 187 448 q 238 158 187 225 q 389 90 290 90 z "},"τ":{"ha":549,"x_min":20,"x_max":538,"o":"m 355 -14 q 242 25 277 -14 q 208 154 208 64 l 208 631 l 191 631 q 93 626 136 631 q 35 611 51 621 l 20 714 q 73 728 35 722 q 144 733 111 733 l 538 733 l 538 631 l 330 631 l 330 180 q 346 114 330 132 q 395 96 362 96 q 417 97 404 96 q 439 102 430 99 l 453 0 q 404 -10 427 -7 q 355 -14 382 -14 z "},"υ":{"ha":760,"x_min":90,"x_max":693,"o":"m 378 -14 q 215 18 278 -14 q 121 114 152 49 q 90 285 90 180 l 90 733 l 212 733 l 212 281 q 253 141 212 187 q 383 94 294 94 q 491 124 450 94 q 550 217 531 153 q 568 385 568 280 q 544 574 568 472 q 490 733 520 675 l 618 733 q 670 575 648 670 q 693 387 693 481 q 616 91 693 195 q 378 -14 539 -14 z "},"φ":{"ha":900,"x_min":58,"x_max":842,"o":"m 387 -12 q 143 90 229 -5 q 58 370 58 184 q 89 546 58 465 q 181 680 119 626 q 338 750 244 734 l 366 650 q 186 367 186 609 q 235 162 186 229 q 387 90 285 96 l 387 473 q 441 677 387 606 q 600 749 494 749 q 730 704 675 749 q 813 577 785 659 q 842 383 842 494 q 752 93 842 189 q 503 -12 662 -3 l 503 -289 l 387 -289 l 387 -12 m 503 90 q 663 167 612 95 q 714 385 714 239 q 685 576 714 509 q 602 644 655 644 q 528 603 554 644 q 503 476 503 562 l 503 90 z "},"χ":{"ha":729,"x_min":14,"x_max":713,"o":"m 313 272 l 197 504 q 153 585 170 559 q 111 628 136 612 q 50 644 87 644 l 43 746 q 148 733 108 746 q 219 682 187 720 q 285 568 250 645 l 380 368 l 559 733 l 688 733 l 437 261 l 713 -289 l 583 -289 l 368 163 l 142 -289 l 14 -289 l 313 272 z "},"ψ":{"ha":990,"x_min":92,"x_max":897,"o":"m 436 -14 q 239 20 315 -12 q 127 119 163 52 q 92 297 92 186 l 92 733 l 214 733 l 214 296 q 237 176 214 220 q 308 114 260 133 q 436 94 355 96 l 436 908 l 551 908 l 551 94 q 682 114 633 95 q 752 176 730 132 q 775 296 775 219 l 775 733 l 897 733 l 897 297 q 861 119 897 186 q 750 20 825 52 q 551 -14 674 -12 l 551 -289 l 436 -289 l 436 -14 z "},"ω":{"ha":1084,"x_min":57,"x_max":1028,"o":"m 325 -14 q 179 29 239 -14 q 88 153 119 72 q 57 350 57 235 q 76 551 57 452 q 127 733 94 650 l 267 733 q 205 557 227 658 q 184 347 184 456 q 219 159 184 224 q 338 94 254 94 q 447 150 408 94 q 486 304 486 205 l 486 475 l 599 475 l 599 304 q 638 150 599 205 q 746 94 677 94 q 864 159 830 94 q 899 347 899 223 q 877 557 899 456 q 815 733 856 658 l 957 733 q 1009 551 991 650 q 1028 350 1028 452 q 996 154 1028 235 q 904 29 964 72 q 758 -14 843 -14 q 617 29 669 -14 q 543 154 566 71 l 541 154 q 467 29 519 72 q 325 -14 414 -14 z "},"ί":{"ha":351,"x_min":93,"x_max":323,"o":"m 227 -14 q 124 25 155 -14 q 93 154 93 64 l 93 733 l 215 733 l 215 175 q 227 109 215 127 q 265 90 239 90 q 295 93 282 90 q 310 96 307 95 l 323 0 q 275 -10 297 -7 q 227 -14 252 -14 m 110 848 l 157 1046 l 297 1046 l 297 1021 l 161 827 l 110 827 l 110 848 z "},"ϊ":{"ha":351,"x_min":-43,"x_max":355,"o":"m 227 -14 q 124 25 155 -14 q 93 154 93 64 l 93 733 l 215 733 l 215 175 q 227 109 215 127 q 265 90 239 90 q 295 93 282 90 q 310 96 307 95 l 323 0 q 275 -10 297 -7 q 227 -14 252 -14 m 26 839 q -23 859 -3 839 q -43 908 -43 879 q -23 959 -43 938 q 26 979 -3 979 q 75 959 55 979 q 96 908 96 938 q 75 859 96 879 q 26 839 55 839 m 286 839 q 236 859 256 839 q 216 908 216 879 q 236 959 216 938 q 286 979 256 979 q 335 959 315 979 q 355 908 355 938 q 335 859 355 879 q 286 839 315 839 z "},"ΐ":{"ha":351,"x_min":-58,"x_max":373,"o":"m 227 -14 q 124 25 155 -14 q 93 154 93 64 l 93 733 l 215 733 l 215 175 q 227 109 215 127 q 265 90 239 90 q 295 93 282 90 q 310 96 307 95 l 323 0 q 275 -10 297 -7 q 227 -14 252 -14 m 104 836 l 151 1086 l 277 1086 l 277 1061 l 155 814 l 104 814 l 104 836 m 3 828 q -41 846 -23 828 q -58 889 -58 863 q -40 932 -58 914 q 3 950 -22 950 q 46 932 28 950 q 64 889 64 914 q 46 846 64 863 q 3 828 28 828 m 312 828 q 269 846 287 828 q 251 889 251 863 q 269 932 251 914 q 312 950 287 950 q 355 932 337 950 q 373 889 373 914 q 355 846 373 863 q 312 828 337 828 z "},"ύ":{"ha":760,"x_min":90,"x_max":693,"o":"m 378 -14 q 215 18 278 -14 q 121 114 152 49 q 90 285 90 180 l 90 733 l 212 733 l 212 281 q 253 141 212 187 q 383 94 294 94 q 491 124 450 94 q 550 217 531 153 q 568 385 568 280 q 544 574 568 472 q 490 733 520 675 l 618 733 q 670 575 648 670 q 693 387 693 481 q 616 91 693 195 q 378 -14 539 -14 m 331 848 l 378 1046 l 518 1046 l 518 1021 l 382 827 l 331 827 l 331 848 z "},"ϋ":{"ha":760,"x_min":90,"x_max":693,"o":"m 378 -14 q 215 18 278 -14 q 121 114 152 49 q 90 285 90 180 l 90 733 l 212 733 l 212 281 q 253 141 212 187 q 383 94 294 94 q 491 124 450 94 q 550 217 531 153 q 568 385 568 280 q 544 574 568 472 q 490 733 520 675 l 618 733 q 670 575 648 670 q 693 387 693 481 q 616 91 693 195 q 378 -14 539 -14 m 247 839 q 198 859 218 839 q 178 908 178 879 q 198 959 178 938 q 247 979 218 979 q 296 959 276 979 q 317 908 317 938 q 296 859 317 879 q 247 839 276 839 m 507 839 q 457 859 477 839 q 437 908 437 879 q 457 959 437 938 q 507 979 477 979 q 556 959 536 979 q 576 908 576 938 q 556 859 576 879 q 507 839 536 839 z "},"ΰ":{"ha":760,"x_min":90,"x_max":693,"o":"m 378 -14 q 215 18 278 -14 q 121 114 152 49 q 90 285 90 180 l 90 733 l 212 733 l 212 281 q 253 141 212 187 q 383 94 294 94 q 491 124 450 94 q 550 217 531 153 q 568 385 568 280 q 544 574 568 472 q 490 733 520 675 l 618 733 q 670 575 648 670 q 693 387 693 481 q 616 91 693 195 q 378 -14 539 -14 m 325 836 l 372 1086 l 498 1086 l 498 1061 l 376 814 l 325 814 l 325 836 m 224 828 q 180 846 198 828 q 163 889 163 863 q 181 932 163 914 q 224 950 199 950 q 267 932 249 950 q 285 889 285 914 q 267 846 285 863 q 224 828 249 828 m 533 828 q 490 846 508 828 q 472 889 472 863 q 490 932 472 914 q 533 950 508 950 q 576 932 558 950 q 594 889 594 914 q 576 846 594 863 q 533 828 558 828 z "},"ό":{"ha":772,"x_min":58,"x_max":714,"o":"m 383 -14 q 209 34 282 -14 q 97 167 136 81 q 58 368 58 253 q 96 567 58 481 q 207 700 133 652 q 387 747 281 747 q 633 646 552 747 q 714 368 714 545 q 676 167 714 253 q 564 34 638 81 q 383 -14 489 -14 m 382 90 q 532 159 479 90 q 586 368 586 228 q 535 575 586 507 q 389 643 484 643 q 239 573 293 643 q 186 368 186 504 q 211 214 186 276 q 281 121 237 151 q 382 90 325 90 m 339 848 l 386 1046 l 526 1046 l 526 1021 l 391 827 l 339 827 l 339 848 z "},"ώ":{"ha":1084,"x_min":57,"x_max":1028,"o":"m 325 -14 q 179 29 239 -14 q 88 153 119 72 q 57 350 57 235 q 76 551 57 452 q 127 733 94 650 l 267 733 q 205 557 227 658 q 184 347 184 456 q 219 159 184 224 q 338 94 254 94 q 447 150 408 94 q 486 304 486 205 l 486 475 l 599 475 l 599 304 q 638 150 599 205 q 746 94 677 94 q 864 159 830 94 q 899 347 899 223 q 877 557 899 456 q 815 733 856 658 l 957 733 q 1009 551 991 650 q 1028 350 1028 452 q 996 154 1028 235 q 904 29 964 72 q 758 -14 843 -14 q 617 29 669 -14 q 543 154 566 71 l 541 154 q 467 29 519 72 q 325 -14 414 -14 m 496 848 l 543 1046 l 684 1046 l 684 1021 l 548 827 l 496 827 l 496 848 z "},"ά":{"ha":857,"x_min":58,"x_max":836,"o":"m 318 -14 q 123 81 188 -14 q 58 361 58 176 q 94 572 58 486 q 196 703 130 659 q 354 747 262 747 q 526 685 463 747 q 611 497 589 622 l 614 481 l 620 503 q 629 533 630 534 q 656 617 641 566 q 694 734 679 693 l 814 734 q 766 619 787 675 q 715 485 744 563 l 673 371 l 692 262 q 712 160 703 194 q 735 110 722 126 q 774 94 749 94 q 819 100 798 94 l 836 5 q 745 -8 781 -8 q 672 16 698 -8 q 633 82 646 40 q 606 204 620 125 l 597 250 l 585 216 q 525 92 556 141 q 443 15 493 43 q 318 -14 393 -14 m 335 92 q 418 116 385 92 q 477 185 452 140 q 538 318 502 231 l 557 367 l 551 406 q 490 583 533 524 q 363 643 448 643 q 272 613 312 643 q 209 520 233 583 q 186 361 186 457 q 335 92 186 92 m 355 848 l 401 1046 l 542 1046 l 542 1021 l 406 827 l 355 827 l 355 848 z "},"έ":{"ha":619,"x_min":47,"x_max":591,"o":"m 301 -14 q 160 13 216 -14 q 75 88 103 40 q 47 200 47 136 q 71 291 47 251 q 136 354 95 330 q 227 382 176 378 l 227 383 q 145 411 180 389 q 89 470 109 433 q 69 551 69 506 q 99 652 69 608 q 186 722 130 697 q 319 747 243 747 q 571 629 489 747 l 488 562 q 414 623 456 602 q 319 643 371 643 q 226 618 258 643 q 193 549 193 593 q 224 473 193 499 q 307 438 255 447 q 436 429 358 429 l 436 338 q 301 329 357 338 q 210 290 246 320 q 174 203 174 260 q 211 121 174 150 q 310 92 248 92 q 431 120 376 92 q 521 186 486 149 l 591 111 q 472 22 545 57 q 301 -14 399 -14 m 263 848 l 310 1046 l 450 1046 l 450 1021 l 315 827 l 263 827 l 263 848 z "},"ή":{"ha":772,"x_min":11,"x_max":682,"o":"m 559 437 q 525 590 559 541 q 408 639 490 639 q 308 614 351 639 q 242 541 265 589 q 218 425 218 493 l 218 0 l 96 0 l 96 553 q 84 619 96 601 q 46 637 72 637 q 25 635 39 637 l 11 728 q 89 741 48 741 q 178 710 149 741 q 212 612 206 680 l 215 612 q 309 713 254 678 q 450 747 364 747 q 682 461 682 747 l 682 -289 l 559 -289 l 559 437 m 339 848 l 386 1046 l 526 1046 l 526 1021 l 391 827 l 339 827 l 339 848 z "},"⁄":{"ha":232,"x_min":-240,"x_max":456,"o":"m 357 956 l 456 956 l -140 0 l -240 0 l 357 956 z "},"½":{"ha":1174,"x_min":57,"x_max":1133,"o":"m 57 450 l 203 450 l 203 873 l 58 785 l 58 863 l 210 956 l 297 956 l 297 450 l 422 450 l 422 382 l 57 382 l 57 450 m 842 956 l 941 956 l 345 0 l 245 0 l 842 956 m 1133 74 l 1133 0 l 750 0 l 750 60 l 921 250 q 985 325 964 298 q 1016 375 1006 351 q 1027 424 1027 398 q 1005 483 1027 462 q 947 504 983 504 q 878 484 911 504 q 808 424 844 463 l 750 484 q 841 557 789 532 q 951 582 892 582 q 1040 564 1001 582 q 1100 510 1078 546 q 1122 424 1122 475 q 1108 355 1122 387 q 1071 295 1093 323 q 1007 223 1048 267 l 979 193 l 870 74 l 1133 74 z "},"⅓":{"ha":1174,"x_min":57,"x_max":1135,"o":"m 57 450 l 203 450 l 203 873 l 58 785 l 58 863 l 210 956 l 297 956 l 297 450 l 422 450 l 422 382 l 57 382 l 57 450 m 842 956 l 941 956 l 345 0 l 245 0 l 842 956 m 942 -9 q 817 21 865 -9 q 749 103 769 52 l 833 140 q 941 68 867 68 q 1039 161 1039 68 q 1001 232 1039 213 q 914 250 964 250 l 884 250 l 884 330 l 913 330 q 991 352 957 330 q 1025 422 1025 373 q 1003 481 1025 460 q 941 503 981 503 q 836 436 878 503 l 762 482 q 841 557 793 532 q 946 582 889 582 q 1044 562 1004 582 q 1102 507 1083 541 q 1121 428 1121 472 q 1092 340 1121 375 q 1006 296 1062 305 l 1006 293 q 1103 251 1072 288 q 1135 160 1135 214 q 1083 35 1135 80 q 942 -9 1032 -9 z "},"⅔":{"ha":1174,"x_min":33,"x_max":1135,"o":"m 416 456 l 416 382 l 33 382 l 33 441 l 204 632 q 268 706 247 680 q 299 756 289 733 q 310 806 310 780 q 288 865 310 844 q 231 886 267 886 q 161 865 194 886 q 92 806 127 845 l 33 865 q 124 939 73 913 q 235 964 176 964 q 323 946 284 964 q 384 892 361 928 q 406 806 406 857 q 391 737 406 769 q 354 677 376 705 q 290 605 332 649 l 262 575 l 153 456 l 416 456 m 842 956 l 941 956 l 345 0 l 245 0 l 842 956 m 942 -9 q 817 21 865 -9 q 749 103 769 52 l 833 140 q 941 68 867 68 q 1039 161 1039 68 q 1001 232 1039 213 q 914 250 964 250 l 884 250 l 884 330 l 913 330 q 991 352 957 330 q 1025 422 1025 373 q 1003 481 1025 460 q 941 503 981 503 q 836 436 878 503 l 762 482 q 841 557 793 532 q 946 582 889 582 q 1044 562 1004 582 q 1102 507 1083 541 q 1121 428 1121 472 q 1092 340 1121 375 q 1006 296 1062 305 l 1006 293 q 1103 251 1072 288 q 1135 160 1135 214 q 1083 35 1135 80 q 942 -9 1032 -9 z "},"¼":{"ha":1089,"x_min":57,"x_max":1080,"o":"m 57 450 l 203 450 l 203 873 l 58 785 l 58 863 l 210 956 l 297 956 l 297 450 l 422 450 l 422 382 l 57 382 l 57 450 m 842 956 l 941 956 l 345 0 l 245 0 l 842 956 m 917 129 l 654 129 l 654 195 l 903 574 l 1008 574 l 1008 195 l 1080 195 l 1080 129 l 1008 129 l 1008 0 l 917 0 l 917 129 m 917 195 l 917 410 q 920 484 917 444 q 895 443 913 475 q 882 423 888 433 q 869 403 876 413 l 757 235 q 729 195 748 222 l 917 195 z "},"¾":{"ha":1061,"x_min":32,"x_max":1053,"o":"m 225 372 q 100 403 148 372 q 32 485 52 434 l 117 522 q 224 450 151 450 q 322 543 322 450 q 284 613 322 595 q 197 632 247 632 l 167 632 l 167 712 l 196 712 q 274 733 240 712 q 309 804 309 755 q 287 863 309 842 q 224 884 264 884 q 119 818 161 884 l 45 864 q 124 939 76 914 q 229 964 172 964 q 327 943 288 964 q 385 888 366 923 q 404 810 404 854 q 375 722 404 757 q 289 677 345 687 l 289 675 q 386 632 355 669 q 418 542 418 595 q 367 417 418 462 q 225 372 315 372 m 814 956 l 913 956 l 317 0 l 217 0 l 814 956 m 889 129 l 627 129 l 627 195 l 875 574 l 981 574 l 981 195 l 1053 195 l 1053 129 l 981 129 l 981 0 l 889 0 l 889 129 m 889 195 l 889 410 q 892 484 889 444 q 867 443 886 475 q 854 423 861 433 q 842 403 848 413 l 729 235 q 701 195 720 222 l 889 195 z "},"⅛":{"ha":1174,"x_min":57,"x_max":1141,"o":"m 57 450 l 203 450 l 203 873 l 58 785 l 58 863 l 210 956 l 297 956 l 297 450 l 422 450 l 422 382 l 57 382 l 57 450 m 842 956 l 941 956 l 345 0 l 245 0 l 842 956 m 947 -8 q 801 35 850 -8 q 751 153 751 78 q 782 254 751 217 q 857 300 812 291 l 857 301 q 789 349 814 313 q 764 432 764 385 q 811 542 764 503 q 945 582 859 582 q 1080 542 1034 582 q 1126 432 1126 503 q 1101 349 1126 385 q 1032 302 1076 313 l 1032 301 q 1111 254 1080 291 q 1141 154 1141 218 q 1092 35 1141 78 q 947 -8 1043 -8 m 946 336 q 1001 349 983 336 q 1025 379 1020 361 q 1031 425 1031 398 q 1009 488 1031 464 q 945 511 988 511 q 882 488 902 511 q 861 425 861 464 q 881 361 861 387 q 946 336 900 336 m 947 62 q 1043 167 1043 62 q 1020 238 1043 210 q 946 265 997 265 q 870 238 892 265 q 848 164 848 212 q 872 89 848 116 q 947 62 897 62 z "}}}
